%TF.GenerationSoftware,KiCad,Pcbnew,7.0.2*%
%TF.CreationDate,2023-06-03T12:41:16+05:30*%
%TF.ProjectId,STM32F4 based PCB,53544d33-3246-4342-9062-617365642050,rev?*%
%TF.SameCoordinates,Original*%
%TF.FileFunction,Copper,L1,Top*%
%TF.FilePolarity,Positive*%
%FSLAX46Y46*%
G04 Gerber Fmt 4.6, Leading zero omitted, Abs format (unit mm)*
G04 Created by KiCad (PCBNEW 7.0.2) date 2023-06-03 12:41:16*
%MOMM*%
%LPD*%
G01*
G04 APERTURE LIST*
G04 Aperture macros list*
%AMRoundRect*
0 Rectangle with rounded corners*
0 $1 Rounding radius*
0 $2 $3 $4 $5 $6 $7 $8 $9 X,Y pos of 4 corners*
0 Add a 4 corners polygon primitive as box body*
4,1,4,$2,$3,$4,$5,$6,$7,$8,$9,$2,$3,0*
0 Add four circle primitives for the rounded corners*
1,1,$1+$1,$2,$3*
1,1,$1+$1,$4,$5*
1,1,$1+$1,$6,$7*
1,1,$1+$1,$8,$9*
0 Add four rect primitives between the rounded corners*
20,1,$1+$1,$2,$3,$4,$5,0*
20,1,$1+$1,$4,$5,$6,$7,0*
20,1,$1+$1,$6,$7,$8,$9,0*
20,1,$1+$1,$8,$9,$2,$3,0*%
G04 Aperture macros list end*
%TA.AperFunction,SMDPad,CuDef*%
%ADD10R,0.740000X2.400000*%
%TD*%
%TA.AperFunction,ComponentPad*%
%ADD11RoundRect,0.200000X-0.200000X-0.450000X0.200000X-0.450000X0.200000X0.450000X-0.200000X0.450000X0*%
%TD*%
%TA.AperFunction,ComponentPad*%
%ADD12O,0.800000X1.300000*%
%TD*%
%TA.AperFunction,SMDPad,CuDef*%
%ADD13RoundRect,0.150000X0.150000X-0.512500X0.150000X0.512500X-0.150000X0.512500X-0.150000X-0.512500X0*%
%TD*%
%TA.AperFunction,SMDPad,CuDef*%
%ADD14RoundRect,0.225000X-0.225000X-0.250000X0.225000X-0.250000X0.225000X0.250000X-0.225000X0.250000X0*%
%TD*%
%TA.AperFunction,SMDPad,CuDef*%
%ADD15R,2.500000X1.900000*%
%TD*%
%TA.AperFunction,SMDPad,CuDef*%
%ADD16RoundRect,0.200000X0.275000X-0.200000X0.275000X0.200000X-0.275000X0.200000X-0.275000X-0.200000X0*%
%TD*%
%TA.AperFunction,SMDPad,CuDef*%
%ADD17RoundRect,0.250000X-0.325000X-0.650000X0.325000X-0.650000X0.325000X0.650000X-0.325000X0.650000X0*%
%TD*%
%TA.AperFunction,SMDPad,CuDef*%
%ADD18RoundRect,0.200000X-0.275000X0.200000X-0.275000X-0.200000X0.275000X-0.200000X0.275000X0.200000X0*%
%TD*%
%TA.AperFunction,SMDPad,CuDef*%
%ADD19RoundRect,0.135000X0.135000X0.185000X-0.135000X0.185000X-0.135000X-0.185000X0.135000X-0.185000X0*%
%TD*%
%TA.AperFunction,ComponentPad*%
%ADD20C,0.900000*%
%TD*%
%TA.AperFunction,ComponentPad*%
%ADD21C,8.600000*%
%TD*%
%TA.AperFunction,SMDPad,CuDef*%
%ADD22RoundRect,0.140000X0.170000X-0.140000X0.170000X0.140000X-0.170000X0.140000X-0.170000X-0.140000X0*%
%TD*%
%TA.AperFunction,SMDPad,CuDef*%
%ADD23RoundRect,0.140000X-0.140000X-0.170000X0.140000X-0.170000X0.140000X0.170000X-0.140000X0.170000X0*%
%TD*%
%TA.AperFunction,SMDPad,CuDef*%
%ADD24RoundRect,0.140000X0.140000X0.170000X-0.140000X0.170000X-0.140000X-0.170000X0.140000X-0.170000X0*%
%TD*%
%TA.AperFunction,SMDPad,CuDef*%
%ADD25RoundRect,0.225000X-0.225000X-0.375000X0.225000X-0.375000X0.225000X0.375000X-0.225000X0.375000X0*%
%TD*%
%TA.AperFunction,SMDPad,CuDef*%
%ADD26RoundRect,0.075000X-0.700000X-0.075000X0.700000X-0.075000X0.700000X0.075000X-0.700000X0.075000X0*%
%TD*%
%TA.AperFunction,SMDPad,CuDef*%
%ADD27RoundRect,0.075000X-0.075000X-0.700000X0.075000X-0.700000X0.075000X0.700000X-0.075000X0.700000X0*%
%TD*%
%TA.AperFunction,SMDPad,CuDef*%
%ADD28RoundRect,0.135000X-0.135000X-0.185000X0.135000X-0.185000X0.135000X0.185000X-0.135000X0.185000X0*%
%TD*%
%TA.AperFunction,SMDPad,CuDef*%
%ADD29RoundRect,0.225000X0.225000X0.250000X-0.225000X0.250000X-0.225000X-0.250000X0.225000X-0.250000X0*%
%TD*%
%TA.AperFunction,SMDPad,CuDef*%
%ADD30RoundRect,0.150000X-0.150000X0.587500X-0.150000X-0.587500X0.150000X-0.587500X0.150000X0.587500X0*%
%TD*%
%TA.AperFunction,SMDPad,CuDef*%
%ADD31RoundRect,0.218750X-0.381250X0.218750X-0.381250X-0.218750X0.381250X-0.218750X0.381250X0.218750X0*%
%TD*%
%TA.AperFunction,SMDPad,CuDef*%
%ADD32RoundRect,0.218750X0.218750X0.256250X-0.218750X0.256250X-0.218750X-0.256250X0.218750X-0.256250X0*%
%TD*%
%TA.AperFunction,SMDPad,CuDef*%
%ADD33R,1.350000X0.400000*%
%TD*%
%TA.AperFunction,ComponentPad*%
%ADD34O,1.550000X0.890000*%
%TD*%
%TA.AperFunction,SMDPad,CuDef*%
%ADD35R,1.550000X1.200000*%
%TD*%
%TA.AperFunction,ComponentPad*%
%ADD36O,0.950000X1.250000*%
%TD*%
%TA.AperFunction,SMDPad,CuDef*%
%ADD37R,1.550000X1.500000*%
%TD*%
%TA.AperFunction,ComponentPad*%
%ADD38R,2.400000X2.400000*%
%TD*%
%TA.AperFunction,ComponentPad*%
%ADD39C,2.400000*%
%TD*%
%TA.AperFunction,SMDPad,CuDef*%
%ADD40RoundRect,0.147500X-0.147500X-0.172500X0.147500X-0.172500X0.147500X0.172500X-0.147500X0.172500X0*%
%TD*%
%TA.AperFunction,SMDPad,CuDef*%
%ADD41R,0.800000X1.000000*%
%TD*%
%TA.AperFunction,SMDPad,CuDef*%
%ADD42R,1.500000X0.700000*%
%TD*%
%TA.AperFunction,SMDPad,CuDef*%
%ADD43R,1.200000X1.400000*%
%TD*%
%TA.AperFunction,SMDPad,CuDef*%
%ADD44RoundRect,0.225000X0.250000X-0.225000X0.250000X0.225000X-0.250000X0.225000X-0.250000X-0.225000X0*%
%TD*%
%TA.AperFunction,SMDPad,CuDef*%
%ADD45RoundRect,0.250000X0.375000X0.625000X-0.375000X0.625000X-0.375000X-0.625000X0.375000X-0.625000X0*%
%TD*%
%TA.AperFunction,SMDPad,CuDef*%
%ADD46RoundRect,0.150000X0.512500X0.150000X-0.512500X0.150000X-0.512500X-0.150000X0.512500X-0.150000X0*%
%TD*%
%TA.AperFunction,SMDPad,CuDef*%
%ADD47RoundRect,0.218750X0.256250X-0.218750X0.256250X0.218750X-0.256250X0.218750X-0.256250X-0.218750X0*%
%TD*%
%TA.AperFunction,ComponentPad*%
%ADD48RoundRect,0.200000X0.200000X0.450000X-0.200000X0.450000X-0.200000X-0.450000X0.200000X-0.450000X0*%
%TD*%
%TA.AperFunction,SMDPad,CuDef*%
%ADD49RoundRect,0.200000X0.200000X0.275000X-0.200000X0.275000X-0.200000X-0.275000X0.200000X-0.275000X0*%
%TD*%
%TA.AperFunction,ViaPad*%
%ADD50C,0.800000*%
%TD*%
%TA.AperFunction,Conductor*%
%ADD51C,0.261112*%
%TD*%
%TA.AperFunction,Conductor*%
%ADD52C,0.300000*%
%TD*%
%TA.AperFunction,Conductor*%
%ADD53C,0.750000*%
%TD*%
%TA.AperFunction,Conductor*%
%ADD54C,0.500000*%
%TD*%
%TA.AperFunction,Conductor*%
%ADD55C,0.400000*%
%TD*%
%TA.AperFunction,Conductor*%
%ADD56C,1.000000*%
%TD*%
G04 APERTURE END LIST*
D10*
%TO.P,J2,1,Pin_1*%
%TO.N,+3.3V*%
X124140000Y-53650000D03*
%TO.P,J2,2,Pin_2*%
%TO.N,SWDIO*%
X124140000Y-57550000D03*
%TO.P,J2,3,Pin_3*%
%TO.N,GND*%
X122870000Y-53650000D03*
%TO.P,J2,4,Pin_4*%
%TO.N,SWCLK*%
X122870000Y-57550000D03*
%TO.P,J2,5,Pin_5*%
%TO.N,GND*%
X121600000Y-53650000D03*
%TO.P,J2,6,Pin_6*%
%TO.N,SWO*%
X121600000Y-57550000D03*
%TO.P,J2,7,Pin_7*%
%TO.N,unconnected-(J2-Pin_7-Pad7)*%
X120330000Y-53650000D03*
%TO.P,J2,8,Pin_8*%
%TO.N,unconnected-(J2-Pin_8-Pad8)*%
X120330000Y-57550000D03*
%TO.P,J2,9,Pin_9*%
%TO.N,GND*%
X119060000Y-53650000D03*
%TO.P,J2,10,Pin_10*%
%TO.N,NRST*%
X119060000Y-57550000D03*
%TD*%
D11*
%TO.P,J4,1,Pin_1*%
%TO.N,+3.3V*%
X108325000Y-96400000D03*
D12*
%TO.P,J4,2,Pin_2*%
%TO.N,USART3_TX*%
X109575000Y-96400000D03*
%TO.P,J4,3,Pin_3*%
%TO.N,USART3_RX*%
X110825000Y-96400000D03*
%TO.P,J4,4,Pin_4*%
%TO.N,GND*%
X112075000Y-96400000D03*
%TD*%
D13*
%TO.P,U2,1,BST*%
%TO.N,BUCK_BST*%
X126850000Y-88242500D03*
%TO.P,U2,2,GND*%
%TO.N,GND*%
X127800000Y-88242500D03*
%TO.P,U2,3,FB*%
%TO.N,BUCK_FB*%
X128750000Y-88242500D03*
%TO.P,U2,4,EN*%
%TO.N,BUCK_EN*%
X128750000Y-85967500D03*
%TO.P,U2,5,IN*%
%TO.N,BUCK_IN*%
X127800000Y-85967500D03*
%TO.P,U2,6,SW*%
%TO.N,BUCK_SW*%
X126850000Y-85967500D03*
%TD*%
D14*
%TO.P,C1,1*%
%TO.N,Net-(U1-VCAP_1)*%
X114475000Y-84250000D03*
%TO.P,C1,2*%
%TO.N,GND*%
X116025000Y-84250000D03*
%TD*%
D15*
%TO.P,L2,1*%
%TO.N,BUCK_SW*%
X121300000Y-85075000D03*
%TO.P,L2,2*%
%TO.N,+3.3V*%
X121300000Y-89175000D03*
%TD*%
D16*
%TO.P,R5,1*%
%TO.N,BUCK_EN*%
X132550000Y-86700000D03*
%TO.P,R5,2*%
%TO.N,GND*%
X132550000Y-85050000D03*
%TD*%
D17*
%TO.P,C13,1*%
%TO.N,BUCK_IN*%
X127825000Y-83105000D03*
%TO.P,C13,2*%
%TO.N,GND*%
X130775000Y-83105000D03*
%TD*%
D18*
%TO.P,R7,1*%
%TO.N,BUCK_FB*%
X132613745Y-88352074D03*
%TO.P,R7,2*%
%TO.N,Net-(R7-Pad2)*%
X132613745Y-90002074D03*
%TD*%
D19*
%TO.P,R1,1*%
%TO.N,BOOT0*%
X94610000Y-67400000D03*
%TO.P,R1,2*%
%TO.N,Net-(SW1-B)*%
X93590000Y-67400000D03*
%TD*%
D20*
%TO.P,H1,1,1*%
%TO.N,GND*%
X90385838Y-96180419D03*
X91330419Y-93900000D03*
X91330419Y-98460838D03*
X93610838Y-92955419D03*
D21*
X93610838Y-96180419D03*
D20*
X93610838Y-99405419D03*
X95891257Y-93900000D03*
X95891257Y-98460838D03*
X96835838Y-96180419D03*
%TD*%
D17*
%TO.P,C15,1*%
%TO.N,+3.3V*%
X122325000Y-92855000D03*
%TO.P,C15,2*%
%TO.N,GND*%
X125275000Y-92855000D03*
%TD*%
D16*
%TO.P,R6,1*%
%TO.N,+3.3V*%
X130800000Y-89950000D03*
%TO.P,R6,2*%
%TO.N,BUCK_FB*%
X130800000Y-88300000D03*
%TD*%
D17*
%TO.P,C16,1*%
%TO.N,+3.3V*%
X122325000Y-95605000D03*
%TO.P,C16,2*%
%TO.N,GND*%
X125275000Y-95605000D03*
%TD*%
D22*
%TO.P,C7,1*%
%TO.N,+3.3V*%
X117000000Y-70980000D03*
%TO.P,C7,2*%
%TO.N,GND*%
X117000000Y-70020000D03*
%TD*%
D20*
%TO.P,H4,1,1*%
%TO.N,GND*%
X90385838Y-56160838D03*
X91330419Y-53880419D03*
X91330419Y-58441257D03*
X93610838Y-52935838D03*
D21*
X93610838Y-56160838D03*
D20*
X93610838Y-59385838D03*
X95891257Y-53880419D03*
X95891257Y-58441257D03*
X96835838Y-56160838D03*
%TD*%
D23*
%TO.P,C8,1*%
%TO.N,+3.3V*%
X106920000Y-68431221D03*
%TO.P,C8,2*%
%TO.N,GND*%
X107880000Y-68431221D03*
%TD*%
D22*
%TO.P,C9,1*%
%TO.N,+3.3VA*%
X101486020Y-78578010D03*
%TO.P,C9,2*%
%TO.N,GND*%
X101486020Y-77618010D03*
%TD*%
%TO.P,C10,1*%
%TO.N,+3.3VA*%
X103000000Y-78570575D03*
%TO.P,C10,2*%
%TO.N,GND*%
X103000000Y-77610575D03*
%TD*%
D24*
%TO.P,C12,1*%
%TO.N,Net-(C12-Pad1)*%
X99680000Y-77186807D03*
%TO.P,C12,2*%
%TO.N,GND*%
X98720000Y-77186807D03*
%TD*%
D19*
%TO.P,R9,1*%
%TO.N,+3.3V*%
X111965741Y-66635107D03*
%TO.P,R9,2*%
%TO.N,I2C_SCL*%
X110945741Y-66635107D03*
%TD*%
D16*
%TO.P,R3,1*%
%TO.N,Net-(D1-K)*%
X101000000Y-84075000D03*
%TO.P,R3,2*%
%TO.N,GND*%
X101000000Y-82425000D03*
%TD*%
D25*
%TO.P,D3,1,K*%
%TO.N,Net-(D3-K)*%
X132650000Y-75625000D03*
%TO.P,D3,2,A*%
%TO.N,+5V*%
X135950000Y-75625000D03*
%TD*%
D26*
%TO.P,U1,1,VBAT*%
%TO.N,+3.3V*%
X105195000Y-72390000D03*
%TO.P,U1,2,PC13*%
%TO.N,unconnected-(U1-PC13-Pad2)*%
X105195000Y-72890000D03*
%TO.P,U1,3,PC14*%
%TO.N,unconnected-(U1-PC14-Pad3)*%
X105195000Y-73390000D03*
%TO.P,U1,4,PC15*%
%TO.N,unconnected-(U1-PC15-Pad4)*%
X105195000Y-73890000D03*
%TO.P,U1,5,PH0*%
%TO.N,HSE_IN*%
X105195000Y-74390000D03*
%TO.P,U1,6,PH1*%
%TO.N,HSE_OUT*%
X105195000Y-74890000D03*
%TO.P,U1,7,NRST*%
%TO.N,NRST*%
X105195000Y-75390000D03*
%TO.P,U1,8,PC0*%
%TO.N,unconnected-(U1-PC0-Pad8)*%
X105195000Y-75890000D03*
%TO.P,U1,9,PC1*%
%TO.N,unconnected-(U1-PC1-Pad9)*%
X105195000Y-76390000D03*
%TO.P,U1,10,PC2*%
%TO.N,unconnected-(U1-PC2-Pad10)*%
X105195000Y-76890000D03*
%TO.P,U1,11,PC3*%
%TO.N,unconnected-(U1-PC3-Pad11)*%
X105195000Y-77390000D03*
%TO.P,U1,12,VSSA*%
%TO.N,GND*%
X105195000Y-77890000D03*
%TO.P,U1,13,VDDA*%
%TO.N,+3.3VA*%
X105195000Y-78390000D03*
%TO.P,U1,14,PA0*%
%TO.N,unconnected-(U1-PA0-Pad14)*%
X105195000Y-78890000D03*
%TO.P,U1,15,PA1*%
%TO.N,unconnected-(U1-PA1-Pad15)*%
X105195000Y-79390000D03*
%TO.P,U1,16,PA2*%
%TO.N,LED_STATUS*%
X105195000Y-79890000D03*
D27*
%TO.P,U1,17,PA3*%
%TO.N,unconnected-(U1-PA3-Pad17)*%
X107120000Y-81815000D03*
%TO.P,U1,18,VSS*%
%TO.N,GND*%
X107620000Y-81815000D03*
%TO.P,U1,19,VDD*%
%TO.N,+3.3V*%
X108120000Y-81815000D03*
%TO.P,U1,20,PA4*%
%TO.N,unconnected-(U1-PA4-Pad20)*%
X108620000Y-81815000D03*
%TO.P,U1,21,PA5*%
%TO.N,unconnected-(U1-PA5-Pad21)*%
X109120000Y-81815000D03*
%TO.P,U1,22,PA6*%
%TO.N,unconnected-(U1-PA6-Pad22)*%
X109620000Y-81815000D03*
%TO.P,U1,23,PA7*%
%TO.N,unconnected-(U1-PA7-Pad23)*%
X110120000Y-81815000D03*
%TO.P,U1,24,PC4*%
%TO.N,unconnected-(U1-PC4-Pad24)*%
X110620000Y-81815000D03*
%TO.P,U1,25,PC5*%
%TO.N,unconnected-(U1-PC5-Pad25)*%
X111120000Y-81815000D03*
%TO.P,U1,26,PB0*%
%TO.N,unconnected-(U1-PB0-Pad26)*%
X111620000Y-81815000D03*
%TO.P,U1,27,PB1*%
%TO.N,unconnected-(U1-PB1-Pad27)*%
X112120000Y-81815000D03*
%TO.P,U1,28,PB2*%
%TO.N,unconnected-(U1-PB2-Pad28)*%
X112620000Y-81815000D03*
%TO.P,U1,29,PB10*%
%TO.N,USART3_TX*%
X113120000Y-81815000D03*
%TO.P,U1,30,PB11*%
%TO.N,USART3_RX*%
X113620000Y-81815000D03*
%TO.P,U1,31,VCAP_1*%
%TO.N,Net-(U1-VCAP_1)*%
X114120000Y-81815000D03*
%TO.P,U1,32,VDD*%
%TO.N,+3.3V*%
X114620000Y-81815000D03*
D26*
%TO.P,U1,33,PB12*%
%TO.N,unconnected-(U1-PB12-Pad33)*%
X116545000Y-79890000D03*
%TO.P,U1,34,PB13*%
%TO.N,unconnected-(U1-PB13-Pad34)*%
X116545000Y-79390000D03*
%TO.P,U1,35,PB14*%
%TO.N,unconnected-(U1-PB14-Pad35)*%
X116545000Y-78890000D03*
%TO.P,U1,36,PB15*%
%TO.N,unconnected-(U1-PB15-Pad36)*%
X116545000Y-78390000D03*
%TO.P,U1,37,PC6*%
%TO.N,unconnected-(U1-PC6-Pad37)*%
X116545000Y-77890000D03*
%TO.P,U1,38,PC7*%
%TO.N,unconnected-(U1-PC7-Pad38)*%
X116545000Y-77390000D03*
%TO.P,U1,39,PC8*%
%TO.N,unconnected-(U1-PC8-Pad39)*%
X116545000Y-76890000D03*
%TO.P,U1,40,PC9*%
%TO.N,unconnected-(U1-PC9-Pad40)*%
X116545000Y-76390000D03*
%TO.P,U1,41,PA8*%
%TO.N,unconnected-(U1-PA8-Pad41)*%
X116545000Y-75890000D03*
%TO.P,U1,42,PA9*%
%TO.N,unconnected-(U1-PA9-Pad42)*%
X116545000Y-75390000D03*
%TO.P,U1,43,PA10*%
%TO.N,unconnected-(U1-PA10-Pad43)*%
X116545000Y-74890000D03*
%TO.P,U1,44,PA11*%
%TO.N,USB_D-*%
X116545000Y-74390000D03*
%TO.P,U1,45,PA12*%
%TO.N,USB_D+*%
X116545000Y-73890000D03*
%TO.P,U1,46,PA13*%
%TO.N,SWDIO*%
X116545000Y-73390000D03*
%TO.P,U1,47,VCAP_2*%
%TO.N,Net-(U1-VCAP_2)*%
X116545000Y-72890000D03*
%TO.P,U1,48,VDD*%
%TO.N,+3.3V*%
X116545000Y-72390000D03*
D27*
%TO.P,U1,49,PA14*%
%TO.N,SWCLK*%
X114620000Y-70465000D03*
%TO.P,U1,50,PA15*%
%TO.N,unconnected-(U1-PA15-Pad50)*%
X114120000Y-70465000D03*
%TO.P,U1,51,PC10*%
%TO.N,unconnected-(U1-PC10-Pad51)*%
X113620000Y-70465000D03*
%TO.P,U1,52,PC11*%
%TO.N,unconnected-(U1-PC11-Pad52)*%
X113120000Y-70465000D03*
%TO.P,U1,53,PC12*%
%TO.N,unconnected-(U1-PC12-Pad53)*%
X112620000Y-70465000D03*
%TO.P,U1,54,PD2*%
%TO.N,unconnected-(U1-PD2-Pad54)*%
X112120000Y-70465000D03*
%TO.P,U1,55,PB3*%
%TO.N,SWO*%
X111620000Y-70465000D03*
%TO.P,U1,56,PB4*%
%TO.N,unconnected-(U1-PB4-Pad56)*%
X111120000Y-70465000D03*
%TO.P,U1,57,PB5*%
%TO.N,unconnected-(U1-PB5-Pad57)*%
X110620000Y-70465000D03*
%TO.P,U1,58,PB6*%
%TO.N,I2C_SCL*%
X110120000Y-70465000D03*
%TO.P,U1,59,PB7*%
%TO.N,I2C1_SDA*%
X109620000Y-70465000D03*
%TO.P,U1,60,BOOT0*%
%TO.N,BOOT0*%
X109120000Y-70465000D03*
%TO.P,U1,61,PB8*%
%TO.N,unconnected-(U1-PB8-Pad61)*%
X108620000Y-70465000D03*
%TO.P,U1,62,PB9*%
%TO.N,unconnected-(U1-PB9-Pad62)*%
X108120000Y-70465000D03*
%TO.P,U1,63,VSS*%
%TO.N,GND*%
X107620000Y-70465000D03*
%TO.P,U1,64,VDD*%
%TO.N,+3.3V*%
X107120000Y-70465000D03*
%TD*%
D28*
%TO.P,R10,1*%
%TO.N,+3.3V*%
X108595472Y-66600000D03*
%TO.P,R10,2*%
%TO.N,I2C1_SDA*%
X109615472Y-66600000D03*
%TD*%
D29*
%TO.P,C3,1*%
%TO.N,+3.3V*%
X104677604Y-68407425D03*
%TO.P,C3,2*%
%TO.N,GND*%
X103127604Y-68407425D03*
%TD*%
D23*
%TO.P,C11,1*%
%TO.N,HSE_IN*%
X98420000Y-70800000D03*
%TO.P,C11,2*%
%TO.N,GND*%
X99380000Y-70800000D03*
%TD*%
D22*
%TO.P,C14,1*%
%TO.N,BUCK_BST*%
X125300000Y-87585000D03*
%TO.P,C14,2*%
%TO.N,BUCK_SW*%
X125300000Y-86625000D03*
%TD*%
D30*
%TO.P,Q1,1,G*%
%TO.N,GND*%
X133000000Y-78437500D03*
%TO.P,Q1,2,S*%
%TO.N,Net-(D3-K)*%
X131100000Y-78437500D03*
%TO.P,Q1,3,D*%
%TO.N,+12V*%
X132050000Y-80312500D03*
%TD*%
D16*
%TO.P,R8,1*%
%TO.N,Net-(R7-Pad2)*%
X134300000Y-89950000D03*
%TO.P,R8,2*%
%TO.N,GND*%
X134300000Y-88300000D03*
%TD*%
D31*
%TO.P,FB1,1*%
%TO.N,Net-(F1-Pad2)*%
X127800000Y-78062500D03*
%TO.P,FB1,2*%
%TO.N,BUCK_IN*%
X127800000Y-80187500D03*
%TD*%
D20*
%TO.P,H3,1,1*%
%TO.N,GND*%
X135455419Y-96180419D03*
X136400000Y-93900000D03*
X136400000Y-98460838D03*
X138680419Y-92955419D03*
D21*
X138680419Y-96180419D03*
D20*
X138680419Y-99405419D03*
X140960838Y-93900000D03*
X140960838Y-98460838D03*
X141905419Y-96180419D03*
%TD*%
D32*
%TO.P,D4,1,K*%
%TO.N,Net-(D4-K)*%
X130500000Y-54868750D03*
%TO.P,D4,2,A*%
%TO.N,+3.3V*%
X128925000Y-54868750D03*
%TD*%
D33*
%TO.P,J5,1,VBUS*%
%TO.N,+5V*%
X140100000Y-70238935D03*
%TO.P,J5,2,D-*%
%TO.N,USB_CONN_D-*%
X140100000Y-69588935D03*
%TO.P,J5,3,D+*%
%TO.N,USB_CONN_D+*%
X140100000Y-68938935D03*
%TO.P,J5,4,ID*%
%TO.N,unconnected-(J5-ID-Pad4)*%
X140100000Y-68288935D03*
%TO.P,J5,5,GND*%
%TO.N,GND*%
X140100000Y-67638935D03*
D34*
%TO.P,J5,6,Shield*%
%TO.N,unconnected-(J5-Shield-Pad6)*%
X142800000Y-72438935D03*
D35*
X142800000Y-71838935D03*
D36*
X140100000Y-71438935D03*
D37*
X142800000Y-69938935D03*
X142800000Y-67938935D03*
D36*
X140100000Y-66438935D03*
D35*
X142800000Y-66038935D03*
D34*
X142800000Y-65438935D03*
%TD*%
D38*
%TO.P,J1,1,Pin_1*%
%TO.N,+12V*%
X138700000Y-84550000D03*
D39*
%TO.P,J1,2,Pin_2*%
%TO.N,GND*%
X138700000Y-81050000D03*
%TD*%
D25*
%TO.P,D2,1,K*%
%TO.N,BUCK_SW*%
X121400000Y-82125000D03*
%TO.P,D2,2,A*%
%TO.N,GND*%
X124700000Y-82125000D03*
%TD*%
D22*
%TO.P,C4,1*%
%TO.N,+3.3V*%
X103000000Y-72379321D03*
%TO.P,C4,2*%
%TO.N,GND*%
X103000000Y-71419321D03*
%TD*%
D18*
%TO.P,R4,1*%
%TO.N,BUCK_IN*%
X130800000Y-85050000D03*
%TO.P,R4,2*%
%TO.N,BUCK_EN*%
X130800000Y-86700000D03*
%TD*%
D40*
%TO.P,L1,1*%
%TO.N,+3.3V*%
X99280000Y-80000000D03*
%TO.P,L1,2*%
%TO.N,+3.3VA*%
X100250000Y-80000000D03*
%TD*%
D41*
%TO.P,SW1,*%
%TO.N,*%
X90900000Y-63000000D03*
X88690000Y-63000000D03*
X90900000Y-70300000D03*
X88690000Y-70300000D03*
D42*
%TO.P,SW1,1,A*%
%TO.N,+3.3V*%
X91550000Y-64400000D03*
%TO.P,SW1,2,B*%
%TO.N,Net-(SW1-B)*%
X91550000Y-67400000D03*
%TO.P,SW1,3,C*%
%TO.N,GND*%
X91550000Y-68900000D03*
%TD*%
D24*
%TO.P,C5,1*%
%TO.N,+3.3V*%
X108280000Y-84000000D03*
%TO.P,C5,2*%
%TO.N,GND*%
X107320000Y-84000000D03*
%TD*%
D20*
%TO.P,H2,1,1*%
%TO.N,GND*%
X135455419Y-56180419D03*
X136400000Y-53900000D03*
X136400000Y-58460838D03*
X138680419Y-52955419D03*
D21*
X138680419Y-56180419D03*
D20*
X138680419Y-59405419D03*
X140960838Y-53900000D03*
X140960838Y-58460838D03*
X141905419Y-56180419D03*
%TD*%
D43*
%TO.P,Y1,1,1*%
%TO.N,HSE_IN*%
X98450000Y-73100000D03*
%TO.P,Y1,2,2*%
%TO.N,GND*%
X98450000Y-75300000D03*
%TO.P,Y1,3,3*%
%TO.N,Net-(C12-Pad1)*%
X100150000Y-75300000D03*
%TO.P,Y1,4,4*%
%TO.N,GND*%
X100150000Y-73100000D03*
%TD*%
D44*
%TO.P,C2,1*%
%TO.N,Net-(U1-VCAP_2)*%
X119203952Y-72889997D03*
%TO.P,C2,2*%
%TO.N,GND*%
X119203952Y-71339997D03*
%TD*%
D19*
%TO.P,R2,1*%
%TO.N,HSE_OUT*%
X103010000Y-75300000D03*
%TO.P,R2,2*%
%TO.N,Net-(C12-Pad1)*%
X101990000Y-75300000D03*
%TD*%
D45*
%TO.P,F1,1*%
%TO.N,Net-(D3-K)*%
X130600000Y-75625000D03*
%TO.P,F1,2*%
%TO.N,Net-(F1-Pad2)*%
X127800000Y-75625000D03*
%TD*%
D23*
%TO.P,C6,1*%
%TO.N,+3.3V*%
X116250000Y-82500000D03*
%TO.P,C6,2*%
%TO.N,GND*%
X117210000Y-82500000D03*
%TD*%
D46*
%TO.P,U3,1,I/O1*%
%TO.N,USB_CONN_D-*%
X136537500Y-70250000D03*
%TO.P,U3,2,GND*%
%TO.N,GND*%
X136537500Y-69300000D03*
%TO.P,U3,3,I/O2*%
%TO.N,USB_CONN_D+*%
X136537500Y-68350000D03*
%TO.P,U3,4,I/O2*%
%TO.N,USB_D+*%
X134262500Y-68350000D03*
%TO.P,U3,5,VBUS*%
%TO.N,+5V*%
X134262500Y-69300000D03*
%TO.P,U3,6,I/O1*%
%TO.N,USB_D-*%
X134262500Y-70250000D03*
%TD*%
D47*
%TO.P,D1,1,K*%
%TO.N,Net-(D1-K)*%
X103500000Y-84037500D03*
%TO.P,D1,2,A*%
%TO.N,LED_STATUS*%
X103500000Y-82462500D03*
%TD*%
D48*
%TO.P,J3,1,Pin_1*%
%TO.N,+3.3V*%
X112117965Y-55949581D03*
D12*
%TO.P,J3,2,Pin_2*%
%TO.N,I2C_SCL*%
X110867965Y-55949581D03*
%TO.P,J3,3,Pin_3*%
%TO.N,I2C1_SDA*%
X109617965Y-55949581D03*
%TO.P,J3,4,Pin_4*%
%TO.N,GND*%
X108367965Y-55949581D03*
%TD*%
D49*
%TO.P,R11,1*%
%TO.N,Net-(D4-K)*%
X130537500Y-56968750D03*
%TO.P,R11,2*%
%TO.N,GND*%
X128887500Y-56968750D03*
%TD*%
D50*
%TO.N,NRST*%
X113700000Y-72500000D03*
X113700000Y-65000000D03*
%TO.N,GND*%
X122900000Y-52400000D03*
X103000000Y-76800000D03*
X101500000Y-76800000D03*
X97100000Y-77200000D03*
X97200000Y-75400000D03*
X101200000Y-73000000D03*
X135400000Y-67300000D03*
X131800000Y-83700000D03*
X129800000Y-83600000D03*
X129800000Y-82600000D03*
X127800000Y-87229500D03*
X127800000Y-90200000D03*
X138958497Y-66641503D03*
X138058497Y-66641503D03*
X138041503Y-67581142D03*
X119200000Y-70600000D03*
X100100000Y-82400000D03*
X106700000Y-84000000D03*
X117900000Y-82500000D03*
X128912500Y-57768750D03*
X102300000Y-71400000D03*
X138963782Y-67581142D03*
X132500000Y-84300000D03*
X133400000Y-85100000D03*
X124700000Y-81100000D03*
X132400000Y-78500000D03*
X126100000Y-93300000D03*
X126100000Y-95000000D03*
X121600000Y-52400000D03*
X92700000Y-68900000D03*
%TO.N,+3.3V*%
X124200000Y-52400000D03*
%TO.N,GND*%
X131800000Y-82500000D03*
X103100000Y-67600000D03*
X107900000Y-67700000D03*
X135100000Y-88300000D03*
X126100000Y-92300000D03*
X116800000Y-84200000D03*
X133600000Y-78500000D03*
X124700000Y-83100000D03*
X134300000Y-87500000D03*
X127800000Y-89300000D03*
X126100000Y-96100000D03*
X117000000Y-69400000D03*
%TO.N,+3.3V*%
X107900000Y-66600000D03*
X109000000Y-84000000D03*
X102300000Y-72400000D03*
X99300000Y-79200000D03*
X121400000Y-95600000D03*
X123200000Y-92900000D03*
X99300000Y-80800000D03*
X92700000Y-64400000D03*
X106900000Y-67700000D03*
X116500000Y-81700000D03*
X112700000Y-66600000D03*
X128912500Y-53968750D03*
X123000000Y-89800000D03*
X130800000Y-90700000D03*
%TO.N,GND*%
X119100000Y-52300000D03*
%TO.N,+3.3V*%
X119600000Y-89800000D03*
X117700000Y-71000000D03*
X123000000Y-88500000D03*
X104700000Y-67500000D03*
X123200000Y-95600000D03*
X119600000Y-88500000D03*
X130000000Y-90000000D03*
X121400000Y-92900000D03*
%TD*%
D51*
%TO.N,USB_D-*%
X133268749Y-70250000D02*
X134262500Y-70250000D01*
X121819954Y-69532156D02*
X132550905Y-69532156D01*
X121461112Y-69890998D02*
X121819954Y-69532156D01*
X117725345Y-74372156D02*
X120651634Y-74372156D01*
X132550905Y-69532156D02*
X133268749Y-70250000D01*
X117707501Y-74390000D02*
X117725345Y-74372156D01*
X116545000Y-74390000D02*
X117707501Y-74390000D01*
X120651634Y-74372156D02*
X121461112Y-73562678D01*
X121461112Y-73562678D02*
X121461112Y-69890998D01*
%TO.N,USB_D+*%
X121632156Y-69067844D02*
X132550905Y-69067844D01*
X121000000Y-73371680D02*
X121000000Y-69700000D01*
X121000000Y-69700000D02*
X121632156Y-69067844D01*
X120463836Y-73907844D02*
X121000000Y-73371680D01*
X117725345Y-73907844D02*
X120463836Y-73907844D01*
X117707501Y-73890000D02*
X117725345Y-73907844D01*
X133268749Y-68350000D02*
X134262500Y-68350000D01*
X116545000Y-73890000D02*
X117707501Y-73890000D01*
X132550905Y-69067844D02*
X133268749Y-68350000D01*
D52*
%TO.N,NRST*%
X119060000Y-59640000D02*
X119060000Y-57550000D01*
X113700000Y-65000000D02*
X119060000Y-59640000D01*
X110810000Y-75390000D02*
X113700000Y-72500000D01*
X105195000Y-75390000D02*
X110810000Y-75390000D01*
%TO.N,SWO*%
X121600000Y-59608959D02*
X121600000Y-57550000D01*
X111620000Y-70465000D02*
X111620000Y-69588959D01*
X111620000Y-69588959D02*
X121600000Y-59608959D01*
%TO.N,SWDIO*%
X124140000Y-60060000D02*
X124140000Y-57550000D01*
X115420000Y-68780000D02*
X124140000Y-60060000D01*
%TO.N,SWCLK*%
X122870000Y-59530000D02*
X122870000Y-57550000D01*
X114620000Y-67780000D02*
X122870000Y-59530000D01*
D53*
%TO.N,GND*%
X121600000Y-52400000D02*
X121600000Y-53800000D01*
D54*
%TO.N,Net-(SW1-B)*%
X93590000Y-67400000D02*
X91550000Y-67400000D01*
D51*
%TO.N,USB_CONN_D-*%
X140230508Y-69519491D02*
X140161064Y-69588935D01*
X138261760Y-69519491D02*
X140230508Y-69519491D01*
X137531251Y-70250000D02*
X138261760Y-69519491D01*
X136537500Y-70250000D02*
X137531251Y-70250000D01*
%TO.N,USB_CONN_D+*%
X140280508Y-69058379D02*
X140161064Y-68938935D01*
X138239630Y-69058379D02*
X140280508Y-69058379D01*
X137531251Y-68350000D02*
X138239630Y-69058379D01*
X136537500Y-68350000D02*
X137531251Y-68350000D01*
D53*
%TO.N,GND*%
X98706807Y-77200000D02*
X98720000Y-77186807D01*
X97100000Y-77200000D02*
X98706807Y-77200000D01*
X100250000Y-73000000D02*
X100150000Y-73100000D01*
X101200000Y-73000000D02*
X100250000Y-73000000D01*
X103000000Y-76800000D02*
X103000000Y-77610575D01*
X101500000Y-77604030D02*
X101486020Y-77618010D01*
X101500000Y-76800000D02*
X101500000Y-77604030D01*
X98350000Y-75400000D02*
X98450000Y-75300000D01*
X97200000Y-75400000D02*
X98350000Y-75400000D01*
D52*
%TO.N,+3.3V*%
X102979321Y-72400000D02*
X103000000Y-72379321D01*
X102300000Y-72400000D02*
X102979321Y-72400000D01*
%TO.N,GND*%
X102130000Y-71570000D02*
X102300000Y-71400000D01*
X100150000Y-71570000D02*
X102130000Y-71570000D01*
X100150000Y-73100000D02*
X100150000Y-71570000D01*
X119100000Y-52300000D02*
X119100000Y-53760000D01*
D53*
%TO.N,+3.3V*%
X124200000Y-52400000D02*
X124200000Y-53740000D01*
D52*
X128912500Y-54856250D02*
X128925000Y-54868750D01*
X128912500Y-53968750D02*
X128912500Y-54856250D01*
D53*
%TO.N,GND*%
X128912500Y-56993750D02*
X128887500Y-56968750D01*
X128912500Y-57768750D02*
X128912500Y-56993750D01*
X107900000Y-68411221D02*
X107880000Y-68431221D01*
X107900000Y-67700000D02*
X107900000Y-68411221D01*
D54*
X119200000Y-71336045D02*
X119203952Y-71339997D01*
X119200000Y-70600000D02*
X119200000Y-71336045D01*
X117000000Y-70020000D02*
X117000000Y-69400000D01*
D53*
%TO.N,unconnected-(J5-Shield-Pad6)*%
X142861064Y-65438935D02*
X142861064Y-72438935D01*
X141861064Y-71438935D02*
X142861064Y-72438935D01*
X140161064Y-71438935D02*
X141861064Y-71438935D01*
X141861064Y-66438935D02*
X142861064Y-65438935D01*
X140161064Y-66438935D02*
X141861064Y-66438935D01*
D55*
%TO.N,GND*%
X135400000Y-67300000D02*
X135400000Y-68800000D01*
X135400000Y-68800000D02*
X135900000Y-69300000D01*
X135900000Y-69300000D02*
X136537500Y-69300000D01*
%TO.N,+5V*%
X135325000Y-71125000D02*
X136000000Y-71800000D01*
X135325000Y-69872183D02*
X135325000Y-71125000D01*
X134752817Y-69300000D02*
X135325000Y-69872183D01*
X134262500Y-69300000D02*
X134752817Y-69300000D01*
D54*
X137900000Y-71800000D02*
X139461065Y-70238935D01*
X136000000Y-71800000D02*
X137900000Y-71800000D01*
X135950000Y-71850000D02*
X136000000Y-71800000D01*
X135950000Y-75625000D02*
X135950000Y-71850000D01*
X139461065Y-70238935D02*
X140161064Y-70238935D01*
%TO.N,GND*%
X139082640Y-67700000D02*
X138963782Y-67581142D01*
X140800000Y-67600000D02*
X139082640Y-67600000D01*
X140761065Y-67638935D02*
X140800000Y-67600000D01*
X140161064Y-67638935D02*
X140761065Y-67638935D01*
D53*
X138041503Y-67558497D02*
X138958497Y-66641503D01*
X138041503Y-67581142D02*
X138041503Y-67558497D01*
X138958497Y-67575857D02*
X138963782Y-67581142D01*
X138958497Y-66641503D02*
X138958497Y-67575857D01*
X138041503Y-67581142D02*
X138963782Y-67581142D01*
X138058497Y-66641503D02*
X138058497Y-67564148D01*
X138058497Y-67564148D02*
X138041503Y-67581142D01*
X138058497Y-66641503D02*
X138958497Y-66641503D01*
X126100000Y-95000000D02*
X126100000Y-96100000D01*
X125605000Y-95605000D02*
X126100000Y-96100000D01*
X125275000Y-95605000D02*
X125605000Y-95605000D01*
X125880000Y-95000000D02*
X125275000Y-95605000D01*
X126100000Y-95000000D02*
X125880000Y-95000000D01*
X126100000Y-93300000D02*
X126100000Y-92300000D01*
X125720000Y-93300000D02*
X125275000Y-92855000D01*
X126100000Y-93300000D02*
X125720000Y-93300000D01*
X125830000Y-92300000D02*
X125275000Y-92855000D01*
X126100000Y-92300000D02*
X125830000Y-92300000D01*
X127800000Y-90200000D02*
X127800000Y-87229500D01*
X127800000Y-90200000D02*
X127800000Y-89300000D01*
X127800000Y-88242500D02*
X127800000Y-89300000D01*
X127800000Y-87229500D02*
X127800000Y-88242500D01*
D56*
X133600000Y-78500000D02*
X132400000Y-78500000D01*
X132937500Y-78500000D02*
X133000000Y-78437500D01*
X132400000Y-78500000D02*
X132937500Y-78500000D01*
X131800000Y-83700000D02*
X131800000Y-82500000D01*
X131700000Y-83600000D02*
X131800000Y-83700000D01*
X129800000Y-83600000D02*
X131700000Y-83600000D01*
X129800000Y-82600000D02*
X129800000Y-83600000D01*
X131700000Y-82600000D02*
X131800000Y-82500000D01*
X129800000Y-82600000D02*
X131700000Y-82600000D01*
X131195000Y-83105000D02*
X130775000Y-83105000D01*
X131800000Y-82500000D02*
X131195000Y-83105000D01*
X133350000Y-85050000D02*
X133400000Y-85100000D01*
X132550000Y-85050000D02*
X133350000Y-85050000D01*
X132500000Y-85000000D02*
X132550000Y-85050000D01*
X132500000Y-84300000D02*
X132500000Y-85000000D01*
X134300000Y-88300000D02*
X135100000Y-88300000D01*
X134300000Y-87500000D02*
X134300000Y-88300000D01*
X124700000Y-82125000D02*
X124700000Y-83100000D01*
X124700000Y-82125000D02*
X124700000Y-81100000D01*
X116750000Y-84250000D02*
X116800000Y-84200000D01*
X116025000Y-84250000D02*
X116750000Y-84250000D01*
D53*
X117210000Y-82500000D02*
X117900000Y-82500000D01*
X106700000Y-84000000D02*
X107320000Y-84000000D01*
X100975000Y-82400000D02*
X101000000Y-82425000D01*
X100100000Y-82400000D02*
X100975000Y-82400000D01*
X102300000Y-71400000D02*
X102980679Y-71400000D01*
X102980679Y-71400000D02*
X103000000Y-71419321D01*
D56*
X92650000Y-68850000D02*
X92700000Y-68900000D01*
X91530000Y-68850000D02*
X92650000Y-68850000D01*
X103100000Y-68379821D02*
X103127604Y-68407425D01*
X103100000Y-67600000D02*
X103100000Y-68379821D01*
%TO.N,+12V*%
X138700000Y-84550000D02*
X136287500Y-84550000D01*
X132050000Y-80312500D02*
X136287500Y-84550000D01*
D52*
%TO.N,GND*%
X107620000Y-81815000D02*
X107620000Y-83700000D01*
X100150000Y-71570000D02*
X99380000Y-70800000D01*
X107620000Y-68691221D02*
X107880000Y-68431221D01*
X103279425Y-77890000D02*
X103000000Y-77610575D01*
X107620000Y-70465000D02*
X107620000Y-68691221D01*
X105195000Y-77890000D02*
X103279425Y-77890000D01*
X98450000Y-75300000D02*
X98450000Y-76916807D01*
X107620000Y-83700000D02*
X107320000Y-84000000D01*
X98450000Y-76916807D02*
X98720000Y-77186807D01*
D54*
%TO.N,Net-(D4-K)*%
X130500000Y-56931250D02*
X130537500Y-56968750D01*
X130500000Y-54868750D02*
X130500000Y-56931250D01*
D53*
%TO.N,Net-(R7-Pad2)*%
X134300000Y-89950000D02*
X132665819Y-89950000D01*
X132665819Y-89950000D02*
X132613745Y-90002074D01*
%TO.N,BUCK_FB*%
X132613745Y-88352074D02*
X130852074Y-88352074D01*
X130852074Y-88352074D02*
X130800000Y-88300000D01*
X128807500Y-88300000D02*
X128750000Y-88242500D01*
X130800000Y-88300000D02*
X128807500Y-88300000D01*
D56*
%TO.N,+3.3V*%
X119600000Y-89800000D02*
X119600000Y-88500000D01*
X123000000Y-89800000D02*
X123000000Y-88500000D01*
D52*
X99280000Y-80000000D02*
X99280000Y-80780000D01*
D56*
X123200000Y-92900000D02*
X122370000Y-92900000D01*
D52*
X107120000Y-70465000D02*
X107120000Y-68631221D01*
X108280000Y-84000000D02*
X109000000Y-84000000D01*
D56*
X122330000Y-95600000D02*
X122325000Y-95605000D01*
D52*
X92650000Y-64350000D02*
X92700000Y-64400000D01*
D56*
X122370000Y-92900000D02*
X122325000Y-92855000D01*
D52*
X106920000Y-67720000D02*
X106900000Y-67700000D01*
X115565000Y-81815000D02*
X116250000Y-82500000D01*
D54*
X104677604Y-67522396D02*
X104700000Y-67500000D01*
D52*
X105195000Y-72390000D02*
X103010679Y-72390000D01*
X103010679Y-72390000D02*
X103000000Y-72379321D01*
X108120000Y-81815000D02*
X108120000Y-83840000D01*
D54*
X104677604Y-68407425D02*
X104677604Y-67522396D01*
D52*
X108595472Y-66600000D02*
X107900000Y-66600000D01*
X91530000Y-64350000D02*
X92650000Y-64350000D01*
X107120000Y-68631221D02*
X106920000Y-68431221D01*
D54*
X104677604Y-68407425D02*
X106896204Y-68407425D01*
D52*
X114620000Y-81815000D02*
X115565000Y-81815000D01*
D56*
X123000000Y-88500000D02*
X119600000Y-88500000D01*
D52*
X116250000Y-81950000D02*
X116500000Y-81700000D01*
X112664893Y-66635107D02*
X112700000Y-66600000D01*
X111965741Y-66635107D02*
X112664893Y-66635107D01*
X99280000Y-80780000D02*
X99300000Y-80800000D01*
D56*
X123000000Y-89800000D02*
X119600000Y-89800000D01*
D52*
X106920000Y-68431221D02*
X106920000Y-67720000D01*
D56*
X121400000Y-95600000D02*
X122320000Y-95600000D01*
D54*
X106896204Y-68407425D02*
X106920000Y-68431221D01*
D56*
X123200000Y-95600000D02*
X122330000Y-95600000D01*
D52*
X116545000Y-72390000D02*
X116545000Y-71435000D01*
X99280000Y-80000000D02*
X99280000Y-79220000D01*
X108120000Y-83840000D02*
X108280000Y-84000000D01*
D56*
X130800000Y-90700000D02*
X130800000Y-90050000D01*
X122320000Y-95600000D02*
X122325000Y-95605000D01*
D52*
X116250000Y-82500000D02*
X116250000Y-81950000D01*
D56*
X130000000Y-90000000D02*
X130750000Y-90000000D01*
X122280000Y-92900000D02*
X122325000Y-92855000D01*
D52*
X116545000Y-71435000D02*
X117000000Y-70980000D01*
X99280000Y-79220000D02*
X99300000Y-79200000D01*
D56*
X121400000Y-92900000D02*
X122280000Y-92900000D01*
X130800000Y-90050000D02*
X130750000Y-90000000D01*
X130750000Y-90000000D02*
X130800000Y-89950000D01*
D53*
%TO.N,BUCK_EN*%
X128750000Y-85967500D02*
X129482500Y-86700000D01*
X130800000Y-86700000D02*
X129482500Y-86700000D01*
X132550000Y-86700000D02*
X130800000Y-86700000D01*
%TO.N,BUCK_IN*%
X130800000Y-85050000D02*
X130480000Y-84730000D01*
X127800000Y-85967500D02*
X127800000Y-84600000D01*
X127930000Y-84730000D02*
X127800000Y-84600000D01*
D56*
X127800000Y-83080000D02*
X127825000Y-83105000D01*
X127800000Y-80187500D02*
X127800000Y-83080000D01*
D53*
X130480000Y-84730000D02*
X127930000Y-84730000D01*
X127800000Y-84600000D02*
X127800000Y-83130000D01*
X127800000Y-83130000D02*
X127825000Y-83105000D01*
D54*
%TO.N,Net-(D1-K)*%
X101037500Y-84037500D02*
X101000000Y-84075000D01*
X103500000Y-84037500D02*
X101037500Y-84037500D01*
D52*
%TO.N,I2C1_SDA*%
X109620000Y-66604528D02*
X109615472Y-66600000D01*
X109615472Y-66600000D02*
X109617965Y-66597507D01*
X109620000Y-70465000D02*
X109620000Y-66604528D01*
X109617965Y-66597507D02*
X109617965Y-55949581D01*
%TO.N,I2C_SCL*%
X110990000Y-68718959D02*
X110990000Y-66679366D01*
X110120000Y-70465000D02*
X110120000Y-69588959D01*
X110120000Y-69588959D02*
X110990000Y-68718959D01*
X110990000Y-66679366D02*
X110945741Y-66635107D01*
X110945741Y-66635107D02*
X110867965Y-66557331D01*
X110867965Y-66557331D02*
X110867965Y-55949581D01*
%TO.N,HSE_OUT*%
X103420000Y-74890000D02*
X103010000Y-75300000D01*
X105195000Y-74890000D02*
X103420000Y-74890000D01*
%TO.N,Net-(C12-Pad1)*%
X99680000Y-75770000D02*
X100150000Y-75300000D01*
X99680000Y-77186807D02*
X99680000Y-75770000D01*
X100150000Y-75300000D02*
X101990000Y-75300000D01*
%TO.N,BOOT0*%
X98800000Y-67400000D02*
X94610000Y-67400000D01*
X106600000Y-72100000D02*
X104700000Y-70200000D01*
X101600000Y-70200000D02*
X98800000Y-67400000D01*
X109120000Y-70465000D02*
X109120000Y-71341041D01*
X104700000Y-70200000D02*
X101600000Y-70200000D01*
X109120000Y-71341041D02*
X108361041Y-72100000D01*
X108361041Y-72100000D02*
X106600000Y-72100000D01*
D53*
%TO.N,BUCK_BST*%
X126850000Y-88242500D02*
X125957500Y-88242500D01*
X125957500Y-88242500D02*
X125300000Y-87585000D01*
%TO.N,BUCK_SW*%
X121300000Y-82225000D02*
X121400000Y-82125000D01*
X121300000Y-85075000D02*
X121300000Y-86100000D01*
X121300000Y-85075000D02*
X121300000Y-82225000D01*
X121300000Y-86100000D02*
X121825000Y-86625000D01*
X121825000Y-86625000D02*
X125300000Y-86625000D01*
X126850000Y-85967500D02*
X125957500Y-85967500D01*
X125957500Y-85967500D02*
X125300000Y-86625000D01*
D56*
%TO.N,Net-(D3-K)*%
X132650000Y-75625000D02*
X130600000Y-75625000D01*
X130600000Y-75625000D02*
X130600000Y-77937500D01*
X130600000Y-77937500D02*
X131100000Y-78437500D01*
D52*
%TO.N,HSE_IN*%
X101000000Y-74150000D02*
X98550000Y-74150000D01*
X101240000Y-74390000D02*
X101000000Y-74150000D01*
X98450000Y-73100000D02*
X98450000Y-70830000D01*
X98450000Y-70830000D02*
X98420000Y-70800000D01*
X98450000Y-74050000D02*
X98450000Y-73100000D01*
X105195000Y-74390000D02*
X101240000Y-74390000D01*
X98550000Y-74150000D02*
X98450000Y-74050000D01*
%TO.N,+3.3VA*%
X103180575Y-78390000D02*
X103000000Y-78570575D01*
D54*
X100250000Y-80000000D02*
X100250000Y-79814030D01*
X100250000Y-79814030D02*
X101486020Y-78578010D01*
X102992565Y-78578010D02*
X103000000Y-78570575D01*
D52*
X105195000Y-78390000D02*
X103180575Y-78390000D01*
D54*
X101486020Y-78578010D02*
X102992565Y-78578010D01*
D52*
%TO.N,LED_STATUS*%
X105195000Y-80767500D02*
X103500000Y-82462500D01*
X105195000Y-79890000D02*
X105195000Y-80767500D01*
%TO.N,USART3_TX*%
X113120000Y-81815000D02*
X113120000Y-82691041D01*
X113120000Y-82691041D02*
X109575000Y-86236041D01*
X109575000Y-86236041D02*
X109575000Y-96400000D01*
%TO.N,USART3_RX*%
X113620000Y-81815000D02*
X113620000Y-83580000D01*
X110825000Y-86375000D02*
X110825000Y-96400000D01*
X113620000Y-83580000D02*
X110825000Y-86375000D01*
%TO.N,Net-(U1-VCAP_1)*%
X114120000Y-83895000D02*
X114475000Y-84250000D01*
X114120000Y-81815000D02*
X114120000Y-83895000D01*
%TO.N,SWDIO*%
X115420000Y-73141041D02*
X115420000Y-68780000D01*
X116545000Y-73390000D02*
X115668959Y-73390000D01*
X115668959Y-73390000D02*
X115420000Y-73141041D01*
%TO.N,Net-(U1-VCAP_2)*%
X119203949Y-72890000D02*
X119203952Y-72889997D01*
X116545000Y-72890000D02*
X119203949Y-72890000D01*
%TO.N,SWCLK*%
X114620000Y-70465000D02*
X114620000Y-67780000D01*
%TO.N,SWO*%
X111620000Y-70465000D02*
X111620000Y-69500000D01*
D56*
%TO.N,Net-(F1-Pad2)*%
X127800000Y-78062500D02*
X127800000Y-75625000D01*
%TD*%
M02*
