%TF.GenerationSoftware,KiCad,Pcbnew,7.0.2*%
%TF.CreationDate,2023-06-03T12:41:16+05:30*%
%TF.ProjectId,STM32F4 based PCB,53544d33-3246-4342-9062-617365642050,rev?*%
%TF.SameCoordinates,Original*%
%TF.FileFunction,Copper,L3,Inr*%
%TF.FilePolarity,Positive*%
%FSLAX46Y46*%
G04 Gerber Fmt 4.6, Leading zero omitted, Abs format (unit mm)*
G04 Created by KiCad (PCBNEW 7.0.2) date 2023-06-03 12:41:16*
%MOMM*%
%LPD*%
G01*
G04 APERTURE LIST*
G04 Aperture macros list*
%AMRoundRect*
0 Rectangle with rounded corners*
0 $1 Rounding radius*
0 $2 $3 $4 $5 $6 $7 $8 $9 X,Y pos of 4 corners*
0 Add a 4 corners polygon primitive as box body*
4,1,4,$2,$3,$4,$5,$6,$7,$8,$9,$2,$3,0*
0 Add four circle primitives for the rounded corners*
1,1,$1+$1,$2,$3*
1,1,$1+$1,$4,$5*
1,1,$1+$1,$6,$7*
1,1,$1+$1,$8,$9*
0 Add four rect primitives between the rounded corners*
20,1,$1+$1,$2,$3,$4,$5,0*
20,1,$1+$1,$4,$5,$6,$7,0*
20,1,$1+$1,$6,$7,$8,$9,0*
20,1,$1+$1,$8,$9,$2,$3,0*%
G04 Aperture macros list end*
%TA.AperFunction,ComponentPad*%
%ADD10RoundRect,0.200000X-0.200000X-0.450000X0.200000X-0.450000X0.200000X0.450000X-0.200000X0.450000X0*%
%TD*%
%TA.AperFunction,ComponentPad*%
%ADD11O,0.800000X1.300000*%
%TD*%
%TA.AperFunction,ComponentPad*%
%ADD12C,0.900000*%
%TD*%
%TA.AperFunction,ComponentPad*%
%ADD13C,8.600000*%
%TD*%
%TA.AperFunction,ComponentPad*%
%ADD14O,1.550000X0.890000*%
%TD*%
%TA.AperFunction,ComponentPad*%
%ADD15O,0.950000X1.250000*%
%TD*%
%TA.AperFunction,ComponentPad*%
%ADD16R,2.400000X2.400000*%
%TD*%
%TA.AperFunction,ComponentPad*%
%ADD17C,2.400000*%
%TD*%
%TA.AperFunction,ComponentPad*%
%ADD18RoundRect,0.200000X0.200000X0.450000X-0.200000X0.450000X-0.200000X-0.450000X0.200000X-0.450000X0*%
%TD*%
%TA.AperFunction,ViaPad*%
%ADD19C,0.800000*%
%TD*%
G04 APERTURE END LIST*
D10*
%TO.N,+3.3V*%
%TO.C,J4*%
X108325000Y-96400000D03*
D11*
%TO.N,USART3_TX*%
X109575000Y-96400000D03*
%TO.N,USART3_RX*%
X110825000Y-96400000D03*
%TO.N,GND*%
X112075000Y-96400000D03*
%TD*%
D12*
%TO.N,GND*%
%TO.C,H1*%
X90385838Y-96180419D03*
X91330419Y-93900000D03*
X91330419Y-98460838D03*
X93610838Y-92955419D03*
D13*
X93610838Y-96180419D03*
D12*
X93610838Y-99405419D03*
X95891257Y-93900000D03*
X95891257Y-98460838D03*
X96835838Y-96180419D03*
%TD*%
%TO.N,GND*%
%TO.C,H4*%
X90385838Y-56160838D03*
X91330419Y-53880419D03*
X91330419Y-58441257D03*
X93610838Y-52935838D03*
D13*
X93610838Y-56160838D03*
D12*
X93610838Y-59385838D03*
X95891257Y-53880419D03*
X95891257Y-58441257D03*
X96835838Y-56160838D03*
%TD*%
%TO.N,GND*%
%TO.C,H3*%
X135455419Y-96180419D03*
X136400000Y-93900000D03*
X136400000Y-98460838D03*
X138680419Y-92955419D03*
D13*
X138680419Y-96180419D03*
D12*
X138680419Y-99405419D03*
X140960838Y-93900000D03*
X140960838Y-98460838D03*
X141905419Y-96180419D03*
%TD*%
D14*
%TO.N,unconnected-(J5-Shield-Pad6)*%
%TO.C,J5*%
X142800000Y-72438935D03*
D15*
X140100000Y-71438935D03*
X140100000Y-66438935D03*
D14*
X142800000Y-65438935D03*
%TD*%
D16*
%TO.N,+12V*%
%TO.C,J1*%
X138700000Y-84550000D03*
D17*
%TO.N,GND*%
X138700000Y-81050000D03*
%TD*%
D12*
%TO.N,GND*%
%TO.C,H2*%
X135455419Y-56180419D03*
X136400000Y-53900000D03*
X136400000Y-58460838D03*
X138680419Y-52955419D03*
D13*
X138680419Y-56180419D03*
D12*
X138680419Y-59405419D03*
X140960838Y-53900000D03*
X140960838Y-58460838D03*
X141905419Y-56180419D03*
%TD*%
D18*
%TO.N,+3.3V*%
%TO.C,J3*%
X112117965Y-55949581D03*
D11*
%TO.N,I2C_SCL*%
X110867965Y-55949581D03*
%TO.N,I2C1_SDA*%
X109617965Y-55949581D03*
%TO.N,GND*%
X108367965Y-55949581D03*
%TD*%
D19*
%TO.N,NRST*%
X113700000Y-72500000D03*
X113700000Y-65000000D03*
%TO.N,GND*%
X122900000Y-52400000D03*
X103000000Y-76800000D03*
X101500000Y-76800000D03*
X97100000Y-77200000D03*
X97200000Y-75400000D03*
X101200000Y-73000000D03*
X135400000Y-67300000D03*
X131800000Y-83700000D03*
X129800000Y-83600000D03*
X129800000Y-82600000D03*
X127800000Y-87229500D03*
X127800000Y-90200000D03*
X138958497Y-66641503D03*
X138058497Y-66641503D03*
X138041503Y-67581142D03*
X119200000Y-70600000D03*
X100100000Y-82400000D03*
X106700000Y-84000000D03*
X117900000Y-82500000D03*
X128912500Y-57768750D03*
X102300000Y-71400000D03*
X138963782Y-67581142D03*
X132500000Y-84300000D03*
X133400000Y-85100000D03*
X124700000Y-81100000D03*
X132400000Y-78500000D03*
X126100000Y-93300000D03*
X126100000Y-95000000D03*
X121600000Y-52400000D03*
X92700000Y-68900000D03*
%TO.N,+3.3V*%
X124200000Y-52400000D03*
%TO.N,GND*%
X131800000Y-82500000D03*
X103100000Y-67600000D03*
X107900000Y-67700000D03*
X135100000Y-88300000D03*
X126100000Y-92300000D03*
X116800000Y-84200000D03*
X133600000Y-78500000D03*
X124700000Y-83100000D03*
X134300000Y-87500000D03*
X127800000Y-89300000D03*
X126100000Y-96100000D03*
X117000000Y-69400000D03*
%TO.N,+3.3V*%
X107900000Y-66600000D03*
X109000000Y-84000000D03*
X102300000Y-72400000D03*
X99300000Y-79200000D03*
X121400000Y-95600000D03*
X123200000Y-92900000D03*
X99300000Y-80800000D03*
X92700000Y-64400000D03*
X106900000Y-67700000D03*
X116500000Y-81700000D03*
X112700000Y-66600000D03*
X128912500Y-53968750D03*
X123000000Y-89800000D03*
X130800000Y-90700000D03*
%TO.N,GND*%
X119100000Y-52300000D03*
%TO.N,+3.3V*%
X119600000Y-89800000D03*
X117700000Y-71000000D03*
X123000000Y-88500000D03*
X104700000Y-67500000D03*
X123200000Y-95600000D03*
X119600000Y-88500000D03*
X130000000Y-90000000D03*
X121400000Y-92900000D03*
%TD*%
%TA.AperFunction,Conductor*%
%TO.N,+3.3V*%
G36*
X138702442Y-50600595D02*
G01*
X138941403Y-50609984D01*
X139139935Y-50618196D01*
X139149361Y-50618948D01*
X139380116Y-50646260D01*
X139406583Y-50649559D01*
X139588136Y-50672189D01*
X139596923Y-50673609D01*
X139823141Y-50718607D01*
X140030472Y-50762081D01*
X140038608Y-50764079D01*
X140259963Y-50826507D01*
X140464109Y-50887284D01*
X140471572Y-50889770D01*
X140560724Y-50922660D01*
X140687115Y-50969289D01*
X140748392Y-50993198D01*
X140886219Y-51046979D01*
X140892975Y-51049851D01*
X141100330Y-51145443D01*
X141102807Y-51146619D01*
X141294072Y-51240123D01*
X141300156Y-51243310D01*
X141499139Y-51354746D01*
X141502012Y-51356406D01*
X141685041Y-51465468D01*
X141690412Y-51468859D01*
X141879956Y-51595508D01*
X141883066Y-51597658D01*
X142056574Y-51721540D01*
X142061211Y-51725019D01*
X142240216Y-51866136D01*
X142243539Y-51868852D01*
X142313463Y-51928075D01*
X142406203Y-52006622D01*
X142410233Y-52010188D01*
X142577548Y-52164852D01*
X142581058Y-52168227D01*
X142731771Y-52318940D01*
X142735146Y-52322450D01*
X142889810Y-52489765D01*
X142893376Y-52493795D01*
X143031126Y-52656435D01*
X143033873Y-52659796D01*
X143174969Y-52838775D01*
X143178469Y-52843439D01*
X143241855Y-52932216D01*
X143302323Y-53016907D01*
X143304508Y-53020069D01*
X143414145Y-53184153D01*
X143431124Y-53209563D01*
X143434545Y-53214981D01*
X143543585Y-53397975D01*
X143545252Y-53400859D01*
X143656680Y-53599828D01*
X143659891Y-53605957D01*
X143753354Y-53797139D01*
X143754563Y-53799685D01*
X143850133Y-54006992D01*
X143853040Y-54013831D01*
X143930711Y-54212884D01*
X144010233Y-54428436D01*
X144012726Y-54435927D01*
X144030195Y-54494605D01*
X144073501Y-54640069D01*
X144135909Y-54861353D01*
X144137924Y-54869558D01*
X144181407Y-55076936D01*
X144226383Y-55303044D01*
X144227813Y-55311893D01*
X144253740Y-55519883D01*
X144281051Y-55750638D01*
X144281804Y-55760087D01*
X144290016Y-55958627D01*
X144299404Y-56197556D01*
X144299500Y-56202424D01*
X144299500Y-65200826D01*
X144279815Y-65267865D01*
X144227011Y-65313620D01*
X144157853Y-65323564D01*
X144094297Y-65294539D01*
X144056523Y-65235761D01*
X144052930Y-65219603D01*
X144050037Y-65200720D01*
X143983253Y-65020397D01*
X143983252Y-65020395D01*
X143881534Y-64857204D01*
X143749049Y-64717829D01*
X143591219Y-64607977D01*
X143414508Y-64532144D01*
X143226148Y-64493435D01*
X142422050Y-64493435D01*
X142418939Y-64493751D01*
X142418926Y-64493752D01*
X142278690Y-64508013D01*
X142095213Y-64565580D01*
X141927080Y-64658900D01*
X141781173Y-64784157D01*
X141663469Y-64936217D01*
X141578783Y-65108863D01*
X141578783Y-65108864D01*
X141537615Y-65267865D01*
X141530583Y-65295023D01*
X141520844Y-65487072D01*
X141549962Y-65677149D01*
X141616746Y-65857472D01*
X141616748Y-65857475D01*
X141718466Y-66020666D01*
X141850951Y-66160041D01*
X142008781Y-66269893D01*
X142185492Y-66345726D01*
X142373852Y-66384435D01*
X142373853Y-66384435D01*
X143174808Y-66384435D01*
X143177950Y-66384435D01*
X143321309Y-66369857D01*
X143504786Y-66312290D01*
X143672920Y-66218969D01*
X143818826Y-66093713D01*
X143915660Y-65968613D01*
X143936530Y-65941652D01*
X143976021Y-65861144D01*
X144021217Y-65769006D01*
X144055459Y-65636756D01*
X144091318Y-65576793D01*
X144153905Y-65545734D01*
X144223348Y-65553443D01*
X144277600Y-65597471D01*
X144299436Y-65663841D01*
X144299500Y-65667839D01*
X144299500Y-72200826D01*
X144279815Y-72267865D01*
X144227011Y-72313620D01*
X144157853Y-72323564D01*
X144094297Y-72294539D01*
X144056523Y-72235761D01*
X144052930Y-72219603D01*
X144050037Y-72200720D01*
X143983253Y-72020397D01*
X143950459Y-71967784D01*
X143881534Y-71857204D01*
X143749049Y-71717829D01*
X143591219Y-71607977D01*
X143414508Y-71532144D01*
X143226148Y-71493435D01*
X142422050Y-71493435D01*
X142418939Y-71493751D01*
X142418926Y-71493752D01*
X142278690Y-71508013D01*
X142095213Y-71565580D01*
X141927080Y-71658900D01*
X141781173Y-71784157D01*
X141663469Y-71936217D01*
X141578783Y-72108863D01*
X141559290Y-72184151D01*
X141537615Y-72267865D01*
X141530583Y-72295023D01*
X141520844Y-72487072D01*
X141549962Y-72677149D01*
X141616746Y-72857472D01*
X141616748Y-72857475D01*
X141718466Y-73020666D01*
X141850951Y-73160041D01*
X142008781Y-73269893D01*
X142185492Y-73345726D01*
X142373852Y-73384435D01*
X142373853Y-73384435D01*
X143174808Y-73384435D01*
X143177950Y-73384435D01*
X143321309Y-73369857D01*
X143504786Y-73312290D01*
X143672920Y-73218969D01*
X143818826Y-73093713D01*
X143891366Y-72999999D01*
X143936530Y-72941652D01*
X143936531Y-72941650D01*
X144021217Y-72769006D01*
X144055459Y-72636756D01*
X144091318Y-72576793D01*
X144153905Y-72545734D01*
X144223348Y-72553443D01*
X144277600Y-72597471D01*
X144299436Y-72663841D01*
X144299500Y-72667839D01*
X144299500Y-96197575D01*
X144299404Y-96202443D01*
X144290016Y-96441372D01*
X144281804Y-96639911D01*
X144281051Y-96649360D01*
X144253740Y-96880115D01*
X144227814Y-97088103D01*
X144226383Y-97096954D01*
X144181407Y-97323063D01*
X144137925Y-97530439D01*
X144135909Y-97538646D01*
X144073501Y-97759929D01*
X144012731Y-97964057D01*
X144010224Y-97971587D01*
X143930711Y-98187115D01*
X143853039Y-98386172D01*
X143850136Y-98393000D01*
X143754563Y-98600313D01*
X143753354Y-98602859D01*
X143659891Y-98794041D01*
X143656680Y-98800170D01*
X143545252Y-98999139D01*
X143543585Y-99002023D01*
X143434545Y-99185017D01*
X143431124Y-99190435D01*
X143304508Y-99379929D01*
X143302323Y-99383091D01*
X143178488Y-99556534D01*
X143174950Y-99561249D01*
X143033883Y-99740190D01*
X143031126Y-99743563D01*
X142893376Y-99906203D01*
X142889810Y-99910233D01*
X142735146Y-100077548D01*
X142731771Y-100081058D01*
X142581058Y-100231771D01*
X142577548Y-100235146D01*
X142410233Y-100389810D01*
X142406203Y-100393376D01*
X142243563Y-100531126D01*
X142240190Y-100533883D01*
X142061249Y-100674950D01*
X142056534Y-100678488D01*
X141883091Y-100802323D01*
X141879929Y-100804508D01*
X141690435Y-100931124D01*
X141685017Y-100934545D01*
X141502023Y-101043585D01*
X141499139Y-101045252D01*
X141300170Y-101156680D01*
X141294041Y-101159891D01*
X141102859Y-101253354D01*
X141100313Y-101254563D01*
X140893006Y-101350133D01*
X140886167Y-101353040D01*
X140687115Y-101430711D01*
X140506584Y-101497313D01*
X140471589Y-101510224D01*
X140471586Y-101510225D01*
X140464059Y-101512730D01*
X140259930Y-101573501D01*
X140038644Y-101635909D01*
X140030440Y-101637924D01*
X139823063Y-101681407D01*
X139596954Y-101726383D01*
X139588105Y-101727813D01*
X139380116Y-101753740D01*
X139149360Y-101781051D01*
X139139912Y-101781804D01*
X138941373Y-101790016D01*
X138702443Y-101799404D01*
X138697575Y-101799500D01*
X93602425Y-101799500D01*
X93597557Y-101799404D01*
X93358627Y-101790016D01*
X93160087Y-101781804D01*
X93150638Y-101781051D01*
X92919884Y-101753740D01*
X92711896Y-101727814D01*
X92703044Y-101726383D01*
X92476936Y-101681407D01*
X92269559Y-101637925D01*
X92261351Y-101635909D01*
X92040069Y-101573501D01*
X91955669Y-101548374D01*
X91835927Y-101512726D01*
X91828414Y-101510225D01*
X91687924Y-101458395D01*
X91612884Y-101430711D01*
X91524396Y-101396183D01*
X91413813Y-101353033D01*
X91406998Y-101350136D01*
X91199685Y-101254563D01*
X91197139Y-101253354D01*
X91005957Y-101159891D01*
X90999828Y-101156680D01*
X90800859Y-101045252D01*
X90797975Y-101043585D01*
X90614981Y-100934545D01*
X90609563Y-100931124D01*
X90420069Y-100804508D01*
X90416907Y-100802323D01*
X90345457Y-100751309D01*
X90243439Y-100678469D01*
X90238775Y-100674969D01*
X90059796Y-100533873D01*
X90056435Y-100531126D01*
X89893795Y-100393376D01*
X89889765Y-100389810D01*
X89722450Y-100235146D01*
X89718940Y-100231771D01*
X89568227Y-100081058D01*
X89564852Y-100077548D01*
X89410188Y-99910233D01*
X89406622Y-99906203D01*
X89359515Y-99850585D01*
X89268852Y-99743539D01*
X89266136Y-99740216D01*
X89125019Y-99561211D01*
X89121540Y-99556574D01*
X88997658Y-99383066D01*
X88995508Y-99379956D01*
X88868859Y-99190412D01*
X88865468Y-99185041D01*
X88756406Y-99002012D01*
X88754746Y-98999139D01*
X88643318Y-98800170D01*
X88640123Y-98794072D01*
X88546619Y-98602807D01*
X88545435Y-98600313D01*
X88520633Y-98546513D01*
X88449857Y-98392988D01*
X88446966Y-98386186D01*
X88369283Y-98187102D01*
X88289753Y-97971526D01*
X88287285Y-97964110D01*
X88226498Y-97759929D01*
X88164083Y-97538621D01*
X88162074Y-97530439D01*
X88158028Y-97511144D01*
X88118592Y-97323062D01*
X88110996Y-97284875D01*
X88073610Y-97096927D01*
X88072187Y-97088118D01*
X88046259Y-96880111D01*
X88018944Y-96649334D01*
X88018196Y-96639937D01*
X88009977Y-96441221D01*
X88003967Y-96288257D01*
X88000596Y-96202443D01*
X88000500Y-96197575D01*
X88000500Y-96180419D01*
X88805499Y-96180419D01*
X88824844Y-96611166D01*
X88825214Y-96613904D01*
X88825216Y-96613916D01*
X88865241Y-96909389D01*
X88882723Y-97038445D01*
X88883342Y-97041159D01*
X88883343Y-97041162D01*
X88973040Y-97434152D01*
X88978670Y-97458816D01*
X88979527Y-97461454D01*
X88979528Y-97461457D01*
X89008297Y-97549998D01*
X89111912Y-97868894D01*
X89113009Y-97871462D01*
X89113013Y-97871471D01*
X89155805Y-97971587D01*
X89281377Y-98265377D01*
X89282691Y-98267820D01*
X89282696Y-98267829D01*
X89346387Y-98386186D01*
X89485701Y-98645074D01*
X89487234Y-98647397D01*
X89487235Y-98647398D01*
X89721320Y-99002023D01*
X89723237Y-99004926D01*
X89992074Y-99342038D01*
X90290048Y-99653693D01*
X90292135Y-99655516D01*
X90292142Y-99655523D01*
X90392885Y-99743539D01*
X90614758Y-99937384D01*
X90963591Y-100190826D01*
X91333738Y-100411979D01*
X91722219Y-100599062D01*
X92125907Y-100750568D01*
X92541549Y-100865278D01*
X92965802Y-100942269D01*
X93395247Y-100980919D01*
X93398024Y-100980919D01*
X93823652Y-100980919D01*
X93826429Y-100980919D01*
X94255874Y-100942269D01*
X94680127Y-100865278D01*
X95095769Y-100750568D01*
X95499457Y-100599062D01*
X95887938Y-100411979D01*
X96258085Y-100190826D01*
X96606918Y-99937384D01*
X96931628Y-99653693D01*
X97229602Y-99342038D01*
X97498439Y-99004926D01*
X97735975Y-98645074D01*
X97940299Y-98265377D01*
X98109764Y-97868894D01*
X98243006Y-97458816D01*
X98338953Y-97038445D01*
X98391572Y-96650000D01*
X107425001Y-96650000D01*
X107425001Y-96903753D01*
X107425256Y-96909389D01*
X107431408Y-96977104D01*
X107481981Y-97139397D01*
X107569925Y-97284875D01*
X107690124Y-97405074D01*
X107835603Y-97493019D01*
X107997893Y-97543590D01*
X108065620Y-97549745D01*
X108071238Y-97549999D01*
X108074998Y-97549998D01*
X108074999Y-97549998D01*
X108075000Y-96650000D01*
X107425001Y-96650000D01*
X98391572Y-96650000D01*
X98396832Y-96611166D01*
X98406316Y-96400000D01*
X108070102Y-96400000D01*
X108089505Y-96497545D01*
X108144760Y-96580240D01*
X108227455Y-96635495D01*
X108300376Y-96650000D01*
X108349624Y-96650000D01*
X108422545Y-96635495D01*
X108505240Y-96580240D01*
X108560495Y-96497545D01*
X108575000Y-96424623D01*
X108575000Y-97549999D01*
X108578753Y-97549999D01*
X108584389Y-97549743D01*
X108652104Y-97543591D01*
X108814397Y-97493018D01*
X108956228Y-97407278D01*
X109023782Y-97389442D01*
X109090256Y-97410959D01*
X109093264Y-97413077D01*
X109122270Y-97434151D01*
X109122271Y-97434151D01*
X109122272Y-97434152D01*
X109295197Y-97511144D01*
X109480352Y-97550500D01*
X109480354Y-97550500D01*
X109669648Y-97550500D01*
X109793083Y-97524262D01*
X109854803Y-97511144D01*
X110027730Y-97434151D01*
X110127115Y-97361943D01*
X110192921Y-97338464D01*
X110260974Y-97354289D01*
X110272878Y-97361939D01*
X110372270Y-97434151D01*
X110372271Y-97434151D01*
X110372272Y-97434152D01*
X110545197Y-97511144D01*
X110730352Y-97550500D01*
X110730354Y-97550500D01*
X110919648Y-97550500D01*
X111043083Y-97524262D01*
X111104803Y-97511144D01*
X111277730Y-97434151D01*
X111377115Y-97361943D01*
X111442921Y-97338464D01*
X111510974Y-97354289D01*
X111522878Y-97361939D01*
X111622270Y-97434151D01*
X111622271Y-97434151D01*
X111622272Y-97434152D01*
X111795197Y-97511144D01*
X111980352Y-97550500D01*
X111980354Y-97550500D01*
X112169648Y-97550500D01*
X112293084Y-97524262D01*
X112354803Y-97511144D01*
X112527730Y-97434151D01*
X112637651Y-97354289D01*
X112680870Y-97322889D01*
X112807533Y-97182216D01*
X112902179Y-97018284D01*
X112937561Y-96909389D01*
X112960674Y-96838256D01*
X112975500Y-96697192D01*
X112975500Y-96102808D01*
X112975205Y-96100000D01*
X125194540Y-96100000D01*
X125214326Y-96288257D01*
X125272820Y-96468284D01*
X125367466Y-96632216D01*
X125494129Y-96772889D01*
X125647269Y-96884151D01*
X125820197Y-96961144D01*
X126005352Y-97000500D01*
X126005354Y-97000500D01*
X126194648Y-97000500D01*
X126318083Y-96974262D01*
X126379803Y-96961144D01*
X126552730Y-96884151D01*
X126705871Y-96772888D01*
X126832533Y-96632216D01*
X126927179Y-96468284D01*
X126985674Y-96288256D01*
X126997008Y-96180419D01*
X133875080Y-96180419D01*
X133894425Y-96611166D01*
X133894795Y-96613904D01*
X133894797Y-96613916D01*
X133934822Y-96909389D01*
X133952304Y-97038445D01*
X133952923Y-97041159D01*
X133952924Y-97041162D01*
X134042621Y-97434152D01*
X134048251Y-97458816D01*
X134049108Y-97461454D01*
X134049109Y-97461457D01*
X134077878Y-97549998D01*
X134181493Y-97868894D01*
X134182590Y-97871462D01*
X134182594Y-97871471D01*
X134225386Y-97971587D01*
X134350958Y-98265377D01*
X134352272Y-98267820D01*
X134352277Y-98267829D01*
X134415968Y-98386186D01*
X134555282Y-98645074D01*
X134556815Y-98647397D01*
X134556816Y-98647398D01*
X134790901Y-99002023D01*
X134792818Y-99004926D01*
X135061655Y-99342038D01*
X135359629Y-99653693D01*
X135361716Y-99655516D01*
X135361723Y-99655523D01*
X135462466Y-99743539D01*
X135684339Y-99937384D01*
X136033172Y-100190826D01*
X136403319Y-100411979D01*
X136791800Y-100599062D01*
X137195488Y-100750568D01*
X137611130Y-100865278D01*
X138035383Y-100942269D01*
X138464828Y-100980919D01*
X138467605Y-100980919D01*
X138893233Y-100980919D01*
X138896010Y-100980919D01*
X139325455Y-100942269D01*
X139749708Y-100865278D01*
X140165350Y-100750568D01*
X140569038Y-100599062D01*
X140957519Y-100411979D01*
X141327666Y-100190826D01*
X141676499Y-99937384D01*
X142001209Y-99653693D01*
X142299183Y-99342038D01*
X142568020Y-99004926D01*
X142805556Y-98645074D01*
X143009880Y-98265377D01*
X143179345Y-97868894D01*
X143312587Y-97458816D01*
X143408534Y-97038445D01*
X143466413Y-96611166D01*
X143485758Y-96180419D01*
X143466413Y-95749672D01*
X143408534Y-95322393D01*
X143312587Y-94902022D01*
X143179345Y-94491944D01*
X143009880Y-94095461D01*
X142805556Y-93715764D01*
X142568020Y-93355912D01*
X142299183Y-93018800D01*
X142001209Y-92707145D01*
X141999121Y-92705321D01*
X141999114Y-92705314D01*
X141678591Y-92425282D01*
X141676499Y-92423454D01*
X141327666Y-92170012D01*
X141148515Y-92062974D01*
X140959893Y-91950277D01*
X140959886Y-91950273D01*
X140957519Y-91948859D01*
X140955030Y-91947660D01*
X140955022Y-91947656D01*
X140708832Y-91829097D01*
X140569038Y-91761776D01*
X140566434Y-91760798D01*
X140566423Y-91760794D01*
X140167960Y-91611249D01*
X140167949Y-91611245D01*
X140165350Y-91610270D01*
X140162665Y-91609529D01*
X140162662Y-91609528D01*
X139752397Y-91496302D01*
X139752394Y-91496301D01*
X139749708Y-91495560D01*
X139746976Y-91495064D01*
X139746962Y-91495061D01*
X139328195Y-91419066D01*
X139328189Y-91419065D01*
X139325455Y-91418569D01*
X139322703Y-91418321D01*
X139322686Y-91418319D01*
X138898773Y-91380167D01*
X138898758Y-91380166D01*
X138896010Y-91379919D01*
X138464828Y-91379919D01*
X138462080Y-91380166D01*
X138462064Y-91380167D01*
X138038151Y-91418319D01*
X138038131Y-91418321D01*
X138035383Y-91418569D01*
X138032651Y-91419064D01*
X138032642Y-91419066D01*
X137613875Y-91495061D01*
X137613856Y-91495065D01*
X137611130Y-91495560D01*
X137608448Y-91496300D01*
X137608440Y-91496302D01*
X137198175Y-91609528D01*
X137198166Y-91609530D01*
X137195488Y-91610270D01*
X137192895Y-91611243D01*
X137192877Y-91611249D01*
X136794414Y-91760794D01*
X136794395Y-91760801D01*
X136791800Y-91761776D01*
X136789290Y-91762984D01*
X136789287Y-91762986D01*
X136405815Y-91947656D01*
X136405797Y-91947665D01*
X136403319Y-91948859D01*
X136400960Y-91950267D01*
X136400944Y-91950277D01*
X136035555Y-92168588D01*
X136033172Y-92170012D01*
X136030927Y-92171642D01*
X136030918Y-92171649D01*
X135686588Y-92421819D01*
X135686573Y-92421830D01*
X135684339Y-92423454D01*
X135682253Y-92425275D01*
X135682246Y-92425282D01*
X135361723Y-92705314D01*
X135361704Y-92705331D01*
X135359629Y-92707145D01*
X135357709Y-92709152D01*
X135357706Y-92709156D01*
X135063574Y-93016792D01*
X135063564Y-93016802D01*
X135061655Y-93018800D01*
X135059936Y-93020955D01*
X135059926Y-93020967D01*
X134794555Y-93353733D01*
X134794547Y-93353742D01*
X134792818Y-93355912D01*
X134791291Y-93358224D01*
X134791281Y-93358239D01*
X134556816Y-93713439D01*
X134556809Y-93713450D01*
X134555282Y-93715764D01*
X134553970Y-93718200D01*
X134553964Y-93718212D01*
X134352277Y-94093008D01*
X134352268Y-94093025D01*
X134350958Y-94095461D01*
X134349863Y-94098021D01*
X134349860Y-94098029D01*
X134182594Y-94489366D01*
X134182587Y-94489383D01*
X134181493Y-94491944D01*
X134180630Y-94494597D01*
X134180628Y-94494605D01*
X134077585Y-94811742D01*
X134048251Y-94902022D01*
X134047635Y-94904720D01*
X134047633Y-94904728D01*
X133952924Y-95319675D01*
X133952304Y-95322393D01*
X133951931Y-95325146D01*
X133951930Y-95325152D01*
X133894797Y-95746921D01*
X133894795Y-95746935D01*
X133894425Y-95749672D01*
X133894300Y-95752442D01*
X133894300Y-95752449D01*
X133878420Y-96106049D01*
X133875080Y-96180419D01*
X126997008Y-96180419D01*
X127005460Y-96100000D01*
X126985674Y-95911744D01*
X126933916Y-95752449D01*
X126927179Y-95731715D01*
X126858061Y-95612000D01*
X126841588Y-95544100D01*
X126858061Y-95488000D01*
X126927179Y-95368284D01*
X126927971Y-95365847D01*
X126985674Y-95188256D01*
X127005460Y-95000000D01*
X126985674Y-94811744D01*
X126927179Y-94631716D01*
X126927179Y-94631715D01*
X126832533Y-94467783D01*
X126705870Y-94327111D01*
X126600173Y-94250318D01*
X126557507Y-94194989D01*
X126551528Y-94125375D01*
X126584133Y-94063580D01*
X126600173Y-94049682D01*
X126624565Y-94031959D01*
X126705871Y-93972888D01*
X126832533Y-93832216D01*
X126927179Y-93668284D01*
X126985674Y-93488256D01*
X127005460Y-93300000D01*
X126985674Y-93111744D01*
X126927179Y-92931716D01*
X126886927Y-92861999D01*
X126870455Y-92794100D01*
X126886928Y-92738000D01*
X126904742Y-92707145D01*
X126927179Y-92668284D01*
X126985674Y-92488256D01*
X127005460Y-92300000D01*
X126985674Y-92111744D01*
X126932749Y-91948859D01*
X126927179Y-91931715D01*
X126832533Y-91767783D01*
X126705870Y-91627110D01*
X126552730Y-91515848D01*
X126379802Y-91438855D01*
X126194648Y-91399500D01*
X126194646Y-91399500D01*
X126005354Y-91399500D01*
X126005352Y-91399500D01*
X125820197Y-91438855D01*
X125647269Y-91515848D01*
X125494129Y-91627110D01*
X125367466Y-91767783D01*
X125272820Y-91931715D01*
X125214326Y-92111742D01*
X125194540Y-92299999D01*
X125214326Y-92488257D01*
X125272820Y-92668284D01*
X125313071Y-92737999D01*
X125329544Y-92805899D01*
X125313072Y-92861998D01*
X125272820Y-92931716D01*
X125214326Y-93111742D01*
X125194540Y-93300000D01*
X125214326Y-93488257D01*
X125272820Y-93668284D01*
X125367466Y-93832216D01*
X125494129Y-93972889D01*
X125599826Y-94049682D01*
X125642492Y-94105012D01*
X125648471Y-94174625D01*
X125615865Y-94236420D01*
X125599826Y-94250318D01*
X125494129Y-94327110D01*
X125367466Y-94467783D01*
X125272820Y-94631715D01*
X125214326Y-94811742D01*
X125194540Y-95000000D01*
X125214326Y-95188257D01*
X125272820Y-95368284D01*
X125341939Y-95488000D01*
X125358412Y-95555900D01*
X125341939Y-95612000D01*
X125272820Y-95731715D01*
X125214326Y-95911742D01*
X125194540Y-96100000D01*
X112975205Y-96100000D01*
X112960674Y-95961744D01*
X112902179Y-95781716D01*
X112902179Y-95781715D01*
X112807533Y-95617783D01*
X112680870Y-95477110D01*
X112527730Y-95365848D01*
X112354802Y-95288855D01*
X112169648Y-95249500D01*
X112169646Y-95249500D01*
X111980354Y-95249500D01*
X111980352Y-95249500D01*
X111795197Y-95288855D01*
X111622269Y-95365848D01*
X111522885Y-95438055D01*
X111457079Y-95461535D01*
X111389025Y-95445709D01*
X111377115Y-95438055D01*
X111277730Y-95365848D01*
X111104802Y-95288855D01*
X110919648Y-95249500D01*
X110919646Y-95249500D01*
X110730354Y-95249500D01*
X110730352Y-95249500D01*
X110545197Y-95288855D01*
X110372269Y-95365848D01*
X110272885Y-95438055D01*
X110207079Y-95461535D01*
X110139025Y-95445709D01*
X110127115Y-95438055D01*
X110027730Y-95365848D01*
X109854802Y-95288855D01*
X109669648Y-95249500D01*
X109669646Y-95249500D01*
X109480354Y-95249500D01*
X109480352Y-95249500D01*
X109295197Y-95288855D01*
X109122271Y-95365847D01*
X109093261Y-95386924D01*
X109027454Y-95410402D01*
X108959400Y-95394575D01*
X108956228Y-95392721D01*
X108814396Y-95306980D01*
X108652106Y-95256409D01*
X108584384Y-95250255D01*
X108578756Y-95250000D01*
X108575000Y-95250000D01*
X108575000Y-96375376D01*
X108560495Y-96302455D01*
X108505240Y-96219760D01*
X108422545Y-96164505D01*
X108349624Y-96150000D01*
X108300376Y-96150000D01*
X108227455Y-96164505D01*
X108144760Y-96219760D01*
X108089505Y-96302455D01*
X108070102Y-96400000D01*
X98406316Y-96400000D01*
X98416177Y-96180419D01*
X98414811Y-96150000D01*
X107425000Y-96150000D01*
X108074999Y-96150000D01*
X108074999Y-95250000D01*
X108074998Y-95249999D01*
X108071228Y-95250000D01*
X108065628Y-95250255D01*
X107997895Y-95256408D01*
X107835602Y-95306981D01*
X107690124Y-95394925D01*
X107569925Y-95515124D01*
X107481980Y-95660603D01*
X107431409Y-95822893D01*
X107425255Y-95890615D01*
X107425000Y-95896244D01*
X107425000Y-96150000D01*
X98414811Y-96150000D01*
X98396832Y-95749672D01*
X98338953Y-95322393D01*
X98243006Y-94902022D01*
X98109764Y-94491944D01*
X97940299Y-94095461D01*
X97735975Y-93715764D01*
X97498439Y-93355912D01*
X97229602Y-93018800D01*
X96931628Y-92707145D01*
X96929540Y-92705321D01*
X96929533Y-92705314D01*
X96609010Y-92425282D01*
X96606918Y-92423454D01*
X96258085Y-92170012D01*
X96078934Y-92062974D01*
X95890312Y-91950277D01*
X95890305Y-91950273D01*
X95887938Y-91948859D01*
X95885449Y-91947660D01*
X95885441Y-91947656D01*
X95639251Y-91829097D01*
X95499457Y-91761776D01*
X95496853Y-91760798D01*
X95496842Y-91760794D01*
X95098379Y-91611249D01*
X95098368Y-91611245D01*
X95095769Y-91610270D01*
X95093084Y-91609529D01*
X95093081Y-91609528D01*
X94682816Y-91496302D01*
X94682813Y-91496301D01*
X94680127Y-91495560D01*
X94677395Y-91495064D01*
X94677381Y-91495061D01*
X94258614Y-91419066D01*
X94258608Y-91419065D01*
X94255874Y-91418569D01*
X94253122Y-91418321D01*
X94253105Y-91418319D01*
X93829192Y-91380167D01*
X93829177Y-91380166D01*
X93826429Y-91379919D01*
X93395247Y-91379919D01*
X93392499Y-91380166D01*
X93392483Y-91380167D01*
X92968570Y-91418319D01*
X92968550Y-91418321D01*
X92965802Y-91418569D01*
X92963070Y-91419064D01*
X92963061Y-91419066D01*
X92544294Y-91495061D01*
X92544275Y-91495065D01*
X92541549Y-91495560D01*
X92538867Y-91496300D01*
X92538859Y-91496302D01*
X92128594Y-91609528D01*
X92128585Y-91609530D01*
X92125907Y-91610270D01*
X92123314Y-91611243D01*
X92123296Y-91611249D01*
X91724833Y-91760794D01*
X91724814Y-91760801D01*
X91722219Y-91761776D01*
X91719709Y-91762984D01*
X91719706Y-91762986D01*
X91336234Y-91947656D01*
X91336216Y-91947665D01*
X91333738Y-91948859D01*
X91331379Y-91950267D01*
X91331363Y-91950277D01*
X90965974Y-92168588D01*
X90963591Y-92170012D01*
X90961346Y-92171642D01*
X90961337Y-92171649D01*
X90617007Y-92421819D01*
X90616992Y-92421830D01*
X90614758Y-92423454D01*
X90612672Y-92425275D01*
X90612665Y-92425282D01*
X90292142Y-92705314D01*
X90292123Y-92705331D01*
X90290048Y-92707145D01*
X90288128Y-92709152D01*
X90288125Y-92709156D01*
X89993993Y-93016792D01*
X89993983Y-93016802D01*
X89992074Y-93018800D01*
X89990355Y-93020955D01*
X89990345Y-93020967D01*
X89724974Y-93353733D01*
X89724966Y-93353742D01*
X89723237Y-93355912D01*
X89721710Y-93358224D01*
X89721700Y-93358239D01*
X89487235Y-93713439D01*
X89487228Y-93713450D01*
X89485701Y-93715764D01*
X89484389Y-93718200D01*
X89484383Y-93718212D01*
X89282696Y-94093008D01*
X89282687Y-94093025D01*
X89281377Y-94095461D01*
X89280282Y-94098021D01*
X89280279Y-94098029D01*
X89113013Y-94489366D01*
X89113006Y-94489383D01*
X89111912Y-94491944D01*
X89111049Y-94494597D01*
X89111047Y-94494605D01*
X89008004Y-94811742D01*
X88978670Y-94902022D01*
X88978054Y-94904720D01*
X88978052Y-94904728D01*
X88883343Y-95319675D01*
X88882723Y-95322393D01*
X88882350Y-95325146D01*
X88882349Y-95325152D01*
X88825216Y-95746921D01*
X88825214Y-95746935D01*
X88824844Y-95749672D01*
X88824719Y-95752442D01*
X88824719Y-95752449D01*
X88808839Y-96106049D01*
X88805499Y-96180419D01*
X88000500Y-96180419D01*
X88000500Y-90199999D01*
X126894540Y-90199999D01*
X126914326Y-90388257D01*
X126972820Y-90568284D01*
X127067466Y-90732216D01*
X127194129Y-90872889D01*
X127347269Y-90984151D01*
X127520197Y-91061144D01*
X127705352Y-91100500D01*
X127705354Y-91100500D01*
X127894648Y-91100500D01*
X128018083Y-91074262D01*
X128079803Y-91061144D01*
X128252730Y-90984151D01*
X128405871Y-90872888D01*
X128532533Y-90732216D01*
X128627179Y-90568284D01*
X128685674Y-90388256D01*
X128705460Y-90200000D01*
X128685674Y-90011744D01*
X128627179Y-89831716D01*
X128627179Y-89831715D01*
X128615796Y-89811999D01*
X128599323Y-89744098D01*
X128615796Y-89687999D01*
X128627179Y-89668284D01*
X128685674Y-89488256D01*
X128705460Y-89300000D01*
X128685674Y-89111744D01*
X128627179Y-88931716D01*
X128627179Y-88931715D01*
X128532533Y-88767783D01*
X128405870Y-88627110D01*
X128252730Y-88515848D01*
X128079802Y-88438855D01*
X127894648Y-88399500D01*
X127894646Y-88399500D01*
X127705354Y-88399500D01*
X127705352Y-88399500D01*
X127520197Y-88438855D01*
X127347269Y-88515848D01*
X127194129Y-88627110D01*
X127067466Y-88767783D01*
X126972820Y-88931715D01*
X126914326Y-89111742D01*
X126894540Y-89300000D01*
X126914326Y-89488257D01*
X126972820Y-89668284D01*
X126984203Y-89687999D01*
X127000676Y-89755899D01*
X126984205Y-89811996D01*
X126972820Y-89831715D01*
X126914326Y-90011742D01*
X126894540Y-90199999D01*
X88000500Y-90199999D01*
X88000500Y-87229499D01*
X126894540Y-87229499D01*
X126914326Y-87417757D01*
X126972820Y-87597784D01*
X127067466Y-87761716D01*
X127194129Y-87902389D01*
X127347269Y-88013651D01*
X127520197Y-88090644D01*
X127705352Y-88130000D01*
X127705354Y-88130000D01*
X127894648Y-88130000D01*
X128018083Y-88103762D01*
X128079803Y-88090644D01*
X128252730Y-88013651D01*
X128405870Y-87902389D01*
X128532533Y-87761716D01*
X128627179Y-87597784D01*
X128653801Y-87515849D01*
X128658951Y-87500000D01*
X133394540Y-87500000D01*
X133414326Y-87688257D01*
X133472820Y-87868284D01*
X133567466Y-88032216D01*
X133694129Y-88172889D01*
X133847269Y-88284151D01*
X133963168Y-88335752D01*
X134020197Y-88361144D01*
X134116976Y-88381714D01*
X134178455Y-88414905D01*
X134212232Y-88476068D01*
X134214116Y-88487611D01*
X134272820Y-88668284D01*
X134367466Y-88832216D01*
X134494129Y-88972889D01*
X134647269Y-89084151D01*
X134820197Y-89161144D01*
X135005352Y-89200500D01*
X135005354Y-89200500D01*
X135194648Y-89200500D01*
X135318084Y-89174262D01*
X135379803Y-89161144D01*
X135552730Y-89084151D01*
X135705871Y-88972888D01*
X135832533Y-88832216D01*
X135927179Y-88668284D01*
X135985674Y-88488256D01*
X136005460Y-88300000D01*
X135985674Y-88111744D01*
X135927179Y-87931716D01*
X135927179Y-87931715D01*
X135832533Y-87767783D01*
X135705870Y-87627110D01*
X135552730Y-87515848D01*
X135379803Y-87438855D01*
X135283025Y-87418284D01*
X135221543Y-87385091D01*
X135187767Y-87323928D01*
X135185882Y-87312387D01*
X135185674Y-87311748D01*
X135185674Y-87311744D01*
X135127179Y-87131716D01*
X135127179Y-87131715D01*
X135032533Y-86967783D01*
X134905870Y-86827110D01*
X134752730Y-86715848D01*
X134579802Y-86638855D01*
X134394648Y-86599500D01*
X134394646Y-86599500D01*
X134205354Y-86599500D01*
X134205352Y-86599500D01*
X134020197Y-86638855D01*
X133847269Y-86715848D01*
X133694129Y-86827110D01*
X133567466Y-86967783D01*
X133472820Y-87131715D01*
X133414326Y-87311742D01*
X133394540Y-87500000D01*
X128658951Y-87500000D01*
X128685674Y-87417756D01*
X128705460Y-87229500D01*
X128685674Y-87041244D01*
X128627179Y-86861216D01*
X128627179Y-86861215D01*
X128532533Y-86697283D01*
X128405870Y-86556610D01*
X128252730Y-86445348D01*
X128079802Y-86368355D01*
X127894648Y-86329000D01*
X127894646Y-86329000D01*
X127705354Y-86329000D01*
X127705352Y-86329000D01*
X127520197Y-86368355D01*
X127347269Y-86445348D01*
X127194129Y-86556610D01*
X127067466Y-86697283D01*
X126972820Y-86861215D01*
X126914326Y-87041242D01*
X126894540Y-87229499D01*
X88000500Y-87229499D01*
X88000500Y-83999999D01*
X105794540Y-83999999D01*
X105814326Y-84188257D01*
X105872820Y-84368284D01*
X105967466Y-84532216D01*
X106094129Y-84672889D01*
X106247269Y-84784151D01*
X106420197Y-84861144D01*
X106605352Y-84900500D01*
X106605354Y-84900500D01*
X106794648Y-84900500D01*
X106924551Y-84872888D01*
X106979803Y-84861144D01*
X107152730Y-84784151D01*
X107305871Y-84672888D01*
X107432533Y-84532216D01*
X107527179Y-84368284D01*
X107581858Y-84200000D01*
X115894540Y-84200000D01*
X115914326Y-84388257D01*
X115972820Y-84568284D01*
X116067466Y-84732216D01*
X116194129Y-84872889D01*
X116347269Y-84984151D01*
X116520197Y-85061144D01*
X116705352Y-85100500D01*
X116705354Y-85100500D01*
X116894648Y-85100500D01*
X117018083Y-85074262D01*
X117079803Y-85061144D01*
X117252730Y-84984151D01*
X117405871Y-84872888D01*
X117532533Y-84732216D01*
X117627179Y-84568284D01*
X117685674Y-84388256D01*
X117705460Y-84200000D01*
X117685674Y-84011744D01*
X117655332Y-83918363D01*
X117627179Y-83831715D01*
X117532533Y-83667783D01*
X117403380Y-83524345D01*
X117373150Y-83461354D01*
X117381775Y-83392019D01*
X117426516Y-83338353D01*
X117493169Y-83317395D01*
X117545966Y-83328094D01*
X117620197Y-83361144D01*
X117805352Y-83400500D01*
X117805354Y-83400500D01*
X117994648Y-83400500D01*
X118129176Y-83371905D01*
X118179803Y-83361144D01*
X118352730Y-83284151D01*
X118446740Y-83215849D01*
X118505870Y-83172889D01*
X118536515Y-83138855D01*
X118571500Y-83100000D01*
X123794540Y-83100000D01*
X123814326Y-83288257D01*
X123872820Y-83468284D01*
X123967466Y-83632216D01*
X124094129Y-83772889D01*
X124247269Y-83884151D01*
X124420197Y-83961144D01*
X124605352Y-84000500D01*
X124605354Y-84000500D01*
X124794648Y-84000500D01*
X124918084Y-83974262D01*
X124979803Y-83961144D01*
X125152730Y-83884151D01*
X125184383Y-83861154D01*
X125305870Y-83772889D01*
X125310468Y-83767783D01*
X125432533Y-83632216D01*
X125451133Y-83600000D01*
X128894540Y-83600000D01*
X128914326Y-83788257D01*
X128972820Y-83968284D01*
X129067466Y-84132216D01*
X129194129Y-84272889D01*
X129347269Y-84384151D01*
X129520197Y-84461144D01*
X129705352Y-84500500D01*
X129705354Y-84500500D01*
X129894648Y-84500500D01*
X130018083Y-84474262D01*
X130079803Y-84461144D01*
X130252730Y-84384151D01*
X130346740Y-84315849D01*
X130405870Y-84272889D01*
X130436515Y-84238855D01*
X130532533Y-84132216D01*
X130627179Y-83968284D01*
X130670227Y-83835796D01*
X130709663Y-83778123D01*
X130774022Y-83750924D01*
X130842868Y-83762838D01*
X130894344Y-83810082D01*
X130911478Y-83861154D01*
X130914326Y-83888257D01*
X130972820Y-84068284D01*
X131067466Y-84232216D01*
X131194129Y-84372889D01*
X131347269Y-84484151D01*
X131520193Y-84561143D01*
X131520196Y-84561143D01*
X131520197Y-84561144D01*
X131576721Y-84573158D01*
X131638201Y-84606349D01*
X131668870Y-84656128D01*
X131672819Y-84668281D01*
X131767466Y-84832216D01*
X131894129Y-84972889D01*
X132047269Y-85084151D01*
X132220197Y-85161144D01*
X132418102Y-85203210D01*
X132417329Y-85206844D01*
X132462760Y-85220185D01*
X132508515Y-85272989D01*
X132513652Y-85286182D01*
X132572820Y-85468284D01*
X132667466Y-85632216D01*
X132794129Y-85772889D01*
X132947269Y-85884151D01*
X133120197Y-85961144D01*
X133305352Y-86000500D01*
X133305354Y-86000500D01*
X133494648Y-86000500D01*
X133618084Y-85974262D01*
X133679803Y-85961144D01*
X133852730Y-85884151D01*
X133971482Y-85797873D01*
X134005870Y-85772889D01*
X134132533Y-85632216D01*
X134227179Y-85468284D01*
X134227178Y-85468284D01*
X134285674Y-85288256D01*
X134305460Y-85100000D01*
X134285674Y-84911744D01*
X134244216Y-84784151D01*
X134227179Y-84731715D01*
X134132533Y-84567783D01*
X134005870Y-84427110D01*
X133852730Y-84315848D01*
X133679802Y-84238855D01*
X133481898Y-84196790D01*
X133482670Y-84193155D01*
X133437240Y-84179815D01*
X133391485Y-84127011D01*
X133386348Y-84113818D01*
X133327179Y-83931715D01*
X133232533Y-83767783D01*
X133105870Y-83627110D01*
X132952732Y-83515849D01*
X132779801Y-83438855D01*
X132732994Y-83428906D01*
X132723276Y-83426840D01*
X132661795Y-83393648D01*
X132631127Y-83343867D01*
X132627179Y-83331716D01*
X132610096Y-83302128D01*
X132575679Y-83242515D01*
X132532533Y-83167784D01*
X132532531Y-83167782D01*
X132529193Y-83162000D01*
X132512720Y-83094100D01*
X132529193Y-83038000D01*
X132532531Y-83032217D01*
X132532533Y-83032216D01*
X132627179Y-82868284D01*
X132685674Y-82688256D01*
X132705460Y-82500000D01*
X132685674Y-82311744D01*
X132652575Y-82209876D01*
X132627179Y-82131715D01*
X132532533Y-81967783D01*
X132405870Y-81827110D01*
X132252730Y-81715848D01*
X132079802Y-81638855D01*
X131894648Y-81599500D01*
X131894646Y-81599500D01*
X131705354Y-81599500D01*
X131705352Y-81599500D01*
X131520197Y-81638855D01*
X131347269Y-81715848D01*
X131194129Y-81827110D01*
X131067466Y-81967783D01*
X130972820Y-82131715D01*
X130914326Y-82311742D01*
X130911478Y-82338845D01*
X130884893Y-82403460D01*
X130827595Y-82443444D01*
X130757776Y-82446104D01*
X130697603Y-82410594D01*
X130670226Y-82364201D01*
X130661987Y-82338845D01*
X130627179Y-82231716D01*
X130627179Y-82231715D01*
X130532533Y-82067783D01*
X130405870Y-81927110D01*
X130252730Y-81815848D01*
X130079802Y-81738855D01*
X129894648Y-81699500D01*
X129894646Y-81699500D01*
X129705354Y-81699500D01*
X129705352Y-81699500D01*
X129520197Y-81738855D01*
X129347269Y-81815848D01*
X129194129Y-81927110D01*
X129067466Y-82067783D01*
X128972820Y-82231715D01*
X128914326Y-82411742D01*
X128894540Y-82599999D01*
X128914326Y-82788257D01*
X128972820Y-82968284D01*
X129013071Y-83038000D01*
X129029544Y-83105900D01*
X129013071Y-83162000D01*
X128972820Y-83231715D01*
X128914326Y-83411742D01*
X128894540Y-83600000D01*
X125451133Y-83600000D01*
X125527179Y-83468284D01*
X125585674Y-83288256D01*
X125605460Y-83100000D01*
X125585674Y-82911744D01*
X125547629Y-82794653D01*
X125527179Y-82731715D01*
X125432533Y-82567783D01*
X125305870Y-82427110D01*
X125152730Y-82315848D01*
X124979803Y-82238855D01*
X124897162Y-82221289D01*
X124835681Y-82188096D01*
X124801904Y-82126933D01*
X124806558Y-82057218D01*
X124848163Y-82001086D01*
X124897160Y-81978710D01*
X124979803Y-81961144D01*
X124979804Y-81961143D01*
X124979806Y-81961143D01*
X125152730Y-81884151D01*
X125305870Y-81772889D01*
X125336515Y-81738855D01*
X125432533Y-81632216D01*
X125527179Y-81468284D01*
X125585674Y-81288256D01*
X125605460Y-81100000D01*
X125600205Y-81049999D01*
X136994731Y-81049999D01*
X137013777Y-81304154D01*
X137070492Y-81552637D01*
X137163608Y-81789891D01*
X137285203Y-82000500D01*
X137291041Y-82010612D01*
X137449950Y-82209877D01*
X137636783Y-82383232D01*
X137847366Y-82526805D01*
X138027972Y-82613780D01*
X138079832Y-82660602D01*
X138098145Y-82728029D01*
X138077097Y-82794653D01*
X138023371Y-82839322D01*
X137974171Y-82849500D01*
X137455439Y-82849500D01*
X137455420Y-82849500D01*
X137452128Y-82849501D01*
X137448848Y-82849853D01*
X137448840Y-82849854D01*
X137392515Y-82855909D01*
X137257669Y-82906204D01*
X137142454Y-82992454D01*
X137056204Y-83107668D01*
X137005910Y-83242515D01*
X137005909Y-83242517D01*
X136999500Y-83302127D01*
X136999500Y-83305448D01*
X136999500Y-83305449D01*
X136999500Y-85794560D01*
X136999500Y-85794578D01*
X136999501Y-85797872D01*
X136999853Y-85801152D01*
X136999854Y-85801159D01*
X137005909Y-85857484D01*
X137031056Y-85924906D01*
X137056204Y-85992331D01*
X137142454Y-86107546D01*
X137257669Y-86193796D01*
X137392517Y-86244091D01*
X137452127Y-86250500D01*
X139947872Y-86250499D01*
X140007483Y-86244091D01*
X140142331Y-86193796D01*
X140257546Y-86107546D01*
X140343796Y-85992331D01*
X140394091Y-85857483D01*
X140400500Y-85797873D01*
X140400499Y-83302128D01*
X140394091Y-83242517D01*
X140343796Y-83107669D01*
X140257546Y-82992454D01*
X140142331Y-82906204D01*
X140007483Y-82855909D01*
X139947873Y-82849500D01*
X139944551Y-82849500D01*
X139425829Y-82849500D01*
X139358790Y-82829815D01*
X139313035Y-82777011D01*
X139303091Y-82707853D01*
X139332116Y-82644297D01*
X139372027Y-82613780D01*
X139552634Y-82526805D01*
X139763217Y-82383232D01*
X139950050Y-82209877D01*
X140108959Y-82010612D01*
X140236393Y-81789888D01*
X140329508Y-81552637D01*
X140386222Y-81304157D01*
X140405268Y-81050000D01*
X140386222Y-80795843D01*
X140329508Y-80547363D01*
X140236393Y-80310112D01*
X140108959Y-80089388D01*
X139950050Y-79890123D01*
X139763217Y-79716768D01*
X139552634Y-79573195D01*
X139323004Y-79462611D01*
X139079458Y-79387487D01*
X138827435Y-79349500D01*
X138572565Y-79349500D01*
X138320542Y-79387487D01*
X138076996Y-79462611D01*
X137847366Y-79573195D01*
X137742074Y-79644981D01*
X137636781Y-79716769D01*
X137449950Y-79890123D01*
X137291038Y-80089392D01*
X137163608Y-80310108D01*
X137070492Y-80547362D01*
X137013777Y-80795845D01*
X136994731Y-81049999D01*
X125600205Y-81049999D01*
X125585674Y-80911744D01*
X125527179Y-80731716D01*
X125527179Y-80731715D01*
X125432533Y-80567783D01*
X125305870Y-80427110D01*
X125152730Y-80315848D01*
X124979802Y-80238855D01*
X124794648Y-80199500D01*
X124794646Y-80199500D01*
X124605354Y-80199500D01*
X124605352Y-80199500D01*
X124420197Y-80238855D01*
X124247269Y-80315848D01*
X124094129Y-80427110D01*
X123967466Y-80567783D01*
X123872820Y-80731715D01*
X123814326Y-80911742D01*
X123794540Y-81100000D01*
X123814326Y-81288257D01*
X123872820Y-81468284D01*
X123967466Y-81632216D01*
X124094129Y-81772889D01*
X124247269Y-81884151D01*
X124420197Y-81961144D01*
X124502836Y-81978710D01*
X124564318Y-82011902D01*
X124598094Y-82073065D01*
X124593442Y-82142780D01*
X124551837Y-82198912D01*
X124502836Y-82221290D01*
X124420197Y-82238855D01*
X124247269Y-82315848D01*
X124094129Y-82427110D01*
X123967466Y-82567783D01*
X123872820Y-82731715D01*
X123814326Y-82911742D01*
X123794540Y-83100000D01*
X118571500Y-83100000D01*
X118632533Y-83032216D01*
X118727179Y-82868284D01*
X118785674Y-82688256D01*
X118805460Y-82500000D01*
X118785674Y-82311744D01*
X118752575Y-82209876D01*
X118727179Y-82131715D01*
X118632533Y-81967783D01*
X118505870Y-81827110D01*
X118352730Y-81715848D01*
X118179802Y-81638855D01*
X117994648Y-81599500D01*
X117994646Y-81599500D01*
X117805354Y-81599500D01*
X117805352Y-81599500D01*
X117620197Y-81638855D01*
X117447269Y-81715848D01*
X117294129Y-81827110D01*
X117167466Y-81967783D01*
X117072820Y-82131715D01*
X117014326Y-82311742D01*
X116994540Y-82500000D01*
X117014326Y-82688257D01*
X117072820Y-82868284D01*
X117167466Y-83032216D01*
X117296619Y-83175654D01*
X117326849Y-83238645D01*
X117318224Y-83307980D01*
X117273483Y-83361646D01*
X117206830Y-83382604D01*
X117154033Y-83371905D01*
X117079802Y-83338855D01*
X116894648Y-83299500D01*
X116894646Y-83299500D01*
X116705354Y-83299500D01*
X116705352Y-83299500D01*
X116520197Y-83338855D01*
X116347269Y-83415848D01*
X116194129Y-83527110D01*
X116067466Y-83667783D01*
X115972820Y-83831715D01*
X115914326Y-84011742D01*
X115894540Y-84200000D01*
X107581858Y-84200000D01*
X107585674Y-84188256D01*
X107605460Y-84000000D01*
X107585674Y-83811744D01*
X107538898Y-83667783D01*
X107527179Y-83631715D01*
X107432533Y-83467783D01*
X107305870Y-83327110D01*
X107152730Y-83215848D01*
X106979802Y-83138855D01*
X106794648Y-83099500D01*
X106794646Y-83099500D01*
X106605354Y-83099500D01*
X106605352Y-83099500D01*
X106420197Y-83138855D01*
X106247269Y-83215848D01*
X106094129Y-83327110D01*
X105967466Y-83467783D01*
X105872820Y-83631715D01*
X105814326Y-83811742D01*
X105794540Y-83999999D01*
X88000500Y-83999999D01*
X88000500Y-82400000D01*
X99194540Y-82400000D01*
X99214326Y-82588257D01*
X99272820Y-82768284D01*
X99367466Y-82932216D01*
X99494129Y-83072889D01*
X99647269Y-83184151D01*
X99820197Y-83261144D01*
X100005352Y-83300500D01*
X100005354Y-83300500D01*
X100194648Y-83300500D01*
X100318083Y-83274262D01*
X100379803Y-83261144D01*
X100552730Y-83184151D01*
X100583221Y-83161998D01*
X100705870Y-83072889D01*
X100832533Y-82932216D01*
X100927179Y-82768284D01*
X100946814Y-82707853D01*
X100985674Y-82588256D01*
X101005460Y-82400000D01*
X100985674Y-82211744D01*
X100927179Y-82031716D01*
X100927179Y-82031715D01*
X100832533Y-81867783D01*
X100705870Y-81727110D01*
X100552730Y-81615848D01*
X100379802Y-81538855D01*
X100194648Y-81499500D01*
X100194646Y-81499500D01*
X100005354Y-81499500D01*
X100005352Y-81499500D01*
X99820197Y-81538855D01*
X99647269Y-81615848D01*
X99494129Y-81727110D01*
X99367466Y-81867783D01*
X99272820Y-82031715D01*
X99214326Y-82211742D01*
X99194540Y-82400000D01*
X88000500Y-82400000D01*
X88000500Y-78500000D01*
X131494540Y-78500000D01*
X131514326Y-78688257D01*
X131572820Y-78868284D01*
X131667466Y-79032216D01*
X131794129Y-79172889D01*
X131947269Y-79284151D01*
X132120197Y-79361144D01*
X132305352Y-79400500D01*
X132305354Y-79400500D01*
X132494648Y-79400500D01*
X132618083Y-79374262D01*
X132679803Y-79361144D01*
X132852730Y-79284151D01*
X132927116Y-79230106D01*
X132992921Y-79206627D01*
X133060975Y-79222452D01*
X133072876Y-79230100D01*
X133147270Y-79284151D01*
X133147271Y-79284151D01*
X133147272Y-79284152D01*
X133320197Y-79361144D01*
X133505352Y-79400500D01*
X133505354Y-79400500D01*
X133694648Y-79400500D01*
X133818083Y-79374262D01*
X133879803Y-79361144D01*
X134052730Y-79284151D01*
X134052730Y-79284150D01*
X134205870Y-79172889D01*
X134332533Y-79032216D01*
X134427179Y-78868284D01*
X134485674Y-78688256D01*
X134505460Y-78500000D01*
X134485674Y-78311744D01*
X134427179Y-78131716D01*
X134427179Y-78131715D01*
X134332533Y-77967783D01*
X134205870Y-77827110D01*
X134052730Y-77715848D01*
X133879802Y-77638855D01*
X133694648Y-77599500D01*
X133694646Y-77599500D01*
X133505354Y-77599500D01*
X133505352Y-77599500D01*
X133320197Y-77638855D01*
X133147272Y-77715846D01*
X133072885Y-77769892D01*
X133007078Y-77793371D01*
X132939024Y-77777545D01*
X132927115Y-77769892D01*
X132852727Y-77715846D01*
X132679802Y-77638855D01*
X132494648Y-77599500D01*
X132494646Y-77599500D01*
X132305354Y-77599500D01*
X132305352Y-77599500D01*
X132120197Y-77638855D01*
X131947269Y-77715848D01*
X131794129Y-77827110D01*
X131667466Y-77967783D01*
X131572820Y-78131715D01*
X131514326Y-78311742D01*
X131494540Y-78500000D01*
X88000500Y-78500000D01*
X88000500Y-77199999D01*
X96194540Y-77199999D01*
X96214326Y-77388257D01*
X96272820Y-77568284D01*
X96367466Y-77732216D01*
X96494129Y-77872889D01*
X96647269Y-77984151D01*
X96820197Y-78061144D01*
X97005352Y-78100500D01*
X97005354Y-78100500D01*
X97194648Y-78100500D01*
X97318084Y-78074262D01*
X97379803Y-78061144D01*
X97552730Y-77984151D01*
X97705871Y-77872888D01*
X97832533Y-77732216D01*
X97927179Y-77568284D01*
X97985674Y-77388256D01*
X98005460Y-77200000D01*
X97985674Y-77011744D01*
X97927179Y-76831716D01*
X97927179Y-76831715D01*
X97908868Y-76800000D01*
X100594540Y-76800000D01*
X100614326Y-76988257D01*
X100672820Y-77168284D01*
X100767466Y-77332216D01*
X100894129Y-77472889D01*
X101047269Y-77584151D01*
X101220197Y-77661144D01*
X101405352Y-77700500D01*
X101405354Y-77700500D01*
X101594648Y-77700500D01*
X101718083Y-77674262D01*
X101779803Y-77661144D01*
X101952730Y-77584151D01*
X102105871Y-77472888D01*
X102157849Y-77415160D01*
X102217337Y-77378511D01*
X102287194Y-77379842D01*
X102342150Y-77415160D01*
X102394129Y-77472889D01*
X102547269Y-77584151D01*
X102720197Y-77661144D01*
X102905352Y-77700500D01*
X102905354Y-77700500D01*
X103094648Y-77700500D01*
X103218084Y-77674262D01*
X103279803Y-77661144D01*
X103452730Y-77584151D01*
X103605871Y-77472888D01*
X103732533Y-77332216D01*
X103827179Y-77168284D01*
X103885674Y-76988256D01*
X103905460Y-76800000D01*
X103885674Y-76611744D01*
X103827179Y-76431716D01*
X103827179Y-76431715D01*
X103732533Y-76267783D01*
X103605870Y-76127110D01*
X103452730Y-76015848D01*
X103279802Y-75938855D01*
X103094648Y-75899500D01*
X103094646Y-75899500D01*
X102905354Y-75899500D01*
X102905352Y-75899500D01*
X102720197Y-75938855D01*
X102547269Y-76015848D01*
X102394129Y-76127110D01*
X102342150Y-76184840D01*
X102282663Y-76221489D01*
X102212806Y-76220158D01*
X102157850Y-76184840D01*
X102105870Y-76127110D01*
X101952730Y-76015848D01*
X101779802Y-75938855D01*
X101594648Y-75899500D01*
X101594646Y-75899500D01*
X101405354Y-75899500D01*
X101405352Y-75899500D01*
X101220197Y-75938855D01*
X101047269Y-76015848D01*
X100894129Y-76127110D01*
X100767466Y-76267783D01*
X100672820Y-76431715D01*
X100614326Y-76611742D01*
X100594540Y-76800000D01*
X97908868Y-76800000D01*
X97832533Y-76667783D01*
X97705870Y-76527110D01*
X97566750Y-76426034D01*
X97524084Y-76370704D01*
X97518105Y-76301091D01*
X97550711Y-76239296D01*
X97589199Y-76212436D01*
X97613629Y-76201559D01*
X97652731Y-76184151D01*
X97805870Y-76072889D01*
X97932533Y-75932216D01*
X98027179Y-75768284D01*
X98027178Y-75768284D01*
X98085674Y-75588256D01*
X98105460Y-75400000D01*
X98085674Y-75211744D01*
X98027179Y-75031716D01*
X98027179Y-75031715D01*
X97932533Y-74867783D01*
X97805870Y-74727110D01*
X97652730Y-74615848D01*
X97479802Y-74538855D01*
X97294648Y-74499500D01*
X97294646Y-74499500D01*
X97105354Y-74499500D01*
X97105352Y-74499500D01*
X96920197Y-74538855D01*
X96747269Y-74615848D01*
X96594129Y-74727110D01*
X96467466Y-74867783D01*
X96372820Y-75031715D01*
X96314326Y-75211742D01*
X96294540Y-75400000D01*
X96314326Y-75588257D01*
X96372820Y-75768284D01*
X96467466Y-75932216D01*
X96594129Y-76072889D01*
X96733249Y-76173965D01*
X96775915Y-76229295D01*
X96781894Y-76298908D01*
X96749288Y-76360703D01*
X96710800Y-76387562D01*
X96647269Y-76415848D01*
X96494129Y-76527110D01*
X96367466Y-76667783D01*
X96272820Y-76831715D01*
X96214326Y-77011742D01*
X96194540Y-77199999D01*
X88000500Y-77199999D01*
X88000500Y-72999999D01*
X100294540Y-72999999D01*
X100314326Y-73188257D01*
X100372820Y-73368284D01*
X100467466Y-73532216D01*
X100594129Y-73672889D01*
X100747269Y-73784151D01*
X100920197Y-73861144D01*
X101105352Y-73900500D01*
X101105354Y-73900500D01*
X101294648Y-73900500D01*
X101418083Y-73874262D01*
X101479803Y-73861144D01*
X101652730Y-73784151D01*
X101805871Y-73672888D01*
X101932533Y-73532216D01*
X102027179Y-73368284D01*
X102085674Y-73188256D01*
X102105460Y-73000000D01*
X102085674Y-72811744D01*
X102055332Y-72718363D01*
X102027179Y-72631715D01*
X101951133Y-72500000D01*
X112794540Y-72500000D01*
X112814326Y-72688257D01*
X112872820Y-72868284D01*
X112967466Y-73032216D01*
X113094129Y-73172889D01*
X113247269Y-73284151D01*
X113420197Y-73361144D01*
X113605352Y-73400500D01*
X113605354Y-73400500D01*
X113794648Y-73400500D01*
X113938816Y-73369856D01*
X113979803Y-73361144D01*
X114152730Y-73284151D01*
X114242446Y-73218969D01*
X114305870Y-73172889D01*
X114317439Y-73160041D01*
X114432533Y-73032216D01*
X114527179Y-72868284D01*
X114585674Y-72688256D01*
X114605460Y-72500000D01*
X114585674Y-72311744D01*
X114532822Y-72149083D01*
X114527179Y-72131715D01*
X114432533Y-71967783D01*
X114305870Y-71827110D01*
X114152730Y-71715848D01*
X113979802Y-71638855D01*
X113977699Y-71638408D01*
X139124500Y-71638408D01*
X139124816Y-71641519D01*
X139124817Y-71641531D01*
X139139541Y-71786318D01*
X139198930Y-71975608D01*
X139295217Y-72149083D01*
X139424446Y-72299617D01*
X139581331Y-72421056D01*
X139650625Y-72455046D01*
X139759456Y-72508430D01*
X139951520Y-72558159D01*
X140149663Y-72568207D01*
X140345773Y-72538165D01*
X140531820Y-72469260D01*
X140700189Y-72364315D01*
X140843986Y-72227626D01*
X140957324Y-72064789D01*
X141035563Y-71882470D01*
X141075500Y-71688134D01*
X141075500Y-71239462D01*
X141060459Y-71091556D01*
X141060458Y-71091553D01*
X141060458Y-71091551D01*
X141001069Y-70902261D01*
X140951570Y-70813081D01*
X140904784Y-70728789D01*
X140904783Y-70728787D01*
X140904782Y-70728786D01*
X140775553Y-70578252D01*
X140618668Y-70456813D01*
X140440544Y-70369440D01*
X140248480Y-70319711D01*
X140050337Y-70309663D01*
X140050336Y-70309663D01*
X140050334Y-70309663D01*
X139854227Y-70339704D01*
X139668182Y-70408608D01*
X139499812Y-70513554D01*
X139356012Y-70650245D01*
X139242676Y-70813080D01*
X139204408Y-70902257D01*
X139164437Y-70995400D01*
X139124500Y-71189736D01*
X139124500Y-71638408D01*
X113977699Y-71638408D01*
X113794648Y-71599500D01*
X113794646Y-71599500D01*
X113605354Y-71599500D01*
X113605352Y-71599500D01*
X113420197Y-71638855D01*
X113247269Y-71715848D01*
X113094129Y-71827110D01*
X112967466Y-71967783D01*
X112872820Y-72131715D01*
X112814326Y-72311742D01*
X112794540Y-72500000D01*
X101951133Y-72500000D01*
X101926017Y-72456497D01*
X101928529Y-72455046D01*
X101906820Y-72409809D01*
X101915445Y-72340474D01*
X101960186Y-72286808D01*
X102026839Y-72265850D01*
X102054981Y-72268538D01*
X102205352Y-72300500D01*
X102205354Y-72300500D01*
X102394648Y-72300500D01*
X102518084Y-72274262D01*
X102579803Y-72261144D01*
X102752730Y-72184151D01*
X102801000Y-72149081D01*
X102905870Y-72072889D01*
X103032533Y-71932216D01*
X103127179Y-71768284D01*
X103144216Y-71715849D01*
X103185674Y-71588256D01*
X103205460Y-71400000D01*
X103185674Y-71211744D01*
X103127179Y-71031716D01*
X103127179Y-71031715D01*
X103032533Y-70867783D01*
X102905870Y-70727110D01*
X102752730Y-70615848D01*
X102717133Y-70599999D01*
X118294540Y-70599999D01*
X118314326Y-70788257D01*
X118372820Y-70968284D01*
X118467466Y-71132216D01*
X118594129Y-71272889D01*
X118747269Y-71384151D01*
X118920197Y-71461144D01*
X119105352Y-71500500D01*
X119105354Y-71500500D01*
X119294648Y-71500500D01*
X119418083Y-71474262D01*
X119479803Y-71461144D01*
X119652730Y-71384151D01*
X119805871Y-71272888D01*
X119932533Y-71132216D01*
X120027179Y-70968284D01*
X120085674Y-70788256D01*
X120105460Y-70600000D01*
X120085674Y-70411744D01*
X120027179Y-70231716D01*
X120027179Y-70231715D01*
X119932533Y-70067783D01*
X119805870Y-69927110D01*
X119652730Y-69815848D01*
X119479802Y-69738855D01*
X119294648Y-69699500D01*
X119294646Y-69699500D01*
X119105354Y-69699500D01*
X119105352Y-69699500D01*
X118920197Y-69738855D01*
X118747269Y-69815848D01*
X118594129Y-69927110D01*
X118467466Y-70067783D01*
X118372820Y-70231715D01*
X118314326Y-70411742D01*
X118294540Y-70599999D01*
X102717133Y-70599999D01*
X102579802Y-70538855D01*
X102394648Y-70499500D01*
X102394646Y-70499500D01*
X102205354Y-70499500D01*
X102205352Y-70499500D01*
X102020197Y-70538855D01*
X101847269Y-70615848D01*
X101694129Y-70727110D01*
X101567466Y-70867783D01*
X101472820Y-71031715D01*
X101414326Y-71211742D01*
X101394540Y-71399999D01*
X101414326Y-71588257D01*
X101472820Y-71768284D01*
X101573983Y-71943503D01*
X101571469Y-71944953D01*
X101593179Y-71990192D01*
X101584553Y-72059527D01*
X101539811Y-72113192D01*
X101473159Y-72134149D01*
X101445019Y-72131461D01*
X101294649Y-72099500D01*
X101294646Y-72099500D01*
X101105354Y-72099500D01*
X101105352Y-72099500D01*
X100920197Y-72138855D01*
X100747269Y-72215848D01*
X100594129Y-72327110D01*
X100467466Y-72467783D01*
X100372820Y-72631715D01*
X100314326Y-72811742D01*
X100294540Y-72999999D01*
X88000500Y-72999999D01*
X88000500Y-68900000D01*
X91794540Y-68900000D01*
X91814326Y-69088257D01*
X91872820Y-69268284D01*
X91967466Y-69432216D01*
X92094129Y-69572889D01*
X92247269Y-69684151D01*
X92420197Y-69761144D01*
X92605352Y-69800500D01*
X92605354Y-69800500D01*
X92794648Y-69800500D01*
X92918084Y-69774262D01*
X92979803Y-69761144D01*
X93152730Y-69684151D01*
X93152729Y-69684150D01*
X93305870Y-69572889D01*
X93432533Y-69432216D01*
X93451133Y-69399999D01*
X116094540Y-69399999D01*
X116114326Y-69588257D01*
X116172820Y-69768284D01*
X116267466Y-69932216D01*
X116394129Y-70072889D01*
X116547269Y-70184151D01*
X116720197Y-70261144D01*
X116905352Y-70300500D01*
X116905354Y-70300500D01*
X117094648Y-70300500D01*
X117218083Y-70274262D01*
X117279803Y-70261144D01*
X117452730Y-70184151D01*
X117605871Y-70072888D01*
X117732533Y-69932216D01*
X117827179Y-69768284D01*
X117885674Y-69588256D01*
X117905460Y-69400000D01*
X117885674Y-69211744D01*
X117855332Y-69118363D01*
X117827179Y-69031715D01*
X117732533Y-68867783D01*
X117605870Y-68727110D01*
X117452730Y-68615848D01*
X117279802Y-68538855D01*
X117094648Y-68499500D01*
X117094646Y-68499500D01*
X116905354Y-68499500D01*
X116905352Y-68499500D01*
X116720197Y-68538855D01*
X116547269Y-68615848D01*
X116394129Y-68727110D01*
X116267466Y-68867783D01*
X116172820Y-69031715D01*
X116114326Y-69211742D01*
X116094540Y-69399999D01*
X93451133Y-69399999D01*
X93527179Y-69268284D01*
X93545551Y-69211742D01*
X93585674Y-69088256D01*
X93605460Y-68900000D01*
X93585674Y-68711744D01*
X93527179Y-68531716D01*
X93527179Y-68531715D01*
X93432533Y-68367783D01*
X93305870Y-68227110D01*
X93152730Y-68115848D01*
X92979802Y-68038855D01*
X92794648Y-67999500D01*
X92794646Y-67999500D01*
X92605354Y-67999500D01*
X92605352Y-67999500D01*
X92420197Y-68038855D01*
X92247269Y-68115848D01*
X92094129Y-68227110D01*
X91967466Y-68367783D01*
X91872820Y-68531715D01*
X91814326Y-68711742D01*
X91794540Y-68900000D01*
X88000500Y-68900000D01*
X88000500Y-68235055D01*
X89089500Y-68235055D01*
X89130209Y-68400224D01*
X89162183Y-68461144D01*
X89209266Y-68550852D01*
X89322071Y-68678183D01*
X89462070Y-68774818D01*
X89621128Y-68835140D01*
X89747628Y-68850500D01*
X89751377Y-68850500D01*
X89828623Y-68850500D01*
X89832372Y-68850500D01*
X89958872Y-68835140D01*
X90117930Y-68774818D01*
X90257929Y-68678183D01*
X90370734Y-68550852D01*
X90449790Y-68400225D01*
X90490500Y-68235056D01*
X90490500Y-68064944D01*
X90449790Y-67899775D01*
X90370734Y-67749148D01*
X90257929Y-67621817D01*
X90257928Y-67621816D01*
X90257927Y-67621815D01*
X90226323Y-67600000D01*
X102194540Y-67600000D01*
X102214326Y-67788257D01*
X102272820Y-67968284D01*
X102367466Y-68132216D01*
X102494129Y-68272889D01*
X102647269Y-68384151D01*
X102820197Y-68461144D01*
X103005352Y-68500500D01*
X103005354Y-68500500D01*
X103194648Y-68500500D01*
X103318084Y-68474262D01*
X103379803Y-68461144D01*
X103552730Y-68384151D01*
X103705871Y-68272888D01*
X103832533Y-68132216D01*
X103927179Y-67968284D01*
X103985674Y-67788256D01*
X103994950Y-67700000D01*
X106994540Y-67700000D01*
X107014326Y-67888257D01*
X107072820Y-68068284D01*
X107167466Y-68232216D01*
X107294129Y-68372889D01*
X107447269Y-68484151D01*
X107620197Y-68561144D01*
X107805352Y-68600500D01*
X107805354Y-68600500D01*
X107994648Y-68600500D01*
X108118084Y-68574262D01*
X108179803Y-68561144D01*
X108352730Y-68484151D01*
X108384397Y-68461144D01*
X108505870Y-68372889D01*
X108510468Y-68367783D01*
X108632533Y-68232216D01*
X108727179Y-68068284D01*
X108785674Y-67888256D01*
X108805460Y-67700000D01*
X108785674Y-67511744D01*
X108753181Y-67411742D01*
X108727179Y-67331715D01*
X108708868Y-67300000D01*
X134494540Y-67300000D01*
X134514326Y-67488257D01*
X134572820Y-67668284D01*
X134667466Y-67832216D01*
X134794129Y-67972889D01*
X134947269Y-68084151D01*
X135120197Y-68161144D01*
X135305352Y-68200500D01*
X135305354Y-68200500D01*
X135494648Y-68200500D01*
X135618084Y-68174262D01*
X135679803Y-68161144D01*
X135852730Y-68084151D01*
X135879166Y-68064944D01*
X136005870Y-67972889D01*
X136132533Y-67832216D01*
X136227179Y-67668284D01*
X136242278Y-67621815D01*
X136255494Y-67581141D01*
X137136043Y-67581141D01*
X137155829Y-67769399D01*
X137214323Y-67949426D01*
X137308969Y-68113358D01*
X137435632Y-68254031D01*
X137588772Y-68365293D01*
X137761700Y-68442286D01*
X137946855Y-68481642D01*
X137946857Y-68481642D01*
X138136151Y-68481642D01*
X138259587Y-68455404D01*
X138321306Y-68442286D01*
X138452205Y-68384005D01*
X138521456Y-68374720D01*
X138553078Y-68384005D01*
X138683979Y-68442286D01*
X138869134Y-68481642D01*
X138869136Y-68481642D01*
X139058430Y-68481642D01*
X139181865Y-68455404D01*
X139243585Y-68442286D01*
X139416512Y-68365293D01*
X139569653Y-68254030D01*
X139696315Y-68113358D01*
X139790961Y-67949426D01*
X139849456Y-67769398D01*
X139859802Y-67670955D01*
X139886385Y-67606344D01*
X139943682Y-67566359D01*
X139989396Y-67560079D01*
X140149663Y-67568207D01*
X140345773Y-67538165D01*
X140531820Y-67469260D01*
X140700189Y-67364315D01*
X140843986Y-67227626D01*
X140957324Y-67064789D01*
X141035563Y-66882470D01*
X141075500Y-66688134D01*
X141075500Y-66239462D01*
X141060459Y-66091556D01*
X141060458Y-66091553D01*
X141060458Y-66091551D01*
X141001069Y-65902261D01*
X140976209Y-65857472D01*
X140904784Y-65728789D01*
X140904783Y-65728787D01*
X140904782Y-65728786D01*
X140775553Y-65578252D01*
X140618668Y-65456813D01*
X140440544Y-65369440D01*
X140436079Y-65368284D01*
X140248480Y-65319711D01*
X140050337Y-65309663D01*
X140050336Y-65309663D01*
X140050334Y-65309663D01*
X139854227Y-65339704D01*
X139668182Y-65408608D01*
X139499812Y-65513554D01*
X139356013Y-65650245D01*
X139308980Y-65717818D01*
X139254525Y-65761595D01*
X139185047Y-65768983D01*
X139181426Y-65768269D01*
X139053146Y-65741003D01*
X139053143Y-65741003D01*
X138863851Y-65741003D01*
X138863849Y-65741003D01*
X138678696Y-65780357D01*
X138558932Y-65833680D01*
X138489682Y-65842964D01*
X138458062Y-65833680D01*
X138338297Y-65780357D01*
X138153145Y-65741003D01*
X138153143Y-65741003D01*
X137963851Y-65741003D01*
X137963849Y-65741003D01*
X137778694Y-65780358D01*
X137605766Y-65857351D01*
X137452626Y-65968613D01*
X137325963Y-66109286D01*
X137231317Y-66273218D01*
X137172823Y-66453245D01*
X137153037Y-66641503D01*
X137172823Y-66829760D01*
X137231318Y-67009789D01*
X137245646Y-67034606D01*
X137262119Y-67102506D01*
X137245647Y-67158604D01*
X137214323Y-67212858D01*
X137155829Y-67392884D01*
X137136043Y-67581141D01*
X136255494Y-67581141D01*
X136285674Y-67488256D01*
X136305460Y-67300000D01*
X136285674Y-67111744D01*
X136227179Y-66931716D01*
X136227179Y-66931715D01*
X136132533Y-66767783D01*
X136005870Y-66627110D01*
X135852730Y-66515848D01*
X135679802Y-66438855D01*
X135494648Y-66399500D01*
X135494646Y-66399500D01*
X135305354Y-66399500D01*
X135305352Y-66399500D01*
X135120197Y-66438855D01*
X134947269Y-66515848D01*
X134794129Y-66627110D01*
X134667466Y-66767783D01*
X134572820Y-66931715D01*
X134514326Y-67111742D01*
X134494540Y-67300000D01*
X108708868Y-67300000D01*
X108632533Y-67167783D01*
X108505870Y-67027110D01*
X108352730Y-66915848D01*
X108179802Y-66838855D01*
X107994648Y-66799500D01*
X107994646Y-66799500D01*
X107805354Y-66799500D01*
X107805352Y-66799500D01*
X107620197Y-66838855D01*
X107447269Y-66915848D01*
X107294129Y-67027110D01*
X107167466Y-67167783D01*
X107072820Y-67331715D01*
X107014326Y-67511742D01*
X106994540Y-67700000D01*
X103994950Y-67700000D01*
X104005460Y-67600000D01*
X103985674Y-67411744D01*
X103927179Y-67231716D01*
X103927179Y-67231715D01*
X103832533Y-67067783D01*
X103705870Y-66927110D01*
X103552730Y-66815848D01*
X103379802Y-66738855D01*
X103194648Y-66699500D01*
X103194646Y-66699500D01*
X103005354Y-66699500D01*
X103005352Y-66699500D01*
X102820197Y-66738855D01*
X102647269Y-66815848D01*
X102494129Y-66927110D01*
X102367466Y-67067783D01*
X102272820Y-67231715D01*
X102214326Y-67411742D01*
X102194540Y-67600000D01*
X90226323Y-67600000D01*
X90117930Y-67525182D01*
X89958872Y-67464860D01*
X89836092Y-67449951D01*
X89836080Y-67449950D01*
X89832372Y-67449500D01*
X89747628Y-67449500D01*
X89743920Y-67449950D01*
X89743907Y-67449951D01*
X89621127Y-67464860D01*
X89462069Y-67525182D01*
X89322072Y-67621815D01*
X89209265Y-67749149D01*
X89130209Y-67899775D01*
X89089500Y-68064944D01*
X89089500Y-68235055D01*
X88000500Y-68235055D01*
X88000500Y-65235055D01*
X89089500Y-65235055D01*
X89130209Y-65400224D01*
X89159910Y-65456813D01*
X89209266Y-65550852D01*
X89322071Y-65678183D01*
X89462070Y-65774818D01*
X89621128Y-65835140D01*
X89747628Y-65850500D01*
X89751377Y-65850500D01*
X89828623Y-65850500D01*
X89832372Y-65850500D01*
X89958872Y-65835140D01*
X90117930Y-65774818D01*
X90257929Y-65678183D01*
X90370734Y-65550852D01*
X90449790Y-65400225D01*
X90490500Y-65235056D01*
X90490500Y-65064944D01*
X90474493Y-65000000D01*
X112794540Y-65000000D01*
X112814326Y-65188257D01*
X112872820Y-65368284D01*
X112967466Y-65532216D01*
X113094129Y-65672889D01*
X113247269Y-65784151D01*
X113420197Y-65861144D01*
X113605352Y-65900500D01*
X113605354Y-65900500D01*
X113794648Y-65900500D01*
X113918083Y-65874262D01*
X113979803Y-65861144D01*
X114152730Y-65784151D01*
X114183776Y-65761595D01*
X114305870Y-65672889D01*
X114432533Y-65532216D01*
X114527179Y-65368284D01*
X114542961Y-65319711D01*
X114585674Y-65188256D01*
X114605460Y-65000000D01*
X114585674Y-64811744D01*
X114527179Y-64631716D01*
X114527179Y-64631715D01*
X114432533Y-64467783D01*
X114305870Y-64327110D01*
X114152730Y-64215848D01*
X113979802Y-64138855D01*
X113794648Y-64099500D01*
X113794646Y-64099500D01*
X113605354Y-64099500D01*
X113605352Y-64099500D01*
X113420197Y-64138855D01*
X113247269Y-64215848D01*
X113094129Y-64327110D01*
X112967466Y-64467783D01*
X112872820Y-64631715D01*
X112814326Y-64811742D01*
X112794540Y-65000000D01*
X90474493Y-65000000D01*
X90449790Y-64899775D01*
X90370734Y-64749148D01*
X90257929Y-64621817D01*
X90257928Y-64621816D01*
X90257927Y-64621815D01*
X90117930Y-64525182D01*
X89958872Y-64464860D01*
X89836092Y-64449951D01*
X89836080Y-64449950D01*
X89832372Y-64449500D01*
X89747628Y-64449500D01*
X89743920Y-64449950D01*
X89743907Y-64449951D01*
X89621127Y-64464860D01*
X89462069Y-64525182D01*
X89322072Y-64621815D01*
X89209265Y-64749149D01*
X89130209Y-64899775D01*
X89089500Y-65064944D01*
X89089500Y-65235055D01*
X88000500Y-65235055D01*
X88000500Y-56202424D01*
X88000596Y-56197556D01*
X88002039Y-56160838D01*
X88805499Y-56160838D01*
X88805624Y-56163621D01*
X88823778Y-56567865D01*
X88824844Y-56591585D01*
X88825214Y-56594323D01*
X88825216Y-56594335D01*
X88865002Y-56888045D01*
X88882723Y-57018864D01*
X88883342Y-57021578D01*
X88883343Y-57021581D01*
X88932404Y-57236533D01*
X88978670Y-57439235D01*
X89111912Y-57849313D01*
X89113009Y-57851881D01*
X89113013Y-57851890D01*
X89234890Y-58137034D01*
X89281377Y-58245796D01*
X89282691Y-58248239D01*
X89282696Y-58248248D01*
X89484383Y-58623044D01*
X89485701Y-58625493D01*
X89723237Y-58985345D01*
X89992074Y-59322457D01*
X90290048Y-59634112D01*
X90292135Y-59635935D01*
X90292142Y-59635942D01*
X90474339Y-59795123D01*
X90614758Y-59917803D01*
X90963591Y-60171245D01*
X91333738Y-60392398D01*
X91722219Y-60579481D01*
X92125907Y-60730987D01*
X92541549Y-60845697D01*
X92965802Y-60922688D01*
X93395247Y-60961338D01*
X93398024Y-60961338D01*
X93823652Y-60961338D01*
X93826429Y-60961338D01*
X94255874Y-60922688D01*
X94680127Y-60845697D01*
X95095769Y-60730987D01*
X95499457Y-60579481D01*
X95887938Y-60392398D01*
X96258085Y-60171245D01*
X96606918Y-59917803D01*
X96931628Y-59634112D01*
X97229602Y-59322457D01*
X97498439Y-58985345D01*
X97735975Y-58625493D01*
X97940299Y-58245796D01*
X98109764Y-57849313D01*
X98135941Y-57768749D01*
X128007040Y-57768749D01*
X128026826Y-57957007D01*
X128085320Y-58137034D01*
X128179966Y-58300966D01*
X128306629Y-58441639D01*
X128459769Y-58552901D01*
X128632697Y-58629894D01*
X128817852Y-58669250D01*
X128817854Y-58669250D01*
X129007148Y-58669250D01*
X129132408Y-58642625D01*
X129192303Y-58629894D01*
X129365230Y-58552901D01*
X129518371Y-58441638D01*
X129645033Y-58300966D01*
X129739679Y-58137034D01*
X129798174Y-57957006D01*
X129817960Y-57768750D01*
X129798174Y-57580494D01*
X129752276Y-57439235D01*
X129739679Y-57400465D01*
X129645033Y-57236533D01*
X129518370Y-57095860D01*
X129365230Y-56984598D01*
X129192302Y-56907605D01*
X129007148Y-56868250D01*
X129007146Y-56868250D01*
X128817854Y-56868250D01*
X128817852Y-56868250D01*
X128632697Y-56907605D01*
X128459769Y-56984598D01*
X128306629Y-57095860D01*
X128179966Y-57236533D01*
X128085320Y-57400465D01*
X128026826Y-57580492D01*
X128007040Y-57768749D01*
X98135941Y-57768749D01*
X98243006Y-57439235D01*
X98338953Y-57018864D01*
X98396832Y-56591585D01*
X98412318Y-56246773D01*
X107467465Y-56246773D01*
X107467802Y-56249985D01*
X107467803Y-56249992D01*
X107482291Y-56387838D01*
X107540785Y-56567865D01*
X107635431Y-56731797D01*
X107762094Y-56872470D01*
X107915234Y-56983732D01*
X108088162Y-57060725D01*
X108273317Y-57100081D01*
X108273319Y-57100081D01*
X108462613Y-57100081D01*
X108586048Y-57073843D01*
X108647768Y-57060725D01*
X108735686Y-57021581D01*
X108820692Y-56983734D01*
X108820695Y-56983732D01*
X108920081Y-56911523D01*
X108985884Y-56888045D01*
X109053938Y-56903870D01*
X109065849Y-56911525D01*
X109165234Y-56983732D01*
X109338162Y-57060725D01*
X109523317Y-57100081D01*
X109523319Y-57100081D01*
X109712613Y-57100081D01*
X109836048Y-57073843D01*
X109897768Y-57060725D01*
X109985686Y-57021581D01*
X110070692Y-56983734D01*
X110070695Y-56983732D01*
X110170081Y-56911523D01*
X110235884Y-56888045D01*
X110303938Y-56903870D01*
X110315849Y-56911525D01*
X110415234Y-56983732D01*
X110588162Y-57060725D01*
X110773317Y-57100081D01*
X110773319Y-57100081D01*
X110962613Y-57100081D01*
X111086049Y-57073843D01*
X111147768Y-57060725D01*
X111320695Y-56983732D01*
X111349701Y-56962657D01*
X111415505Y-56939178D01*
X111483559Y-56955003D01*
X111486735Y-56956859D01*
X111628568Y-57042600D01*
X111790858Y-57093171D01*
X111858585Y-57099326D01*
X111864203Y-57099580D01*
X111867964Y-57099579D01*
X111867965Y-57099579D01*
X111867965Y-55974204D01*
X111882470Y-56047126D01*
X111937725Y-56129821D01*
X112020420Y-56185076D01*
X112093341Y-56199581D01*
X112142589Y-56199581D01*
X112367965Y-56199581D01*
X112367965Y-57099580D01*
X112371718Y-57099580D01*
X112377354Y-57099324D01*
X112445069Y-57093172D01*
X112607362Y-57042599D01*
X112752840Y-56954655D01*
X112873039Y-56834456D01*
X112960984Y-56688977D01*
X113011555Y-56526687D01*
X113017709Y-56458965D01*
X113017965Y-56453336D01*
X113017965Y-56199581D01*
X112367965Y-56199581D01*
X112142589Y-56199581D01*
X112215510Y-56185076D01*
X112222480Y-56180419D01*
X133875080Y-56180419D01*
X133875205Y-56183202D01*
X133893545Y-56591585D01*
X133894425Y-56611166D01*
X133894795Y-56613904D01*
X133894797Y-56613916D01*
X133951930Y-57035685D01*
X133952304Y-57038445D01*
X133952923Y-57041159D01*
X133952924Y-57041162D01*
X134044384Y-57441876D01*
X134048251Y-57458816D01*
X134181493Y-57868894D01*
X134182590Y-57871462D01*
X134182594Y-57871471D01*
X134335488Y-58229183D01*
X134350958Y-58265377D01*
X134352272Y-58267820D01*
X134352277Y-58267829D01*
X134547113Y-58629894D01*
X134555282Y-58645074D01*
X134556815Y-58647397D01*
X134556816Y-58647398D01*
X134779892Y-58985345D01*
X134792818Y-59004926D01*
X135061655Y-59342038D01*
X135359629Y-59653693D01*
X135361716Y-59655516D01*
X135361723Y-59655523D01*
X135543920Y-59814704D01*
X135684339Y-59937384D01*
X136033172Y-60190826D01*
X136403319Y-60411979D01*
X136791800Y-60599062D01*
X137195488Y-60750568D01*
X137611130Y-60865278D01*
X138035383Y-60942269D01*
X138464828Y-60980919D01*
X138467605Y-60980919D01*
X138893233Y-60980919D01*
X138896010Y-60980919D01*
X139325455Y-60942269D01*
X139749708Y-60865278D01*
X140165350Y-60750568D01*
X140569038Y-60599062D01*
X140957519Y-60411979D01*
X141327666Y-60190826D01*
X141676499Y-59937384D01*
X142001209Y-59653693D01*
X142299183Y-59342038D01*
X142568020Y-59004926D01*
X142805556Y-58645074D01*
X143009880Y-58265377D01*
X143179345Y-57868894D01*
X143312587Y-57458816D01*
X143408534Y-57038445D01*
X143466413Y-56611166D01*
X143485758Y-56180419D01*
X143466413Y-55749672D01*
X143408534Y-55322393D01*
X143312587Y-54902022D01*
X143179345Y-54491944D01*
X143009880Y-54095461D01*
X142805556Y-53715764D01*
X142568020Y-53355912D01*
X142299183Y-53018800D01*
X142001209Y-52707145D01*
X141999121Y-52705321D01*
X141999114Y-52705314D01*
X141678591Y-52425282D01*
X141676499Y-52423454D01*
X141644217Y-52400000D01*
X141329919Y-52171649D01*
X141329920Y-52171649D01*
X141327666Y-52170012D01*
X141096196Y-52031715D01*
X140959893Y-51950277D01*
X140959886Y-51950273D01*
X140957519Y-51948859D01*
X140955030Y-51947660D01*
X140955022Y-51947656D01*
X140645169Y-51798439D01*
X140569038Y-51761776D01*
X140566434Y-51760798D01*
X140566423Y-51760794D01*
X140167960Y-51611249D01*
X140167949Y-51611245D01*
X140165350Y-51610270D01*
X140162665Y-51609529D01*
X140162662Y-51609528D01*
X139752397Y-51496302D01*
X139752394Y-51496301D01*
X139749708Y-51495560D01*
X139746976Y-51495064D01*
X139746962Y-51495061D01*
X139328195Y-51419066D01*
X139328189Y-51419065D01*
X139325455Y-51418569D01*
X139322703Y-51418321D01*
X139322686Y-51418319D01*
X138898773Y-51380167D01*
X138898758Y-51380166D01*
X138896010Y-51379919D01*
X138464828Y-51379919D01*
X138462080Y-51380166D01*
X138462064Y-51380167D01*
X138038151Y-51418319D01*
X138038131Y-51418321D01*
X138035383Y-51418569D01*
X138032651Y-51419064D01*
X138032642Y-51419066D01*
X137613875Y-51495061D01*
X137613856Y-51495065D01*
X137611130Y-51495560D01*
X137608448Y-51496300D01*
X137608440Y-51496302D01*
X137198175Y-51609528D01*
X137198166Y-51609530D01*
X137195488Y-51610270D01*
X137192895Y-51611243D01*
X137192877Y-51611249D01*
X136794414Y-51760794D01*
X136794395Y-51760801D01*
X136791800Y-51761776D01*
X136789290Y-51762984D01*
X136789287Y-51762986D01*
X136405815Y-51947656D01*
X136405797Y-51947665D01*
X136403319Y-51948859D01*
X136400960Y-51950267D01*
X136400944Y-51950277D01*
X136035555Y-52168588D01*
X136033172Y-52170012D01*
X136030927Y-52171642D01*
X136030918Y-52171649D01*
X135686588Y-52421819D01*
X135686573Y-52421830D01*
X135684339Y-52423454D01*
X135682253Y-52425275D01*
X135682246Y-52425282D01*
X135361723Y-52705314D01*
X135361704Y-52705331D01*
X135359629Y-52707145D01*
X135357709Y-52709152D01*
X135357706Y-52709156D01*
X135063574Y-53016792D01*
X135063564Y-53016802D01*
X135061655Y-53018800D01*
X135059936Y-53020955D01*
X135059926Y-53020967D01*
X134794555Y-53353733D01*
X134794547Y-53353742D01*
X134792818Y-53355912D01*
X134791291Y-53358224D01*
X134791281Y-53358239D01*
X134556816Y-53713439D01*
X134556809Y-53713450D01*
X134555282Y-53715764D01*
X134553970Y-53718200D01*
X134553964Y-53718212D01*
X134352277Y-54093008D01*
X134352268Y-54093025D01*
X134350958Y-54095461D01*
X134349863Y-54098021D01*
X134349860Y-54098029D01*
X134182594Y-54489366D01*
X134182587Y-54489383D01*
X134181493Y-54491944D01*
X134180630Y-54494597D01*
X134180628Y-54494605D01*
X134051240Y-54892823D01*
X134048251Y-54902022D01*
X134047635Y-54904720D01*
X134047633Y-54904728D01*
X133952924Y-55319675D01*
X133952304Y-55322393D01*
X133951931Y-55325146D01*
X133951930Y-55325152D01*
X133894797Y-55746921D01*
X133894795Y-55746935D01*
X133894425Y-55749672D01*
X133894300Y-55752442D01*
X133894300Y-55752449D01*
X133889828Y-55852036D01*
X133875080Y-56180419D01*
X112222480Y-56180419D01*
X112298205Y-56129821D01*
X112353460Y-56047126D01*
X112372863Y-55949581D01*
X112353460Y-55852036D01*
X112298205Y-55769341D01*
X112215510Y-55714086D01*
X112142589Y-55699581D01*
X112093341Y-55699581D01*
X112020420Y-55714086D01*
X111937725Y-55769341D01*
X111882470Y-55852036D01*
X111867965Y-55924957D01*
X111867965Y-54799581D01*
X112367965Y-54799581D01*
X112367965Y-55699581D01*
X113017964Y-55699581D01*
X113017964Y-55445827D01*
X113017708Y-55440191D01*
X113011556Y-55372476D01*
X112960983Y-55210183D01*
X112873039Y-55064705D01*
X112752840Y-54944506D01*
X112607361Y-54856561D01*
X112445071Y-54805990D01*
X112377349Y-54799836D01*
X112371721Y-54799581D01*
X112367965Y-54799581D01*
X111867965Y-54799581D01*
X111867964Y-54799580D01*
X111864193Y-54799581D01*
X111858593Y-54799836D01*
X111790860Y-54805989D01*
X111628567Y-54856562D01*
X111486736Y-54942302D01*
X111419181Y-54960138D01*
X111352707Y-54938620D01*
X111349702Y-54936504D01*
X111320694Y-54915429D01*
X111147767Y-54838436D01*
X110962613Y-54799081D01*
X110962611Y-54799081D01*
X110773319Y-54799081D01*
X110773317Y-54799081D01*
X110588162Y-54838436D01*
X110415237Y-54915427D01*
X110315849Y-54987637D01*
X110250042Y-55011116D01*
X110181988Y-54995290D01*
X110170078Y-54987636D01*
X110132230Y-54960138D01*
X110070695Y-54915430D01*
X110070694Y-54915429D01*
X110070692Y-54915428D01*
X109897767Y-54838436D01*
X109712613Y-54799081D01*
X109712611Y-54799081D01*
X109523319Y-54799081D01*
X109523317Y-54799081D01*
X109338162Y-54838436D01*
X109165234Y-54915429D01*
X109065850Y-54987636D01*
X109000044Y-55011116D01*
X108931990Y-54995290D01*
X108920080Y-54987636D01*
X108820695Y-54915429D01*
X108647767Y-54838436D01*
X108462613Y-54799081D01*
X108462611Y-54799081D01*
X108273319Y-54799081D01*
X108273317Y-54799081D01*
X108088162Y-54838436D01*
X107915234Y-54915429D01*
X107762094Y-55026691D01*
X107635431Y-55167364D01*
X107540785Y-55331296D01*
X107482291Y-55511323D01*
X107479149Y-55541224D01*
X107467465Y-55652389D01*
X107467465Y-56246773D01*
X98412318Y-56246773D01*
X98416177Y-56160838D01*
X98396832Y-55730091D01*
X98338953Y-55302812D01*
X98243006Y-54882441D01*
X98109764Y-54472363D01*
X97940299Y-54075880D01*
X97735975Y-53696183D01*
X97498439Y-53336331D01*
X97229602Y-52999219D01*
X96931628Y-52687564D01*
X96929540Y-52685740D01*
X96929533Y-52685733D01*
X96703462Y-52488221D01*
X96606918Y-52403873D01*
X96601587Y-52400000D01*
X96463947Y-52299999D01*
X118194540Y-52299999D01*
X118214326Y-52488257D01*
X118272820Y-52668284D01*
X118367466Y-52832216D01*
X118494129Y-52972889D01*
X118647269Y-53084151D01*
X118820197Y-53161144D01*
X119005352Y-53200500D01*
X119005354Y-53200500D01*
X119194648Y-53200500D01*
X119318084Y-53174262D01*
X119379803Y-53161144D01*
X119552730Y-53084151D01*
X119571794Y-53070300D01*
X119705870Y-52972889D01*
X119832533Y-52832216D01*
X119927179Y-52668284D01*
X119931029Y-52656435D01*
X119985674Y-52488256D01*
X119994950Y-52399999D01*
X120694540Y-52399999D01*
X120714326Y-52588257D01*
X120772820Y-52768284D01*
X120867466Y-52932216D01*
X120994129Y-53072889D01*
X121147269Y-53184151D01*
X121320197Y-53261144D01*
X121505352Y-53300500D01*
X121505354Y-53300500D01*
X121694648Y-53300500D01*
X121818083Y-53274262D01*
X121879803Y-53261144D01*
X121983486Y-53214981D01*
X122052727Y-53184153D01*
X122052730Y-53184151D01*
X122177116Y-53093778D01*
X122242920Y-53070300D01*
X122310974Y-53086125D01*
X122322872Y-53093771D01*
X122405942Y-53154125D01*
X122447272Y-53184153D01*
X122620197Y-53261144D01*
X122805352Y-53300500D01*
X122805354Y-53300500D01*
X122994648Y-53300500D01*
X123118083Y-53274262D01*
X123179803Y-53261144D01*
X123352730Y-53184151D01*
X123505871Y-53072888D01*
X123632533Y-52932216D01*
X123727179Y-52768284D01*
X123785674Y-52588256D01*
X123805460Y-52400000D01*
X123785674Y-52211744D01*
X123727179Y-52031716D01*
X123727179Y-52031715D01*
X123632533Y-51867783D01*
X123505870Y-51727110D01*
X123352730Y-51615848D01*
X123179802Y-51538855D01*
X122994648Y-51499500D01*
X122994646Y-51499500D01*
X122805354Y-51499500D01*
X122805352Y-51499500D01*
X122620197Y-51538855D01*
X122447269Y-51615848D01*
X122322885Y-51706218D01*
X122257078Y-51729698D01*
X122189025Y-51713872D01*
X122177115Y-51706218D01*
X122052730Y-51615848D01*
X121879802Y-51538855D01*
X121694648Y-51499500D01*
X121694646Y-51499500D01*
X121505354Y-51499500D01*
X121505352Y-51499500D01*
X121320197Y-51538855D01*
X121147269Y-51615848D01*
X120994129Y-51727110D01*
X120867466Y-51867783D01*
X120772820Y-52031715D01*
X120714326Y-52211742D01*
X120694540Y-52399999D01*
X119994950Y-52399999D01*
X120005460Y-52300000D01*
X119985674Y-52111744D01*
X119932749Y-51948859D01*
X119927179Y-51931715D01*
X119832533Y-51767783D01*
X119705870Y-51627110D01*
X119552730Y-51515848D01*
X119379802Y-51438855D01*
X119194648Y-51399500D01*
X119194646Y-51399500D01*
X119005354Y-51399500D01*
X119005352Y-51399500D01*
X118820197Y-51438855D01*
X118647269Y-51515848D01*
X118494129Y-51627110D01*
X118367466Y-51767783D01*
X118272820Y-51931715D01*
X118214326Y-52111742D01*
X118194540Y-52299999D01*
X96463947Y-52299999D01*
X96260338Y-52152068D01*
X96260339Y-52152068D01*
X96258085Y-52150431D01*
X96017390Y-52006622D01*
X95890312Y-51930696D01*
X95890305Y-51930692D01*
X95887938Y-51929278D01*
X95885449Y-51928079D01*
X95885441Y-51928075D01*
X95552591Y-51767783D01*
X95499457Y-51742195D01*
X95496853Y-51741217D01*
X95496842Y-51741213D01*
X95098379Y-51591668D01*
X95098368Y-51591664D01*
X95095769Y-51590689D01*
X95093084Y-51589948D01*
X95093081Y-51589947D01*
X94682816Y-51476721D01*
X94682813Y-51476720D01*
X94680127Y-51475979D01*
X94677395Y-51475483D01*
X94677381Y-51475480D01*
X94258614Y-51399485D01*
X94258608Y-51399484D01*
X94255874Y-51398988D01*
X94253122Y-51398740D01*
X94253105Y-51398738D01*
X93829192Y-51360586D01*
X93829177Y-51360585D01*
X93826429Y-51360338D01*
X93395247Y-51360338D01*
X93392499Y-51360585D01*
X93392483Y-51360586D01*
X92968570Y-51398738D01*
X92968550Y-51398740D01*
X92965802Y-51398988D01*
X92963070Y-51399483D01*
X92963061Y-51399485D01*
X92544294Y-51475480D01*
X92544275Y-51475484D01*
X92541549Y-51475979D01*
X92538867Y-51476719D01*
X92538859Y-51476721D01*
X92128594Y-51589947D01*
X92128585Y-51589949D01*
X92125907Y-51590689D01*
X92123314Y-51591662D01*
X92123296Y-51591668D01*
X91724833Y-51741213D01*
X91724814Y-51741220D01*
X91722219Y-51742195D01*
X91719709Y-51743403D01*
X91719706Y-51743405D01*
X91336234Y-51928075D01*
X91336216Y-51928084D01*
X91333738Y-51929278D01*
X91331379Y-51930686D01*
X91331363Y-51930696D01*
X90965974Y-52149007D01*
X90963591Y-52150431D01*
X90961346Y-52152061D01*
X90961337Y-52152068D01*
X90617007Y-52402238D01*
X90616992Y-52402249D01*
X90614758Y-52403873D01*
X90612672Y-52405694D01*
X90612665Y-52405701D01*
X90292142Y-52685733D01*
X90292123Y-52685750D01*
X90290048Y-52687564D01*
X90288128Y-52689571D01*
X90288125Y-52689575D01*
X89993993Y-52997211D01*
X89993983Y-52997221D01*
X89992074Y-52999219D01*
X89990355Y-53001374D01*
X89990345Y-53001386D01*
X89724974Y-53334152D01*
X89724966Y-53334161D01*
X89723237Y-53336331D01*
X89721710Y-53338643D01*
X89721700Y-53338658D01*
X89487235Y-53693858D01*
X89487228Y-53693869D01*
X89485701Y-53696183D01*
X89484389Y-53698619D01*
X89484383Y-53698631D01*
X89282696Y-54073427D01*
X89282687Y-54073444D01*
X89281377Y-54075880D01*
X89280282Y-54078440D01*
X89280279Y-54078448D01*
X89113013Y-54469785D01*
X89113006Y-54469802D01*
X89111912Y-54472363D01*
X89111049Y-54475016D01*
X89111047Y-54475024D01*
X88982856Y-54869558D01*
X88978670Y-54882441D01*
X88978054Y-54885139D01*
X88978052Y-54885147D01*
X88913638Y-55167364D01*
X88882723Y-55302812D01*
X88882350Y-55305565D01*
X88882349Y-55305571D01*
X88825216Y-55727340D01*
X88825214Y-55727354D01*
X88824844Y-55730091D01*
X88824719Y-55732861D01*
X88824719Y-55732868D01*
X88814580Y-55958627D01*
X88805499Y-56160838D01*
X88002039Y-56160838D01*
X88009983Y-55958627D01*
X88018196Y-55760060D01*
X88018948Y-55750637D01*
X88021706Y-55727340D01*
X88046260Y-55519883D01*
X88055491Y-55445827D01*
X88072190Y-55311854D01*
X88073608Y-55303085D01*
X88118599Y-55076900D01*
X88162084Y-54869514D01*
X88164075Y-54861405D01*
X88226506Y-54640040D01*
X88287290Y-54435871D01*
X88289763Y-54428445D01*
X88369289Y-54212884D01*
X88378893Y-54188269D01*
X88446988Y-54013756D01*
X88449840Y-54007048D01*
X88545475Y-53799600D01*
X88546586Y-53797260D01*
X88640137Y-53605898D01*
X88643294Y-53599872D01*
X88754789Y-53400783D01*
X88756368Y-53398052D01*
X88865489Y-53214922D01*
X88868836Y-53209621D01*
X88995549Y-53019982D01*
X88997615Y-53016993D01*
X89121569Y-52843384D01*
X89124988Y-52838828D01*
X89266181Y-52659726D01*
X89268805Y-52656516D01*
X89406652Y-52493760D01*
X89410157Y-52489799D01*
X89564901Y-52322398D01*
X89568176Y-52318992D01*
X89718992Y-52168176D01*
X89722398Y-52164901D01*
X89889799Y-52010157D01*
X89893760Y-52006652D01*
X90056516Y-51868805D01*
X90059726Y-51866181D01*
X90238828Y-51724988D01*
X90243384Y-51721569D01*
X90416993Y-51597615D01*
X90419982Y-51595549D01*
X90609621Y-51468836D01*
X90614922Y-51465489D01*
X90798052Y-51356368D01*
X90800783Y-51354789D01*
X90999872Y-51243294D01*
X91005898Y-51240137D01*
X91197260Y-51146586D01*
X91199600Y-51145475D01*
X91407035Y-51049846D01*
X91413788Y-51046976D01*
X91612839Y-50969304D01*
X91828464Y-50889756D01*
X91835871Y-50887290D01*
X92040040Y-50826506D01*
X92261391Y-50764079D01*
X92269535Y-50762079D01*
X92476859Y-50718607D01*
X92703081Y-50673608D01*
X92711873Y-50672188D01*
X92919768Y-50646273D01*
X93150669Y-50618944D01*
X93160058Y-50618196D01*
X93358452Y-50609990D01*
X93597556Y-50600596D01*
X93602425Y-50600500D01*
X138697576Y-50600500D01*
X138702442Y-50600595D01*
G37*
%TD.AperFunction*%
%TD*%
M02*
