%TF.GenerationSoftware,KiCad,Pcbnew,7.0.2*%
%TF.CreationDate,2023-06-03T12:41:16+05:30*%
%TF.ProjectId,STM32F4 based PCB,53544d33-3246-4342-9062-617365642050,rev?*%
%TF.SameCoordinates,Original*%
%TF.FileFunction,Copper,L4,Bot*%
%TF.FilePolarity,Positive*%
%FSLAX46Y46*%
G04 Gerber Fmt 4.6, Leading zero omitted, Abs format (unit mm)*
G04 Created by KiCad (PCBNEW 7.0.2) date 2023-06-03 12:41:16*
%MOMM*%
%LPD*%
G01*
G04 APERTURE LIST*
G04 Aperture macros list*
%AMRoundRect*
0 Rectangle with rounded corners*
0 $1 Rounding radius*
0 $2 $3 $4 $5 $6 $7 $8 $9 X,Y pos of 4 corners*
0 Add a 4 corners polygon primitive as box body*
4,1,4,$2,$3,$4,$5,$6,$7,$8,$9,$2,$3,0*
0 Add four circle primitives for the rounded corners*
1,1,$1+$1,$2,$3*
1,1,$1+$1,$4,$5*
1,1,$1+$1,$6,$7*
1,1,$1+$1,$8,$9*
0 Add four rect primitives between the rounded corners*
20,1,$1+$1,$2,$3,$4,$5,0*
20,1,$1+$1,$4,$5,$6,$7,0*
20,1,$1+$1,$6,$7,$8,$9,0*
20,1,$1+$1,$8,$9,$2,$3,0*%
G04 Aperture macros list end*
%TA.AperFunction,ComponentPad*%
%ADD10RoundRect,0.200000X-0.200000X-0.450000X0.200000X-0.450000X0.200000X0.450000X-0.200000X0.450000X0*%
%TD*%
%TA.AperFunction,ComponentPad*%
%ADD11O,0.800000X1.300000*%
%TD*%
%TA.AperFunction,ComponentPad*%
%ADD12C,0.900000*%
%TD*%
%TA.AperFunction,ComponentPad*%
%ADD13C,8.600000*%
%TD*%
%TA.AperFunction,ComponentPad*%
%ADD14O,1.550000X0.890000*%
%TD*%
%TA.AperFunction,ComponentPad*%
%ADD15O,0.950000X1.250000*%
%TD*%
%TA.AperFunction,ComponentPad*%
%ADD16R,2.400000X2.400000*%
%TD*%
%TA.AperFunction,ComponentPad*%
%ADD17C,2.400000*%
%TD*%
%TA.AperFunction,ComponentPad*%
%ADD18RoundRect,0.200000X0.200000X0.450000X-0.200000X0.450000X-0.200000X-0.450000X0.200000X-0.450000X0*%
%TD*%
%TA.AperFunction,ViaPad*%
%ADD19C,0.800000*%
%TD*%
%TA.AperFunction,Conductor*%
%ADD20C,0.300000*%
%TD*%
G04 APERTURE END LIST*
D10*
%TO.P,J4,1,Pin_1*%
%TO.N,+3.3V*%
X108325000Y-96400000D03*
D11*
%TO.P,J4,2,Pin_2*%
%TO.N,USART3_TX*%
X109575000Y-96400000D03*
%TO.P,J4,3,Pin_3*%
%TO.N,USART3_RX*%
X110825000Y-96400000D03*
%TO.P,J4,4,Pin_4*%
%TO.N,GND*%
X112075000Y-96400000D03*
%TD*%
D12*
%TO.P,H1,1,1*%
%TO.N,GND*%
X90385838Y-96180419D03*
X91330419Y-93900000D03*
X91330419Y-98460838D03*
X93610838Y-92955419D03*
D13*
X93610838Y-96180419D03*
D12*
X93610838Y-99405419D03*
X95891257Y-93900000D03*
X95891257Y-98460838D03*
X96835838Y-96180419D03*
%TD*%
%TO.P,H4,1,1*%
%TO.N,GND*%
X90385838Y-56160838D03*
X91330419Y-53880419D03*
X91330419Y-58441257D03*
X93610838Y-52935838D03*
D13*
X93610838Y-56160838D03*
D12*
X93610838Y-59385838D03*
X95891257Y-53880419D03*
X95891257Y-58441257D03*
X96835838Y-56160838D03*
%TD*%
%TO.P,H3,1,1*%
%TO.N,GND*%
X135455419Y-96180419D03*
X136400000Y-93900000D03*
X136400000Y-98460838D03*
X138680419Y-92955419D03*
D13*
X138680419Y-96180419D03*
D12*
X138680419Y-99405419D03*
X140960838Y-93900000D03*
X140960838Y-98460838D03*
X141905419Y-96180419D03*
%TD*%
D14*
%TO.P,J5,6,Shield*%
%TO.N,unconnected-(J5-Shield-Pad6)*%
X142800000Y-72438935D03*
D15*
X140100000Y-71438935D03*
X140100000Y-66438935D03*
D14*
X142800000Y-65438935D03*
%TD*%
D16*
%TO.P,J1,1,Pin_1*%
%TO.N,+12V*%
X138700000Y-84550000D03*
D17*
%TO.P,J1,2,Pin_2*%
%TO.N,GND*%
X138700000Y-81050000D03*
%TD*%
D12*
%TO.P,H2,1,1*%
%TO.N,GND*%
X135455419Y-56180419D03*
X136400000Y-53900000D03*
X136400000Y-58460838D03*
X138680419Y-52955419D03*
D13*
X138680419Y-56180419D03*
D12*
X138680419Y-59405419D03*
X140960838Y-53900000D03*
X140960838Y-58460838D03*
X141905419Y-56180419D03*
%TD*%
D18*
%TO.P,J3,1,Pin_1*%
%TO.N,+3.3V*%
X112117965Y-55949581D03*
D11*
%TO.P,J3,2,Pin_2*%
%TO.N,I2C_SCL*%
X110867965Y-55949581D03*
%TO.P,J3,3,Pin_3*%
%TO.N,I2C1_SDA*%
X109617965Y-55949581D03*
%TO.P,J3,4,Pin_4*%
%TO.N,GND*%
X108367965Y-55949581D03*
%TD*%
D19*
%TO.N,NRST*%
X113700000Y-72500000D03*
X113700000Y-65000000D03*
%TO.N,GND*%
X122900000Y-52400000D03*
X103000000Y-76800000D03*
X101500000Y-76800000D03*
X97100000Y-77200000D03*
X97200000Y-75400000D03*
X101200000Y-73000000D03*
X135400000Y-67300000D03*
X131800000Y-83700000D03*
X129800000Y-83600000D03*
X129800000Y-82600000D03*
X127800000Y-87229500D03*
X127800000Y-90200000D03*
X138958497Y-66641503D03*
X138058497Y-66641503D03*
X138041503Y-67581142D03*
X119200000Y-70600000D03*
X100100000Y-82400000D03*
X106700000Y-84000000D03*
X117900000Y-82500000D03*
X128912500Y-57768750D03*
X102300000Y-71400000D03*
X138963782Y-67581142D03*
X132500000Y-84300000D03*
X133400000Y-85100000D03*
X124700000Y-81100000D03*
X132400000Y-78500000D03*
X126100000Y-93300000D03*
X126100000Y-95000000D03*
X121600000Y-52400000D03*
X92700000Y-68900000D03*
%TO.N,+3.3V*%
X124200000Y-52400000D03*
%TO.N,GND*%
X131800000Y-82500000D03*
X103100000Y-67600000D03*
X107900000Y-67700000D03*
X135100000Y-88300000D03*
X126100000Y-92300000D03*
X116800000Y-84200000D03*
X133600000Y-78500000D03*
X124700000Y-83100000D03*
X134300000Y-87500000D03*
X127800000Y-89300000D03*
X126100000Y-96100000D03*
X117000000Y-69400000D03*
%TO.N,+3.3V*%
X107900000Y-66600000D03*
X109000000Y-84000000D03*
X102300000Y-72400000D03*
X99300000Y-79200000D03*
X121400000Y-95600000D03*
X123200000Y-92900000D03*
X99300000Y-80800000D03*
X92700000Y-64400000D03*
X106900000Y-67700000D03*
X116500000Y-81700000D03*
X112700000Y-66600000D03*
X128912500Y-53968750D03*
X123000000Y-89800000D03*
X130800000Y-90700000D03*
%TO.N,GND*%
X119100000Y-52300000D03*
%TO.N,+3.3V*%
X119600000Y-89800000D03*
X117700000Y-71000000D03*
X123000000Y-88500000D03*
X104700000Y-67500000D03*
X123200000Y-95600000D03*
X119600000Y-88500000D03*
X130000000Y-90000000D03*
X121400000Y-92900000D03*
%TD*%
D20*
%TO.N,NRST*%
X113700000Y-72500000D02*
X113700000Y-65000000D01*
%TD*%
M02*
