%TF.GenerationSoftware,KiCad,Pcbnew,7.0.2*%
%TF.CreationDate,2023-06-03T12:41:16+05:30*%
%TF.ProjectId,STM32F4 based PCB,53544d33-3246-4342-9062-617365642050,rev?*%
%TF.SameCoordinates,Original*%
%TF.FileFunction,Copper,L2,Inr*%
%TF.FilePolarity,Positive*%
%FSLAX46Y46*%
G04 Gerber Fmt 4.6, Leading zero omitted, Abs format (unit mm)*
G04 Created by KiCad (PCBNEW 7.0.2) date 2023-06-03 12:41:16*
%MOMM*%
%LPD*%
G01*
G04 APERTURE LIST*
G04 Aperture macros list*
%AMRoundRect*
0 Rectangle with rounded corners*
0 $1 Rounding radius*
0 $2 $3 $4 $5 $6 $7 $8 $9 X,Y pos of 4 corners*
0 Add a 4 corners polygon primitive as box body*
4,1,4,$2,$3,$4,$5,$6,$7,$8,$9,$2,$3,0*
0 Add four circle primitives for the rounded corners*
1,1,$1+$1,$2,$3*
1,1,$1+$1,$4,$5*
1,1,$1+$1,$6,$7*
1,1,$1+$1,$8,$9*
0 Add four rect primitives between the rounded corners*
20,1,$1+$1,$2,$3,$4,$5,0*
20,1,$1+$1,$4,$5,$6,$7,0*
20,1,$1+$1,$6,$7,$8,$9,0*
20,1,$1+$1,$8,$9,$2,$3,0*%
G04 Aperture macros list end*
%TA.AperFunction,ComponentPad*%
%ADD10RoundRect,0.200000X-0.200000X-0.450000X0.200000X-0.450000X0.200000X0.450000X-0.200000X0.450000X0*%
%TD*%
%TA.AperFunction,ComponentPad*%
%ADD11O,0.800000X1.300000*%
%TD*%
%TA.AperFunction,ComponentPad*%
%ADD12C,0.900000*%
%TD*%
%TA.AperFunction,ComponentPad*%
%ADD13C,8.600000*%
%TD*%
%TA.AperFunction,ComponentPad*%
%ADD14O,1.550000X0.890000*%
%TD*%
%TA.AperFunction,ComponentPad*%
%ADD15O,0.950000X1.250000*%
%TD*%
%TA.AperFunction,ComponentPad*%
%ADD16R,2.400000X2.400000*%
%TD*%
%TA.AperFunction,ComponentPad*%
%ADD17C,2.400000*%
%TD*%
%TA.AperFunction,ComponentPad*%
%ADD18RoundRect,0.200000X0.200000X0.450000X-0.200000X0.450000X-0.200000X-0.450000X0.200000X-0.450000X0*%
%TD*%
%TA.AperFunction,ViaPad*%
%ADD19C,0.800000*%
%TD*%
G04 APERTURE END LIST*
D10*
%TO.N,+3.3V*%
%TO.C,J4*%
X108325000Y-96400000D03*
D11*
%TO.N,USART3_TX*%
X109575000Y-96400000D03*
%TO.N,USART3_RX*%
X110825000Y-96400000D03*
%TO.N,GND*%
X112075000Y-96400000D03*
%TD*%
D12*
%TO.N,GND*%
%TO.C,H1*%
X90385838Y-96180419D03*
X91330419Y-93900000D03*
X91330419Y-98460838D03*
X93610838Y-92955419D03*
D13*
X93610838Y-96180419D03*
D12*
X93610838Y-99405419D03*
X95891257Y-93900000D03*
X95891257Y-98460838D03*
X96835838Y-96180419D03*
%TD*%
%TO.N,GND*%
%TO.C,H4*%
X90385838Y-56160838D03*
X91330419Y-53880419D03*
X91330419Y-58441257D03*
X93610838Y-52935838D03*
D13*
X93610838Y-56160838D03*
D12*
X93610838Y-59385838D03*
X95891257Y-53880419D03*
X95891257Y-58441257D03*
X96835838Y-56160838D03*
%TD*%
%TO.N,GND*%
%TO.C,H3*%
X135455419Y-96180419D03*
X136400000Y-93900000D03*
X136400000Y-98460838D03*
X138680419Y-92955419D03*
D13*
X138680419Y-96180419D03*
D12*
X138680419Y-99405419D03*
X140960838Y-93900000D03*
X140960838Y-98460838D03*
X141905419Y-96180419D03*
%TD*%
D14*
%TO.N,unconnected-(J5-Shield-Pad6)*%
%TO.C,J5*%
X142800000Y-72438935D03*
D15*
X140100000Y-71438935D03*
X140100000Y-66438935D03*
D14*
X142800000Y-65438935D03*
%TD*%
D16*
%TO.N,+12V*%
%TO.C,J1*%
X138700000Y-84550000D03*
D17*
%TO.N,GND*%
X138700000Y-81050000D03*
%TD*%
D12*
%TO.N,GND*%
%TO.C,H2*%
X135455419Y-56180419D03*
X136400000Y-53900000D03*
X136400000Y-58460838D03*
X138680419Y-52955419D03*
D13*
X138680419Y-56180419D03*
D12*
X138680419Y-59405419D03*
X140960838Y-53900000D03*
X140960838Y-58460838D03*
X141905419Y-56180419D03*
%TD*%
D18*
%TO.N,+3.3V*%
%TO.C,J3*%
X112117965Y-55949581D03*
D11*
%TO.N,I2C_SCL*%
X110867965Y-55949581D03*
%TO.N,I2C1_SDA*%
X109617965Y-55949581D03*
%TO.N,GND*%
X108367965Y-55949581D03*
%TD*%
D19*
%TO.N,NRST*%
X113700000Y-72500000D03*
X113700000Y-65000000D03*
%TO.N,GND*%
X122900000Y-52400000D03*
X103000000Y-76800000D03*
X101500000Y-76800000D03*
X97100000Y-77200000D03*
X97200000Y-75400000D03*
X101200000Y-73000000D03*
X135400000Y-67300000D03*
X131800000Y-83700000D03*
X129800000Y-83600000D03*
X129800000Y-82600000D03*
X127800000Y-87229500D03*
X127800000Y-90200000D03*
X138958497Y-66641503D03*
X138058497Y-66641503D03*
X138041503Y-67581142D03*
X119200000Y-70600000D03*
X100100000Y-82400000D03*
X106700000Y-84000000D03*
X117900000Y-82500000D03*
X128912500Y-57768750D03*
X102300000Y-71400000D03*
X138963782Y-67581142D03*
X132500000Y-84300000D03*
X133400000Y-85100000D03*
X124700000Y-81100000D03*
X132400000Y-78500000D03*
X126100000Y-93300000D03*
X126100000Y-95000000D03*
X121600000Y-52400000D03*
X92700000Y-68900000D03*
%TO.N,+3.3V*%
X124200000Y-52400000D03*
%TO.N,GND*%
X131800000Y-82500000D03*
X103100000Y-67600000D03*
X107900000Y-67700000D03*
X135100000Y-88300000D03*
X126100000Y-92300000D03*
X116800000Y-84200000D03*
X133600000Y-78500000D03*
X124700000Y-83100000D03*
X134300000Y-87500000D03*
X127800000Y-89300000D03*
X126100000Y-96100000D03*
X117000000Y-69400000D03*
%TO.N,+3.3V*%
X107900000Y-66600000D03*
X109000000Y-84000000D03*
X102300000Y-72400000D03*
X99300000Y-79200000D03*
X121400000Y-95600000D03*
X123200000Y-92900000D03*
X99300000Y-80800000D03*
X92700000Y-64400000D03*
X106900000Y-67700000D03*
X116500000Y-81700000D03*
X112700000Y-66600000D03*
X128912500Y-53968750D03*
X123000000Y-89800000D03*
X130800000Y-90700000D03*
%TO.N,GND*%
X119100000Y-52300000D03*
%TO.N,+3.3V*%
X119600000Y-89800000D03*
X117700000Y-71000000D03*
X123000000Y-88500000D03*
X104700000Y-67500000D03*
X123200000Y-95600000D03*
X119600000Y-88500000D03*
X130000000Y-90000000D03*
X121400000Y-92900000D03*
%TD*%
%TA.AperFunction,Conductor*%
%TO.N,GND*%
G36*
X92035869Y-97651337D02*
G01*
X92250828Y-97852095D01*
X92275382Y-97869427D01*
X91625765Y-98519044D01*
X91634314Y-98488998D01*
X91623965Y-98377317D01*
X91573971Y-98276916D01*
X91491085Y-98201354D01*
X91386499Y-98160838D01*
X91302617Y-98160838D01*
X91270943Y-98166758D01*
X91923941Y-97513760D01*
X92035869Y-97651337D01*
G37*
%TD.AperFunction*%
%TA.AperFunction,Conductor*%
G36*
X95944810Y-98160838D02*
G01*
X95863455Y-98160838D01*
X95781007Y-98176250D01*
X95685647Y-98235295D01*
X95618056Y-98324800D01*
X95587362Y-98432678D01*
X95595309Y-98518444D01*
X94946293Y-97869427D01*
X94970848Y-97852095D01*
X95185807Y-97651337D01*
X95297733Y-97513761D01*
X95944810Y-98160838D01*
G37*
%TD.AperFunction*%
%TA.AperFunction,Conductor*%
G36*
X92275383Y-94491410D02*
G01*
X92250828Y-94508743D01*
X92035869Y-94709501D01*
X91923942Y-94847076D01*
X91276865Y-94200000D01*
X91358221Y-94200000D01*
X91440669Y-94184588D01*
X91536029Y-94125543D01*
X91603620Y-94036038D01*
X91634314Y-93928160D01*
X91626366Y-93842393D01*
X92275383Y-94491410D01*
G37*
%TD.AperFunction*%
%TA.AperFunction,Conductor*%
G36*
X95587362Y-93871840D02*
G01*
X95597711Y-93983521D01*
X95647705Y-94083922D01*
X95730591Y-94159484D01*
X95835177Y-94200000D01*
X95919059Y-94200000D01*
X95950727Y-94194080D01*
X95297732Y-94847075D01*
X95185807Y-94709501D01*
X94970848Y-94508743D01*
X94946291Y-94491409D01*
X95595912Y-93841788D01*
X95587362Y-93871840D01*
G37*
%TD.AperFunction*%
%TA.AperFunction,Conductor*%
G36*
X137105450Y-97651337D02*
G01*
X137320409Y-97852095D01*
X137344963Y-97869427D01*
X136695346Y-98519044D01*
X136703895Y-98488998D01*
X136693546Y-98377317D01*
X136643552Y-98276916D01*
X136560666Y-98201354D01*
X136456080Y-98160838D01*
X136372198Y-98160838D01*
X136340524Y-98166758D01*
X136993522Y-97513760D01*
X137105450Y-97651337D01*
G37*
%TD.AperFunction*%
%TA.AperFunction,Conductor*%
G36*
X141014392Y-98160838D02*
G01*
X140933036Y-98160838D01*
X140850588Y-98176250D01*
X140755228Y-98235295D01*
X140687637Y-98324800D01*
X140656943Y-98432678D01*
X140664890Y-98518444D01*
X140015874Y-97869427D01*
X140040429Y-97852095D01*
X140255388Y-97651337D01*
X140367314Y-97513761D01*
X141014392Y-98160838D01*
G37*
%TD.AperFunction*%
%TA.AperFunction,Conductor*%
G36*
X137344964Y-94491410D02*
G01*
X137320409Y-94508743D01*
X137105450Y-94709501D01*
X136993523Y-94847076D01*
X136346447Y-94200000D01*
X136427802Y-94200000D01*
X136510250Y-94184588D01*
X136605610Y-94125543D01*
X136673201Y-94036038D01*
X136703895Y-93928160D01*
X136695947Y-93842393D01*
X137344964Y-94491410D01*
G37*
%TD.AperFunction*%
%TA.AperFunction,Conductor*%
G36*
X140656943Y-93871840D02*
G01*
X140667292Y-93983521D01*
X140717286Y-94083922D01*
X140800172Y-94159484D01*
X140904758Y-94200000D01*
X140988640Y-94200000D01*
X141020309Y-94194080D01*
X140367313Y-94847075D01*
X140255388Y-94709501D01*
X140040429Y-94508743D01*
X140015872Y-94491409D01*
X140665493Y-93841788D01*
X140656943Y-93871840D01*
G37*
%TD.AperFunction*%
%TA.AperFunction,Conductor*%
G36*
X92035869Y-57631756D02*
G01*
X92250828Y-57832514D01*
X92275382Y-57849846D01*
X91625765Y-58499463D01*
X91634314Y-58469417D01*
X91623965Y-58357736D01*
X91573971Y-58257335D01*
X91491085Y-58181773D01*
X91386499Y-58141257D01*
X91302617Y-58141257D01*
X91270943Y-58147177D01*
X91923941Y-57494179D01*
X92035869Y-57631756D01*
G37*
%TD.AperFunction*%
%TA.AperFunction,Conductor*%
G36*
X95944811Y-58141257D02*
G01*
X95863455Y-58141257D01*
X95781007Y-58156669D01*
X95685647Y-58215714D01*
X95618056Y-58305219D01*
X95587362Y-58413097D01*
X95595309Y-58498863D01*
X94946293Y-57849846D01*
X94970848Y-57832514D01*
X95185807Y-57631756D01*
X95297733Y-57494180D01*
X95944811Y-58141257D01*
G37*
%TD.AperFunction*%
%TA.AperFunction,Conductor*%
G36*
X92275383Y-54471829D02*
G01*
X92250828Y-54489162D01*
X92035869Y-54689920D01*
X91923942Y-54827495D01*
X91276865Y-54180419D01*
X91358221Y-54180419D01*
X91440669Y-54165007D01*
X91536029Y-54105962D01*
X91603620Y-54016457D01*
X91634314Y-53908579D01*
X91626366Y-53822812D01*
X92275383Y-54471829D01*
G37*
%TD.AperFunction*%
%TA.AperFunction,Conductor*%
G36*
X95587362Y-53852259D02*
G01*
X95597711Y-53963940D01*
X95647705Y-54064341D01*
X95730591Y-54139903D01*
X95835177Y-54180419D01*
X95919059Y-54180419D01*
X95950728Y-54174499D01*
X95297732Y-54827494D01*
X95185807Y-54689920D01*
X94970848Y-54489162D01*
X94946291Y-54471828D01*
X95595912Y-53822207D01*
X95587362Y-53852259D01*
G37*
%TD.AperFunction*%
%TA.AperFunction,Conductor*%
G36*
X137105450Y-57651337D02*
G01*
X137320409Y-57852095D01*
X137344963Y-57869427D01*
X136695346Y-58519044D01*
X136703895Y-58488998D01*
X136693546Y-58377317D01*
X136643552Y-58276916D01*
X136560666Y-58201354D01*
X136456080Y-58160838D01*
X136372198Y-58160838D01*
X136340524Y-58166758D01*
X136993522Y-57513760D01*
X137105450Y-57651337D01*
G37*
%TD.AperFunction*%
%TA.AperFunction,Conductor*%
G36*
X141014392Y-58160838D02*
G01*
X140933036Y-58160838D01*
X140850588Y-58176250D01*
X140755228Y-58235295D01*
X140687637Y-58324800D01*
X140656943Y-58432678D01*
X140664890Y-58518444D01*
X140015874Y-57869427D01*
X140040429Y-57852095D01*
X140255388Y-57651337D01*
X140367314Y-57513761D01*
X141014392Y-58160838D01*
G37*
%TD.AperFunction*%
%TA.AperFunction,Conductor*%
G36*
X137344964Y-54491410D02*
G01*
X137320409Y-54508743D01*
X137105450Y-54709501D01*
X136993523Y-54847076D01*
X136346447Y-54200000D01*
X136427802Y-54200000D01*
X136510250Y-54184588D01*
X136605610Y-54125543D01*
X136673201Y-54036038D01*
X136703895Y-53928160D01*
X136695947Y-53842393D01*
X137344964Y-54491410D01*
G37*
%TD.AperFunction*%
%TA.AperFunction,Conductor*%
G36*
X140656943Y-53871840D02*
G01*
X140667292Y-53983521D01*
X140717286Y-54083922D01*
X140800172Y-54159484D01*
X140904758Y-54200000D01*
X140988640Y-54200000D01*
X141020309Y-54194080D01*
X140367313Y-54847075D01*
X140255388Y-54709501D01*
X140040429Y-54508743D01*
X140015872Y-54491409D01*
X140665493Y-53841788D01*
X140656943Y-53871840D01*
G37*
%TD.AperFunction*%
%TA.AperFunction,Conductor*%
G36*
X138702442Y-50600595D02*
G01*
X138941403Y-50609984D01*
X139139935Y-50618196D01*
X139149361Y-50618948D01*
X139380116Y-50646260D01*
X139406583Y-50649559D01*
X139588136Y-50672189D01*
X139596923Y-50673609D01*
X139823141Y-50718607D01*
X140030472Y-50762081D01*
X140038608Y-50764079D01*
X140259963Y-50826507D01*
X140464109Y-50887284D01*
X140471572Y-50889770D01*
X140560724Y-50922660D01*
X140687115Y-50969289D01*
X140748392Y-50993198D01*
X140886219Y-51046979D01*
X140892975Y-51049851D01*
X141100330Y-51145443D01*
X141102807Y-51146619D01*
X141294072Y-51240123D01*
X141300156Y-51243310D01*
X141499139Y-51354746D01*
X141502012Y-51356406D01*
X141685041Y-51465468D01*
X141690412Y-51468859D01*
X141879956Y-51595508D01*
X141883066Y-51597658D01*
X142056574Y-51721540D01*
X142061211Y-51725019D01*
X142240216Y-51866136D01*
X142243539Y-51868852D01*
X142337103Y-51948097D01*
X142406203Y-52006622D01*
X142410233Y-52010188D01*
X142577548Y-52164852D01*
X142581058Y-52168227D01*
X142731771Y-52318940D01*
X142735146Y-52322450D01*
X142889810Y-52489765D01*
X142893376Y-52493795D01*
X143031126Y-52656435D01*
X143033873Y-52659796D01*
X143174969Y-52838775D01*
X143178469Y-52843439D01*
X143266116Y-52966196D01*
X143302323Y-53016907D01*
X143304508Y-53020069D01*
X143414443Y-53184599D01*
X143431124Y-53209563D01*
X143434545Y-53214981D01*
X143543585Y-53397975D01*
X143545252Y-53400859D01*
X143656680Y-53599828D01*
X143659891Y-53605957D01*
X143753354Y-53797139D01*
X143754563Y-53799685D01*
X143850133Y-54006992D01*
X143853040Y-54013831D01*
X143930711Y-54212884D01*
X144010233Y-54428436D01*
X144012726Y-54435927D01*
X144024418Y-54475200D01*
X144073501Y-54640069D01*
X144135909Y-54861353D01*
X144137924Y-54869558D01*
X144181407Y-55076936D01*
X144226383Y-55303044D01*
X144227813Y-55311893D01*
X144253740Y-55519883D01*
X144281051Y-55750638D01*
X144281804Y-55760087D01*
X144290016Y-55958627D01*
X144299404Y-56197556D01*
X144299500Y-56202424D01*
X144299500Y-65200826D01*
X144279815Y-65267865D01*
X144227011Y-65313620D01*
X144157853Y-65323564D01*
X144094297Y-65294539D01*
X144056523Y-65235761D01*
X144052930Y-65219603D01*
X144050037Y-65200720D01*
X143983253Y-65020397D01*
X143983252Y-65020395D01*
X143881534Y-64857204D01*
X143749049Y-64717829D01*
X143591219Y-64607977D01*
X143414508Y-64532144D01*
X143226148Y-64493435D01*
X142422050Y-64493435D01*
X142418939Y-64493751D01*
X142418926Y-64493752D01*
X142278690Y-64508013D01*
X142095213Y-64565580D01*
X141927080Y-64658900D01*
X141781173Y-64784157D01*
X141663469Y-64936217D01*
X141578783Y-65108863D01*
X141578783Y-65108864D01*
X141537615Y-65267865D01*
X141530583Y-65295023D01*
X141520844Y-65487072D01*
X141549962Y-65677149D01*
X141616746Y-65857472D01*
X141616748Y-65857475D01*
X141718466Y-66020666D01*
X141850951Y-66160041D01*
X142008781Y-66269893D01*
X142185492Y-66345726D01*
X142373852Y-66384435D01*
X142373853Y-66384435D01*
X143174808Y-66384435D01*
X143177950Y-66384435D01*
X143321309Y-66369857D01*
X143504786Y-66312290D01*
X143672920Y-66218969D01*
X143818826Y-66093713D01*
X143935877Y-65942495D01*
X143936530Y-65941652D01*
X143956716Y-65900500D01*
X144021217Y-65769006D01*
X144055459Y-65636756D01*
X144091318Y-65576793D01*
X144153905Y-65545734D01*
X144223348Y-65553443D01*
X144277600Y-65597471D01*
X144299436Y-65663841D01*
X144299500Y-65667839D01*
X144299500Y-72200826D01*
X144279815Y-72267865D01*
X144227011Y-72313620D01*
X144157853Y-72323564D01*
X144094297Y-72294539D01*
X144056523Y-72235761D01*
X144052930Y-72219603D01*
X144050037Y-72200720D01*
X143983253Y-72020397D01*
X143950459Y-71967784D01*
X143881534Y-71857204D01*
X143749049Y-71717829D01*
X143591219Y-71607977D01*
X143414508Y-71532144D01*
X143226148Y-71493435D01*
X142422050Y-71493435D01*
X142418939Y-71493751D01*
X142418926Y-71493752D01*
X142278690Y-71508013D01*
X142095213Y-71565580D01*
X141927080Y-71658900D01*
X141781173Y-71784157D01*
X141663469Y-71936217D01*
X141578783Y-72108863D01*
X141555000Y-72200720D01*
X141530583Y-72295022D01*
X141525260Y-72400000D01*
X141520844Y-72487072D01*
X141549962Y-72677149D01*
X141616746Y-72857472D01*
X141616748Y-72857475D01*
X141718466Y-73020666D01*
X141850951Y-73160041D01*
X142008781Y-73269893D01*
X142185492Y-73345726D01*
X142373852Y-73384435D01*
X142373853Y-73384435D01*
X143174808Y-73384435D01*
X143177950Y-73384435D01*
X143321309Y-73369857D01*
X143504786Y-73312290D01*
X143672920Y-73218969D01*
X143818826Y-73093713D01*
X143887735Y-73004689D01*
X143936530Y-72941652D01*
X143941159Y-72932216D01*
X144021217Y-72769006D01*
X144055459Y-72636756D01*
X144091318Y-72576793D01*
X144153905Y-72545734D01*
X144223348Y-72553443D01*
X144277600Y-72597471D01*
X144299436Y-72663841D01*
X144299500Y-72667839D01*
X144299500Y-96197575D01*
X144299404Y-96202443D01*
X144290016Y-96441372D01*
X144281804Y-96639911D01*
X144281051Y-96649360D01*
X144253740Y-96880115D01*
X144227814Y-97088103D01*
X144226383Y-97096954D01*
X144181407Y-97323063D01*
X144137925Y-97530439D01*
X144135909Y-97538646D01*
X144073501Y-97759929D01*
X144012731Y-97964057D01*
X144010224Y-97971587D01*
X143930711Y-98187115D01*
X143853039Y-98386172D01*
X143850136Y-98393000D01*
X143754563Y-98600313D01*
X143753354Y-98602859D01*
X143659891Y-98794041D01*
X143656680Y-98800170D01*
X143545252Y-98999139D01*
X143543585Y-99002023D01*
X143434545Y-99185017D01*
X143431124Y-99190435D01*
X143304508Y-99379929D01*
X143302323Y-99383091D01*
X143178488Y-99556534D01*
X143174950Y-99561249D01*
X143033883Y-99740190D01*
X143031126Y-99743563D01*
X142893376Y-99906203D01*
X142889810Y-99910233D01*
X142735146Y-100077548D01*
X142731771Y-100081058D01*
X142581058Y-100231771D01*
X142577548Y-100235146D01*
X142410233Y-100389810D01*
X142406203Y-100393376D01*
X142243563Y-100531126D01*
X142240190Y-100533883D01*
X142061249Y-100674950D01*
X142056534Y-100678488D01*
X141883091Y-100802323D01*
X141879929Y-100804508D01*
X141690435Y-100931124D01*
X141685017Y-100934545D01*
X141502023Y-101043585D01*
X141499139Y-101045252D01*
X141300170Y-101156680D01*
X141294041Y-101159891D01*
X141102859Y-101253354D01*
X141100313Y-101254563D01*
X140893006Y-101350133D01*
X140886167Y-101353040D01*
X140687115Y-101430711D01*
X140506584Y-101497313D01*
X140471589Y-101510224D01*
X140471586Y-101510225D01*
X140464059Y-101512730D01*
X140259930Y-101573501D01*
X140038644Y-101635909D01*
X140030440Y-101637924D01*
X139823063Y-101681407D01*
X139596954Y-101726383D01*
X139588105Y-101727813D01*
X139380116Y-101753740D01*
X139149360Y-101781051D01*
X139139912Y-101781804D01*
X138941373Y-101790016D01*
X138702443Y-101799404D01*
X138697575Y-101799500D01*
X93602425Y-101799500D01*
X93597557Y-101799404D01*
X93358627Y-101790016D01*
X93160087Y-101781804D01*
X93150638Y-101781051D01*
X92919884Y-101753740D01*
X92711896Y-101727814D01*
X92703044Y-101726383D01*
X92476936Y-101681407D01*
X92269559Y-101637925D01*
X92261351Y-101635909D01*
X92040069Y-101573501D01*
X91955669Y-101548374D01*
X91835927Y-101512726D01*
X91828414Y-101510225D01*
X91687924Y-101458395D01*
X91612884Y-101430711D01*
X91524396Y-101396183D01*
X91413813Y-101353033D01*
X91406998Y-101350136D01*
X91199685Y-101254563D01*
X91197139Y-101253354D01*
X91005957Y-101159891D01*
X90999828Y-101156680D01*
X90800859Y-101045252D01*
X90797975Y-101043585D01*
X90614981Y-100934545D01*
X90609563Y-100931124D01*
X90420069Y-100804508D01*
X90416907Y-100802323D01*
X90344789Y-100750832D01*
X90243439Y-100678469D01*
X90238775Y-100674969D01*
X90059796Y-100533873D01*
X90056435Y-100531126D01*
X89893795Y-100393376D01*
X89889765Y-100389810D01*
X89722450Y-100235146D01*
X89718940Y-100231771D01*
X89568227Y-100081058D01*
X89564852Y-100077548D01*
X89410188Y-99910233D01*
X89406622Y-99906203D01*
X89359515Y-99850585D01*
X89268852Y-99743539D01*
X89266136Y-99740216D01*
X89125019Y-99561211D01*
X89121540Y-99556574D01*
X88997658Y-99383066D01*
X88995508Y-99379956D01*
X88868859Y-99190412D01*
X88865468Y-99185041D01*
X88756406Y-99002012D01*
X88754746Y-98999139D01*
X88643318Y-98800170D01*
X88640123Y-98794072D01*
X88546619Y-98602807D01*
X88545435Y-98600313D01*
X88494118Y-98488998D01*
X88449857Y-98392988D01*
X88446966Y-98386186D01*
X88369283Y-98187102D01*
X88289753Y-97971526D01*
X88287285Y-97964110D01*
X88226498Y-97759929D01*
X88164083Y-97538621D01*
X88162074Y-97530439D01*
X88158028Y-97511144D01*
X88118592Y-97323062D01*
X88111058Y-97285185D01*
X88073610Y-97096927D01*
X88072187Y-97088118D01*
X88046259Y-96880111D01*
X88018944Y-96649334D01*
X88018196Y-96639937D01*
X88009977Y-96441221D01*
X88009925Y-96439903D01*
X88000596Y-96202443D01*
X88000500Y-96197575D01*
X88000500Y-96183202D01*
X88806124Y-96183202D01*
X88825218Y-96608343D01*
X88825715Y-96613871D01*
X88882842Y-97035596D01*
X88883836Y-97041073D01*
X88978535Y-97455976D01*
X88980011Y-97461324D01*
X89111516Y-97866056D01*
X89113482Y-97871295D01*
X89280731Y-98262591D01*
X89283148Y-98267612D01*
X89484813Y-98642368D01*
X89487665Y-98647141D01*
X89722105Y-99002304D01*
X89725378Y-99006810D01*
X89990717Y-99339533D01*
X89994381Y-99343727D01*
X90043061Y-99394641D01*
X91035073Y-98402628D01*
X91026524Y-98432678D01*
X91036873Y-98544359D01*
X91086867Y-98644760D01*
X91169753Y-98720322D01*
X91274339Y-98760838D01*
X91358221Y-98760838D01*
X91389891Y-98754917D01*
X90397715Y-99747094D01*
X90612978Y-99935164D01*
X90617320Y-99938627D01*
X90961613Y-100188770D01*
X90966250Y-100191831D01*
X91331601Y-100410119D01*
X91336472Y-100412740D01*
X91719903Y-100597390D01*
X91725030Y-100599582D01*
X92123450Y-100749111D01*
X92128748Y-100750832D01*
X92538971Y-100864047D01*
X92544406Y-100865288D01*
X92963128Y-100941274D01*
X92968638Y-100942021D01*
X93392506Y-100980170D01*
X93398047Y-100980419D01*
X93823629Y-100980419D01*
X93829169Y-100980170D01*
X94253037Y-100942021D01*
X94258547Y-100941274D01*
X94677269Y-100865288D01*
X94682704Y-100864047D01*
X95092927Y-100750832D01*
X95098225Y-100749111D01*
X95496645Y-100599582D01*
X95501772Y-100597390D01*
X95885203Y-100412740D01*
X95890074Y-100410119D01*
X96255425Y-100191831D01*
X96260062Y-100188770D01*
X96604343Y-99938635D01*
X96608715Y-99935149D01*
X96823959Y-99747095D01*
X96823959Y-99747094D01*
X95837703Y-98760838D01*
X95919059Y-98760838D01*
X96001507Y-98745426D01*
X96096867Y-98686381D01*
X96164458Y-98596876D01*
X96195152Y-98488998D01*
X96187204Y-98403232D01*
X97178613Y-99394641D01*
X97178614Y-99394641D01*
X97227295Y-99343726D01*
X97230957Y-99339534D01*
X97496297Y-99006810D01*
X97499570Y-99002304D01*
X97734010Y-98647141D01*
X97736862Y-98642368D01*
X97938527Y-98267612D01*
X97940944Y-98262591D01*
X98108193Y-97871295D01*
X98110159Y-97866056D01*
X98241664Y-97461324D01*
X98243140Y-97455976D01*
X98337839Y-97041073D01*
X98338833Y-97035596D01*
X98356305Y-96906616D01*
X107424500Y-96906616D01*
X107424754Y-96909420D01*
X107424755Y-96909424D01*
X107430913Y-96977193D01*
X107430914Y-96977196D01*
X107481522Y-97139606D01*
X107507102Y-97181920D01*
X107569528Y-97285186D01*
X107689813Y-97405471D01*
X107689815Y-97405472D01*
X107835394Y-97493478D01*
X107997804Y-97544086D01*
X108068384Y-97550500D01*
X108071203Y-97550500D01*
X108578797Y-97550500D01*
X108581616Y-97550500D01*
X108652196Y-97544086D01*
X108814606Y-97493478D01*
X108956669Y-97407596D01*
X109024221Y-97389761D01*
X109090695Y-97411278D01*
X109093701Y-97413394D01*
X109122270Y-97434151D01*
X109122271Y-97434151D01*
X109122272Y-97434152D01*
X109295197Y-97511144D01*
X109480352Y-97550500D01*
X109480354Y-97550500D01*
X109669648Y-97550500D01*
X109827417Y-97516965D01*
X109854803Y-97511144D01*
X110027730Y-97434151D01*
X110127115Y-97361943D01*
X110192921Y-97338464D01*
X110260974Y-97354289D01*
X110272878Y-97361939D01*
X110372270Y-97434151D01*
X110372271Y-97434151D01*
X110372272Y-97434152D01*
X110545197Y-97511144D01*
X110730352Y-97550500D01*
X110730354Y-97550500D01*
X110919648Y-97550500D01*
X111077417Y-97516965D01*
X111104803Y-97511144D01*
X111174193Y-97480248D01*
X111277727Y-97434153D01*
X111277730Y-97434151D01*
X111377541Y-97361634D01*
X111443345Y-97338155D01*
X111511399Y-97353980D01*
X111523311Y-97361635D01*
X111622521Y-97433716D01*
X111795352Y-97510664D01*
X111824999Y-97516965D01*
X111825000Y-96650000D01*
X111824999Y-96424622D01*
X111839505Y-96497545D01*
X111894760Y-96580240D01*
X111977455Y-96635495D01*
X112050376Y-96650000D01*
X112099624Y-96650000D01*
X112324999Y-96650000D01*
X112324999Y-97516965D01*
X112354645Y-97510664D01*
X112527478Y-97433716D01*
X112680535Y-97322513D01*
X112807126Y-97181920D01*
X112901719Y-97018079D01*
X112960181Y-96838152D01*
X112974661Y-96700383D01*
X112975000Y-96693922D01*
X112975000Y-96650000D01*
X112324999Y-96650000D01*
X112099624Y-96650000D01*
X112172545Y-96635495D01*
X112255240Y-96580240D01*
X112310495Y-96497545D01*
X112329898Y-96400000D01*
X112310495Y-96302455D01*
X112255240Y-96219760D01*
X112172545Y-96164505D01*
X112099624Y-96150000D01*
X112050376Y-96150000D01*
X111977455Y-96164505D01*
X111894760Y-96219760D01*
X111839505Y-96302455D01*
X111824999Y-96375377D01*
X111824999Y-95283033D01*
X111795353Y-95289335D01*
X111622518Y-95366285D01*
X111523310Y-95438364D01*
X111457504Y-95461844D01*
X111389450Y-95446018D01*
X111377540Y-95438364D01*
X111277730Y-95365848D01*
X111104802Y-95288855D01*
X111077406Y-95283032D01*
X112324999Y-95283032D01*
X112324999Y-96149999D01*
X112325001Y-96150000D01*
X112975000Y-96150000D01*
X112975000Y-96106077D01*
X112974661Y-96099616D01*
X112960181Y-95961847D01*
X112901719Y-95781920D01*
X112807126Y-95618079D01*
X112790847Y-95600000D01*
X120494540Y-95600000D01*
X120514326Y-95788257D01*
X120572820Y-95968284D01*
X120667466Y-96132216D01*
X120794129Y-96272889D01*
X120947269Y-96384151D01*
X121120197Y-96461144D01*
X121305352Y-96500500D01*
X121305354Y-96500500D01*
X121494648Y-96500500D01*
X121618083Y-96474262D01*
X121679803Y-96461144D01*
X121852730Y-96384151D01*
X121945903Y-96316457D01*
X122005870Y-96272889D01*
X122089133Y-96180417D01*
X122132533Y-96132216D01*
X122152924Y-96096898D01*
X122192613Y-96028155D01*
X122243180Y-95979939D01*
X122311787Y-95966716D01*
X122376652Y-95992684D01*
X122407387Y-96028155D01*
X122467466Y-96132216D01*
X122594129Y-96272889D01*
X122747269Y-96384151D01*
X122920197Y-96461144D01*
X123105352Y-96500500D01*
X123105354Y-96500500D01*
X123294648Y-96500500D01*
X123418083Y-96474262D01*
X123479803Y-96461144D01*
X123652730Y-96384151D01*
X123745903Y-96316457D01*
X123805870Y-96272889D01*
X123886625Y-96183202D01*
X133875706Y-96183202D01*
X133894799Y-96608343D01*
X133895296Y-96613871D01*
X133952423Y-97035596D01*
X133953417Y-97041073D01*
X134048116Y-97455976D01*
X134049592Y-97461324D01*
X134181097Y-97866056D01*
X134183063Y-97871295D01*
X134350312Y-98262591D01*
X134352729Y-98267612D01*
X134554394Y-98642368D01*
X134557246Y-98647141D01*
X134791686Y-99002304D01*
X134794959Y-99006810D01*
X135060298Y-99339533D01*
X135063962Y-99343727D01*
X135112642Y-99394641D01*
X136104654Y-98402628D01*
X136096105Y-98432678D01*
X136106454Y-98544359D01*
X136156448Y-98644760D01*
X136239334Y-98720322D01*
X136343920Y-98760838D01*
X136427802Y-98760838D01*
X136459472Y-98754917D01*
X135467296Y-99747094D01*
X135682559Y-99935164D01*
X135686901Y-99938627D01*
X136031194Y-100188770D01*
X136035831Y-100191831D01*
X136401182Y-100410119D01*
X136406053Y-100412740D01*
X136789484Y-100597390D01*
X136794611Y-100599582D01*
X137193031Y-100749111D01*
X137198329Y-100750832D01*
X137608552Y-100864047D01*
X137613987Y-100865288D01*
X138032709Y-100941274D01*
X138038219Y-100942021D01*
X138462087Y-100980170D01*
X138467628Y-100980419D01*
X138893210Y-100980419D01*
X138898750Y-100980170D01*
X139322618Y-100942021D01*
X139328128Y-100941274D01*
X139746850Y-100865288D01*
X139752285Y-100864047D01*
X140162508Y-100750832D01*
X140167806Y-100749111D01*
X140566226Y-100599582D01*
X140571353Y-100597390D01*
X140954784Y-100412740D01*
X140959655Y-100410119D01*
X141325006Y-100191831D01*
X141329643Y-100188770D01*
X141673924Y-99938635D01*
X141678296Y-99935149D01*
X141893540Y-99747095D01*
X141893540Y-99747094D01*
X140907284Y-98760838D01*
X140988640Y-98760838D01*
X141071088Y-98745426D01*
X141166448Y-98686381D01*
X141234039Y-98596876D01*
X141264733Y-98488998D01*
X141256785Y-98403231D01*
X142248194Y-99394640D01*
X142296886Y-99343714D01*
X142300538Y-99339534D01*
X142565878Y-99006810D01*
X142569151Y-99002304D01*
X142803591Y-98647141D01*
X142806443Y-98642368D01*
X143008108Y-98267612D01*
X143010525Y-98262591D01*
X143177774Y-97871295D01*
X143179740Y-97866056D01*
X143311245Y-97461324D01*
X143312721Y-97455976D01*
X143407420Y-97041073D01*
X143408414Y-97035596D01*
X143465541Y-96613871D01*
X143466038Y-96608343D01*
X143485132Y-96183202D01*
X143485132Y-96177635D01*
X143466038Y-95752494D01*
X143465541Y-95746966D01*
X143408414Y-95325241D01*
X143407420Y-95319764D01*
X143312721Y-94904861D01*
X143311245Y-94899513D01*
X143179740Y-94494781D01*
X143177774Y-94489542D01*
X143010525Y-94098246D01*
X143008108Y-94093225D01*
X142806443Y-93718469D01*
X142803591Y-93713696D01*
X142569151Y-93358533D01*
X142565878Y-93354027D01*
X142300539Y-93021304D01*
X142296875Y-93017110D01*
X142248194Y-92966195D01*
X141256184Y-93958204D01*
X141264733Y-93928160D01*
X141254384Y-93816479D01*
X141204390Y-93716078D01*
X141121504Y-93640516D01*
X141016918Y-93600000D01*
X140933036Y-93600000D01*
X140901360Y-93605921D01*
X141893540Y-92613742D01*
X141678278Y-92425673D01*
X141673936Y-92422210D01*
X141329643Y-92172067D01*
X141325006Y-92169006D01*
X140959655Y-91950718D01*
X140954784Y-91948097D01*
X140571353Y-91763447D01*
X140566226Y-91761255D01*
X140167806Y-91611726D01*
X140162508Y-91610005D01*
X139752285Y-91496790D01*
X139746850Y-91495549D01*
X139328128Y-91419563D01*
X139322618Y-91418816D01*
X138898750Y-91380667D01*
X138893210Y-91380419D01*
X138467628Y-91380419D01*
X138462087Y-91380667D01*
X138038219Y-91418816D01*
X138032709Y-91419563D01*
X137613987Y-91495549D01*
X137608552Y-91496790D01*
X137198329Y-91610005D01*
X137193031Y-91611726D01*
X136794611Y-91761255D01*
X136789484Y-91763447D01*
X136406053Y-91948097D01*
X136401182Y-91950718D01*
X136035831Y-92169006D01*
X136031194Y-92172067D01*
X135686901Y-92422210D01*
X135682559Y-92425673D01*
X135467296Y-92613741D01*
X135467296Y-92613742D01*
X136453554Y-93600000D01*
X136372198Y-93600000D01*
X136289750Y-93615412D01*
X136194390Y-93674457D01*
X136126799Y-93763962D01*
X136096105Y-93871840D01*
X136104052Y-93957605D01*
X135112643Y-92966196D01*
X135112642Y-92966196D01*
X135063962Y-93017111D01*
X135060293Y-93021310D01*
X134794959Y-93354027D01*
X134791686Y-93358533D01*
X134557246Y-93713696D01*
X134554394Y-93718469D01*
X134352729Y-94093225D01*
X134350312Y-94098246D01*
X134183063Y-94489542D01*
X134181097Y-94494781D01*
X134049592Y-94899513D01*
X134048116Y-94904861D01*
X133953417Y-95319764D01*
X133952423Y-95325241D01*
X133895296Y-95746966D01*
X133894799Y-95752494D01*
X133875706Y-96177635D01*
X133875706Y-96183202D01*
X123886625Y-96183202D01*
X123889133Y-96180417D01*
X123932533Y-96132216D01*
X124027179Y-95968284D01*
X124085674Y-95788256D01*
X124105460Y-95600000D01*
X124085674Y-95411744D01*
X124043853Y-95283032D01*
X124027179Y-95231715D01*
X123932533Y-95067783D01*
X123805870Y-94927110D01*
X123652730Y-94815848D01*
X123479802Y-94738855D01*
X123294648Y-94699500D01*
X123294646Y-94699500D01*
X123105354Y-94699500D01*
X123105352Y-94699500D01*
X122920197Y-94738855D01*
X122747269Y-94815848D01*
X122594129Y-94927110D01*
X122467466Y-95067784D01*
X122407387Y-95171844D01*
X122356820Y-95220060D01*
X122288213Y-95233282D01*
X122223348Y-95207314D01*
X122192613Y-95171844D01*
X122132533Y-95067784D01*
X122005870Y-94927110D01*
X121852730Y-94815848D01*
X121679802Y-94738855D01*
X121494648Y-94699500D01*
X121494646Y-94699500D01*
X121305354Y-94699500D01*
X121305352Y-94699500D01*
X121120197Y-94738855D01*
X120947269Y-94815848D01*
X120794129Y-94927110D01*
X120667466Y-95067783D01*
X120572820Y-95231715D01*
X120514326Y-95411742D01*
X120494540Y-95600000D01*
X112790847Y-95600000D01*
X112680532Y-95477484D01*
X112527482Y-95366285D01*
X112354645Y-95289333D01*
X112324999Y-95283032D01*
X111077406Y-95283032D01*
X110919648Y-95249500D01*
X110919646Y-95249500D01*
X110730354Y-95249500D01*
X110730352Y-95249500D01*
X110545197Y-95288855D01*
X110372269Y-95365848D01*
X110272885Y-95438055D01*
X110207079Y-95461535D01*
X110139025Y-95445709D01*
X110127115Y-95438055D01*
X110027730Y-95365848D01*
X109854802Y-95288855D01*
X109669648Y-95249500D01*
X109669646Y-95249500D01*
X109480354Y-95249500D01*
X109480352Y-95249500D01*
X109295197Y-95288855D01*
X109122268Y-95365849D01*
X109093700Y-95386604D01*
X109027893Y-95410082D01*
X108959840Y-95394255D01*
X108956668Y-95392401D01*
X108836511Y-95319764D01*
X108814606Y-95306522D01*
X108652196Y-95255914D01*
X108652193Y-95255913D01*
X108584424Y-95249755D01*
X108584420Y-95249754D01*
X108581616Y-95249500D01*
X108068384Y-95249500D01*
X108065580Y-95249754D01*
X108065575Y-95249755D01*
X107997806Y-95255913D01*
X107916598Y-95281217D01*
X107835394Y-95306522D01*
X107835392Y-95306522D01*
X107835392Y-95306523D01*
X107689813Y-95394528D01*
X107569528Y-95514813D01*
X107481523Y-95660392D01*
X107430913Y-95822806D01*
X107425678Y-95880419D01*
X107424500Y-95893384D01*
X107424500Y-96906616D01*
X98356305Y-96906616D01*
X98395960Y-96613871D01*
X98396457Y-96608343D01*
X98415551Y-96183202D01*
X98415551Y-96177635D01*
X98396457Y-95752494D01*
X98395960Y-95746966D01*
X98338833Y-95325241D01*
X98337839Y-95319764D01*
X98243140Y-94904861D01*
X98241664Y-94899513D01*
X98110159Y-94494781D01*
X98108193Y-94489542D01*
X97940944Y-94098246D01*
X97938527Y-94093225D01*
X97736862Y-93718469D01*
X97734010Y-93713696D01*
X97499570Y-93358533D01*
X97496297Y-93354027D01*
X97230958Y-93021304D01*
X97227294Y-93017110D01*
X97178613Y-92966195D01*
X96186603Y-93958204D01*
X96195152Y-93928160D01*
X96184803Y-93816479D01*
X96134809Y-93716078D01*
X96051923Y-93640516D01*
X95947337Y-93600000D01*
X95863455Y-93600000D01*
X95831779Y-93605921D01*
X96537701Y-92900000D01*
X120494540Y-92900000D01*
X120514326Y-93088257D01*
X120572820Y-93268284D01*
X120667466Y-93432216D01*
X120794129Y-93572889D01*
X120947269Y-93684151D01*
X121120197Y-93761144D01*
X121305352Y-93800500D01*
X121305354Y-93800500D01*
X121494648Y-93800500D01*
X121618084Y-93774262D01*
X121679803Y-93761144D01*
X121852730Y-93684151D01*
X121912789Y-93640516D01*
X122005870Y-93572889D01*
X122132533Y-93432216D01*
X122192613Y-93328155D01*
X122243180Y-93279939D01*
X122311787Y-93266716D01*
X122376652Y-93292684D01*
X122407387Y-93328155D01*
X122467466Y-93432216D01*
X122594129Y-93572889D01*
X122747269Y-93684151D01*
X122920197Y-93761144D01*
X123105352Y-93800500D01*
X123105354Y-93800500D01*
X123294648Y-93800500D01*
X123418083Y-93774262D01*
X123479803Y-93761144D01*
X123652730Y-93684151D01*
X123712789Y-93640516D01*
X123805870Y-93572889D01*
X123932533Y-93432216D01*
X124027179Y-93268284D01*
X124036367Y-93240007D01*
X124085674Y-93088256D01*
X124105460Y-92900000D01*
X124085674Y-92711744D01*
X124027179Y-92531716D01*
X124027179Y-92531715D01*
X123932533Y-92367783D01*
X123805870Y-92227110D01*
X123652730Y-92115848D01*
X123479802Y-92038855D01*
X123294648Y-91999500D01*
X123294646Y-91999500D01*
X123105354Y-91999500D01*
X123105352Y-91999500D01*
X122920197Y-92038855D01*
X122747269Y-92115848D01*
X122594129Y-92227110D01*
X122467466Y-92367784D01*
X122407387Y-92471844D01*
X122356820Y-92520060D01*
X122288213Y-92533282D01*
X122223348Y-92507314D01*
X122192613Y-92471844D01*
X122132533Y-92367784D01*
X122005870Y-92227110D01*
X121852730Y-92115848D01*
X121679802Y-92038855D01*
X121494648Y-91999500D01*
X121494646Y-91999500D01*
X121305354Y-91999500D01*
X121305352Y-91999500D01*
X121120197Y-92038855D01*
X120947269Y-92115848D01*
X120794129Y-92227110D01*
X120667466Y-92367783D01*
X120572820Y-92531715D01*
X120514326Y-92711742D01*
X120494540Y-92900000D01*
X96537701Y-92900000D01*
X96823959Y-92613742D01*
X96608697Y-92425673D01*
X96604355Y-92422210D01*
X96260062Y-92172067D01*
X96255425Y-92169006D01*
X95890074Y-91950718D01*
X95885203Y-91948097D01*
X95501772Y-91763447D01*
X95496645Y-91761255D01*
X95098225Y-91611726D01*
X95092927Y-91610005D01*
X94682704Y-91496790D01*
X94677269Y-91495549D01*
X94258547Y-91419563D01*
X94253037Y-91418816D01*
X93829169Y-91380667D01*
X93823629Y-91380419D01*
X93398047Y-91380419D01*
X93392506Y-91380667D01*
X92968638Y-91418816D01*
X92963128Y-91419563D01*
X92544406Y-91495549D01*
X92538971Y-91496790D01*
X92128748Y-91610005D01*
X92123450Y-91611726D01*
X91725030Y-91761255D01*
X91719903Y-91763447D01*
X91336472Y-91948097D01*
X91331601Y-91950718D01*
X90966250Y-92169006D01*
X90961613Y-92172067D01*
X90617320Y-92422210D01*
X90612978Y-92425673D01*
X90397715Y-92613741D01*
X90397715Y-92613742D01*
X91383973Y-93600000D01*
X91302617Y-93600000D01*
X91220169Y-93615412D01*
X91124809Y-93674457D01*
X91057218Y-93763962D01*
X91026524Y-93871840D01*
X91034471Y-93957606D01*
X90043061Y-92966196D01*
X89994381Y-93017111D01*
X89990712Y-93021310D01*
X89725378Y-93354027D01*
X89722105Y-93358533D01*
X89487665Y-93713696D01*
X89484813Y-93718469D01*
X89283148Y-94093225D01*
X89280731Y-94098246D01*
X89113482Y-94489542D01*
X89111516Y-94494781D01*
X88980011Y-94899513D01*
X88978535Y-94904861D01*
X88883836Y-95319764D01*
X88882842Y-95325241D01*
X88825715Y-95746966D01*
X88825218Y-95752494D01*
X88806124Y-96177635D01*
X88806124Y-96183202D01*
X88000500Y-96183202D01*
X88000500Y-89799999D01*
X118694540Y-89799999D01*
X118714326Y-89988257D01*
X118772820Y-90168284D01*
X118867466Y-90332216D01*
X118994129Y-90472889D01*
X119147269Y-90584151D01*
X119320197Y-90661144D01*
X119505352Y-90700500D01*
X119505354Y-90700500D01*
X119694648Y-90700500D01*
X119824551Y-90672888D01*
X119879803Y-90661144D01*
X120052730Y-90584151D01*
X120205871Y-90472888D01*
X120332533Y-90332216D01*
X120427179Y-90168284D01*
X120485674Y-89988256D01*
X120505460Y-89800000D01*
X120505460Y-89799999D01*
X122094540Y-89799999D01*
X122114326Y-89988257D01*
X122172820Y-90168284D01*
X122267466Y-90332216D01*
X122394129Y-90472889D01*
X122547269Y-90584151D01*
X122720197Y-90661144D01*
X122905352Y-90700500D01*
X122905354Y-90700500D01*
X123094648Y-90700500D01*
X123224551Y-90672888D01*
X123279803Y-90661144D01*
X123452730Y-90584151D01*
X123605871Y-90472888D01*
X123732533Y-90332216D01*
X123827179Y-90168284D01*
X123881858Y-89999999D01*
X129094540Y-89999999D01*
X129114326Y-90188257D01*
X129172820Y-90368284D01*
X129267466Y-90532216D01*
X129394129Y-90672889D01*
X129547269Y-90784151D01*
X129720197Y-90861144D01*
X129849236Y-90888572D01*
X129910718Y-90921764D01*
X129941387Y-90971543D01*
X129972821Y-91068285D01*
X130067466Y-91232216D01*
X130194129Y-91372889D01*
X130347269Y-91484151D01*
X130520197Y-91561144D01*
X130705352Y-91600500D01*
X130705354Y-91600500D01*
X130894648Y-91600500D01*
X131018084Y-91574262D01*
X131079803Y-91561144D01*
X131252730Y-91484151D01*
X131395164Y-91380667D01*
X131405870Y-91372889D01*
X131532533Y-91232216D01*
X131627179Y-91068284D01*
X131658612Y-90971543D01*
X131685674Y-90888256D01*
X131705460Y-90700000D01*
X131685674Y-90511744D01*
X131639061Y-90368284D01*
X131627179Y-90331715D01*
X131532533Y-90167783D01*
X131405870Y-90027110D01*
X131252730Y-89915848D01*
X131079802Y-89838855D01*
X130950762Y-89811427D01*
X130889280Y-89778235D01*
X130858612Y-89728455D01*
X130827179Y-89631715D01*
X130732533Y-89467783D01*
X130605870Y-89327110D01*
X130452730Y-89215848D01*
X130279802Y-89138855D01*
X130094648Y-89099500D01*
X130094646Y-89099500D01*
X129905354Y-89099500D01*
X129905352Y-89099500D01*
X129720197Y-89138855D01*
X129547269Y-89215848D01*
X129394129Y-89327110D01*
X129267466Y-89467783D01*
X129172820Y-89631715D01*
X129114326Y-89811742D01*
X129094540Y-89999999D01*
X123881858Y-89999999D01*
X123885674Y-89988256D01*
X123905460Y-89800000D01*
X123885674Y-89611744D01*
X123827179Y-89431716D01*
X123827179Y-89431715D01*
X123732533Y-89267784D01*
X123701189Y-89232973D01*
X123670959Y-89169982D01*
X123679583Y-89100646D01*
X123701189Y-89067027D01*
X123706992Y-89060581D01*
X123732533Y-89032216D01*
X123827179Y-88868284D01*
X123885674Y-88688256D01*
X123905460Y-88500000D01*
X123885674Y-88311744D01*
X123827179Y-88131716D01*
X123827179Y-88131715D01*
X123732533Y-87967783D01*
X123605870Y-87827110D01*
X123452730Y-87715848D01*
X123279802Y-87638855D01*
X123094648Y-87599500D01*
X123094646Y-87599500D01*
X122905354Y-87599500D01*
X122905352Y-87599500D01*
X122720197Y-87638855D01*
X122547269Y-87715848D01*
X122394129Y-87827110D01*
X122267466Y-87967783D01*
X122172820Y-88131715D01*
X122114326Y-88311742D01*
X122094540Y-88499999D01*
X122114326Y-88688257D01*
X122172820Y-88868284D01*
X122267466Y-89032216D01*
X122298810Y-89067026D01*
X122329040Y-89130017D01*
X122320416Y-89199353D01*
X122298812Y-89232970D01*
X122267466Y-89267783D01*
X122172820Y-89431715D01*
X122114326Y-89611742D01*
X122094540Y-89799999D01*
X120505460Y-89799999D01*
X120485674Y-89611744D01*
X120427179Y-89431716D01*
X120427179Y-89431715D01*
X120332533Y-89267784D01*
X120301189Y-89232973D01*
X120270959Y-89169982D01*
X120279583Y-89100646D01*
X120301189Y-89067027D01*
X120306992Y-89060581D01*
X120332533Y-89032216D01*
X120427179Y-88868284D01*
X120485674Y-88688256D01*
X120505460Y-88500000D01*
X120485674Y-88311744D01*
X120427179Y-88131716D01*
X120427179Y-88131715D01*
X120332533Y-87967783D01*
X120205870Y-87827110D01*
X120052730Y-87715848D01*
X119879802Y-87638855D01*
X119694648Y-87599500D01*
X119694646Y-87599500D01*
X119505354Y-87599500D01*
X119505352Y-87599500D01*
X119320197Y-87638855D01*
X119147269Y-87715848D01*
X118994129Y-87827110D01*
X118867466Y-87967783D01*
X118772820Y-88131715D01*
X118714326Y-88311742D01*
X118694540Y-88499999D01*
X118714326Y-88688257D01*
X118772820Y-88868284D01*
X118867466Y-89032216D01*
X118898811Y-89067028D01*
X118929041Y-89130020D01*
X118920415Y-89199355D01*
X118898811Y-89232972D01*
X118867466Y-89267783D01*
X118772820Y-89431715D01*
X118714326Y-89611742D01*
X118694540Y-89799999D01*
X88000500Y-89799999D01*
X88000500Y-84000000D01*
X108094540Y-84000000D01*
X108114326Y-84188257D01*
X108172820Y-84368284D01*
X108267466Y-84532216D01*
X108394129Y-84672889D01*
X108547269Y-84784151D01*
X108720197Y-84861144D01*
X108905352Y-84900500D01*
X108905354Y-84900500D01*
X109094648Y-84900500D01*
X109218084Y-84874262D01*
X109279803Y-84861144D01*
X109452730Y-84784151D01*
X109605871Y-84672888D01*
X109732533Y-84532216D01*
X109827179Y-84368284D01*
X109885674Y-84188256D01*
X109905460Y-84000000D01*
X109885674Y-83811744D01*
X109827179Y-83631716D01*
X109827179Y-83631715D01*
X109732533Y-83467783D01*
X109605870Y-83327110D01*
X109452730Y-83215848D01*
X109279802Y-83138855D01*
X109094648Y-83099500D01*
X109094646Y-83099500D01*
X108905354Y-83099500D01*
X108905352Y-83099500D01*
X108720197Y-83138855D01*
X108547269Y-83215848D01*
X108394129Y-83327110D01*
X108267466Y-83467783D01*
X108172820Y-83631715D01*
X108114326Y-83811742D01*
X108094540Y-84000000D01*
X88000500Y-84000000D01*
X88000500Y-80800000D01*
X98394540Y-80800000D01*
X98414326Y-80988257D01*
X98472820Y-81168284D01*
X98567466Y-81332216D01*
X98694129Y-81472889D01*
X98847269Y-81584151D01*
X99020197Y-81661144D01*
X99205352Y-81700500D01*
X99205354Y-81700500D01*
X99394648Y-81700500D01*
X99397000Y-81700000D01*
X115594540Y-81700000D01*
X115614326Y-81888257D01*
X115672820Y-82068284D01*
X115767466Y-82232216D01*
X115894129Y-82372889D01*
X116047269Y-82484151D01*
X116220197Y-82561144D01*
X116405352Y-82600500D01*
X116405354Y-82600500D01*
X116594648Y-82600500D01*
X116718083Y-82574262D01*
X116779803Y-82561144D01*
X116952730Y-82484151D01*
X117105871Y-82372888D01*
X117232533Y-82232216D01*
X117327179Y-82068284D01*
X117385674Y-81888256D01*
X117405460Y-81700000D01*
X117385674Y-81511744D01*
X117333961Y-81352588D01*
X117327179Y-81331715D01*
X117232533Y-81167783D01*
X117126479Y-81049999D01*
X136995232Y-81049999D01*
X137014273Y-81304080D01*
X137070971Y-81552491D01*
X137164057Y-81789668D01*
X137291456Y-82010331D01*
X137333452Y-82062993D01*
X137333453Y-82062993D01*
X138137226Y-81259219D01*
X138175901Y-81352588D01*
X138272075Y-81477925D01*
X138397412Y-81574099D01*
X138490779Y-81612772D01*
X137686813Y-82416737D01*
X137847621Y-82526374D01*
X138029123Y-82613780D01*
X138080983Y-82660602D01*
X138099296Y-82728029D01*
X138078248Y-82794653D01*
X138024522Y-82839321D01*
X137975322Y-82849500D01*
X137455439Y-82849500D01*
X137455420Y-82849500D01*
X137452128Y-82849501D01*
X137448848Y-82849853D01*
X137448840Y-82849854D01*
X137392515Y-82855909D01*
X137257669Y-82906204D01*
X137142454Y-82992454D01*
X137056204Y-83107668D01*
X137005910Y-83242515D01*
X137005909Y-83242517D01*
X136999500Y-83302127D01*
X136999500Y-83305448D01*
X136999500Y-83305449D01*
X136999500Y-85794560D01*
X136999500Y-85794578D01*
X136999501Y-85797872D01*
X137005909Y-85857483D01*
X137056204Y-85992331D01*
X137142454Y-86107546D01*
X137257669Y-86193796D01*
X137392517Y-86244091D01*
X137452127Y-86250500D01*
X139947872Y-86250499D01*
X140007483Y-86244091D01*
X140142331Y-86193796D01*
X140257546Y-86107546D01*
X140343796Y-85992331D01*
X140394091Y-85857483D01*
X140400500Y-85797873D01*
X140400499Y-83302128D01*
X140394091Y-83242517D01*
X140343796Y-83107669D01*
X140257546Y-82992454D01*
X140142331Y-82906204D01*
X140007483Y-82855909D01*
X139947873Y-82849500D01*
X139944551Y-82849500D01*
X139424679Y-82849500D01*
X139357640Y-82829815D01*
X139311885Y-82777011D01*
X139301941Y-82707853D01*
X139330966Y-82644297D01*
X139370878Y-82613780D01*
X139552383Y-82526372D01*
X139713185Y-82416737D01*
X138909220Y-81612772D01*
X139002588Y-81574099D01*
X139127925Y-81477925D01*
X139224099Y-81352589D01*
X139262772Y-81259220D01*
X140066545Y-82062993D01*
X140066546Y-82062992D01*
X140108545Y-82010328D01*
X140235942Y-81789669D01*
X140329028Y-81552491D01*
X140385726Y-81304080D01*
X140404767Y-81049999D01*
X140385726Y-80795919D01*
X140329028Y-80547508D01*
X140235942Y-80310330D01*
X140108545Y-80089671D01*
X140066546Y-80037005D01*
X139262772Y-80840779D01*
X139224099Y-80747412D01*
X139127925Y-80622075D01*
X139002588Y-80525901D01*
X138909220Y-80487227D01*
X139713185Y-79683261D01*
X139552379Y-79573625D01*
X139322823Y-79463078D01*
X139079345Y-79387974D01*
X138827397Y-79350000D01*
X138572603Y-79350000D01*
X138320654Y-79387974D01*
X138077179Y-79463077D01*
X137847615Y-79573628D01*
X137686813Y-79683261D01*
X138490779Y-80487227D01*
X138397412Y-80525901D01*
X138272075Y-80622075D01*
X138175901Y-80747411D01*
X138137227Y-80840779D01*
X137333453Y-80037006D01*
X137291453Y-80089673D01*
X137164057Y-80310331D01*
X137070971Y-80547508D01*
X137014273Y-80795919D01*
X136995232Y-81049999D01*
X117126479Y-81049999D01*
X117105870Y-81027110D01*
X116952730Y-80915848D01*
X116779802Y-80838855D01*
X116594648Y-80799500D01*
X116594646Y-80799500D01*
X116405354Y-80799500D01*
X116405352Y-80799500D01*
X116220197Y-80838855D01*
X116047269Y-80915848D01*
X115894129Y-81027110D01*
X115767466Y-81167783D01*
X115672820Y-81331715D01*
X115614326Y-81511742D01*
X115594540Y-81700000D01*
X99397000Y-81700000D01*
X99518083Y-81674262D01*
X99579803Y-81661144D01*
X99752730Y-81584151D01*
X99766565Y-81574099D01*
X99905870Y-81472889D01*
X100032533Y-81332216D01*
X100127179Y-81168284D01*
X100127342Y-81167783D01*
X100185674Y-80988256D01*
X100205460Y-80800000D01*
X100185674Y-80611744D01*
X100127179Y-80431716D01*
X100127179Y-80431715D01*
X100032533Y-80267783D01*
X99905871Y-80127112D01*
X99868993Y-80100319D01*
X99826326Y-80044989D01*
X99820346Y-79975376D01*
X99852952Y-79913581D01*
X99868993Y-79899681D01*
X99905871Y-79872888D01*
X100032533Y-79732216D01*
X100127179Y-79568284D01*
X100185674Y-79388256D01*
X100205460Y-79200000D01*
X100185674Y-79011744D01*
X100127179Y-78831716D01*
X100127179Y-78831715D01*
X100032533Y-78667783D01*
X99905870Y-78527110D01*
X99752730Y-78415848D01*
X99579802Y-78338855D01*
X99394648Y-78299500D01*
X99394646Y-78299500D01*
X99205354Y-78299500D01*
X99205352Y-78299500D01*
X99020197Y-78338855D01*
X98847269Y-78415848D01*
X98694129Y-78527110D01*
X98567466Y-78667783D01*
X98472820Y-78831715D01*
X98414326Y-79011742D01*
X98394540Y-79200000D01*
X98414326Y-79388257D01*
X98472820Y-79568284D01*
X98567466Y-79732216D01*
X98694130Y-79872890D01*
X98731007Y-79899683D01*
X98773673Y-79955013D01*
X98779651Y-80024626D01*
X98747045Y-80086421D01*
X98731007Y-80100317D01*
X98694130Y-80127109D01*
X98567466Y-80267783D01*
X98472820Y-80431715D01*
X98414326Y-80611742D01*
X98394540Y-80800000D01*
X88000500Y-80800000D01*
X88000500Y-70200000D01*
X97500000Y-70200000D01*
X97500000Y-77900000D01*
X100300000Y-77900000D01*
X100300000Y-76624000D01*
X100319685Y-76556961D01*
X100372489Y-76511206D01*
X100424000Y-76500000D01*
X101200000Y-76500000D01*
X101200000Y-76224000D01*
X101219685Y-76156961D01*
X101272489Y-76111206D01*
X101324000Y-76100000D01*
X103599999Y-76100000D01*
X103600000Y-76100000D01*
X103600000Y-75324000D01*
X103619685Y-75256961D01*
X103672489Y-75211206D01*
X103724000Y-75200000D01*
X106100000Y-75200000D01*
X106100000Y-74000000D01*
X101124000Y-74000000D01*
X101056961Y-73980315D01*
X101011206Y-73927511D01*
X101000000Y-73876000D01*
X101000000Y-72400000D01*
X101394540Y-72400000D01*
X101414326Y-72588257D01*
X101472820Y-72768284D01*
X101567466Y-72932216D01*
X101694129Y-73072889D01*
X101847269Y-73184151D01*
X102020197Y-73261144D01*
X102205352Y-73300500D01*
X102205354Y-73300500D01*
X102394648Y-73300500D01*
X102538642Y-73269893D01*
X102579803Y-73261144D01*
X102752730Y-73184151D01*
X102905871Y-73072888D01*
X103032533Y-72932216D01*
X103127179Y-72768284D01*
X103185674Y-72588256D01*
X103194950Y-72500000D01*
X112794540Y-72500000D01*
X112814326Y-72688257D01*
X112872820Y-72868284D01*
X112967466Y-73032216D01*
X113094129Y-73172889D01*
X113247269Y-73284151D01*
X113420197Y-73361144D01*
X113605352Y-73400500D01*
X113605354Y-73400500D01*
X113794648Y-73400500D01*
X113938816Y-73369856D01*
X113979803Y-73361144D01*
X114152730Y-73284151D01*
X114305871Y-73172888D01*
X114432533Y-73032216D01*
X114527179Y-72868284D01*
X114585674Y-72688256D01*
X114605460Y-72500000D01*
X114585674Y-72311744D01*
X114532822Y-72149083D01*
X114527179Y-72131715D01*
X114432533Y-71967783D01*
X114305870Y-71827110D01*
X114152730Y-71715848D01*
X113979802Y-71638855D01*
X113794648Y-71599500D01*
X113794646Y-71599500D01*
X113605354Y-71599500D01*
X113605352Y-71599500D01*
X113420197Y-71638855D01*
X113247269Y-71715848D01*
X113094129Y-71827110D01*
X112967466Y-71967783D01*
X112872820Y-72131715D01*
X112814326Y-72311742D01*
X112794540Y-72500000D01*
X103194950Y-72500000D01*
X103205460Y-72400000D01*
X103185674Y-72211744D01*
X103127179Y-72031716D01*
X103127179Y-72031715D01*
X103032533Y-71867783D01*
X102905870Y-71727110D01*
X102752730Y-71615848D01*
X102579802Y-71538855D01*
X102394648Y-71499500D01*
X102394646Y-71499500D01*
X102205354Y-71499500D01*
X102205352Y-71499500D01*
X102020197Y-71538855D01*
X101847269Y-71615848D01*
X101694129Y-71727110D01*
X101567466Y-71867783D01*
X101472820Y-72031715D01*
X101414326Y-72211742D01*
X101394540Y-72400000D01*
X101000000Y-72400000D01*
X101000000Y-70999999D01*
X116794540Y-70999999D01*
X116814326Y-71188257D01*
X116872820Y-71368284D01*
X116967466Y-71532216D01*
X117094129Y-71672889D01*
X117247269Y-71784151D01*
X117420197Y-71861144D01*
X117605352Y-71900500D01*
X117605354Y-71900500D01*
X117794648Y-71900500D01*
X117918084Y-71874262D01*
X117979803Y-71861144D01*
X118152730Y-71784151D01*
X118246740Y-71715849D01*
X118305870Y-71672889D01*
X118336515Y-71638855D01*
X118336917Y-71638408D01*
X139124500Y-71638408D01*
X139124816Y-71641519D01*
X139124817Y-71641531D01*
X139139541Y-71786318D01*
X139198930Y-71975608D01*
X139295217Y-72149083D01*
X139424446Y-72299617D01*
X139581331Y-72421056D01*
X139666951Y-72463054D01*
X139759456Y-72508430D01*
X139951520Y-72558159D01*
X140149663Y-72568207D01*
X140345773Y-72538165D01*
X140531820Y-72469260D01*
X140700189Y-72364315D01*
X140843986Y-72227626D01*
X140957324Y-72064789D01*
X141035563Y-71882470D01*
X141075500Y-71688134D01*
X141075500Y-71239462D01*
X141060459Y-71091556D01*
X141060458Y-71091553D01*
X141060458Y-71091551D01*
X141001069Y-70902261D01*
X140951570Y-70813081D01*
X140904784Y-70728789D01*
X140904783Y-70728787D01*
X140904782Y-70728786D01*
X140775553Y-70578252D01*
X140618668Y-70456813D01*
X140440544Y-70369440D01*
X140248480Y-70319711D01*
X140050337Y-70309663D01*
X140050336Y-70309663D01*
X140050334Y-70309663D01*
X139854227Y-70339704D01*
X139668182Y-70408608D01*
X139499812Y-70513554D01*
X139356012Y-70650245D01*
X139242676Y-70813080D01*
X139164437Y-70995399D01*
X139144677Y-71091551D01*
X139124500Y-71189736D01*
X139124500Y-71638408D01*
X118336917Y-71638408D01*
X118432533Y-71532216D01*
X118527179Y-71368284D01*
X118585674Y-71188256D01*
X118605460Y-71000000D01*
X118585674Y-70811744D01*
X118555332Y-70718363D01*
X118527179Y-70631715D01*
X118432533Y-70467783D01*
X118305870Y-70327110D01*
X118152730Y-70215848D01*
X117979802Y-70138855D01*
X117794648Y-70099500D01*
X117794646Y-70099500D01*
X117605354Y-70099500D01*
X117605352Y-70099500D01*
X117420197Y-70138855D01*
X117247269Y-70215848D01*
X117094129Y-70327110D01*
X116967466Y-70467783D01*
X116872820Y-70631715D01*
X116814326Y-70811742D01*
X116794540Y-70999999D01*
X101000000Y-70999999D01*
X101000000Y-70200000D01*
X97900000Y-70200000D01*
X97500000Y-70200000D01*
X88000500Y-70200000D01*
X88000500Y-68235055D01*
X89089500Y-68235055D01*
X89130209Y-68400224D01*
X89130210Y-68400225D01*
X89209266Y-68550852D01*
X89322071Y-68678183D01*
X89462070Y-68774818D01*
X89621128Y-68835140D01*
X89747628Y-68850500D01*
X89751377Y-68850500D01*
X89828623Y-68850500D01*
X89832372Y-68850500D01*
X89958872Y-68835140D01*
X90117930Y-68774818D01*
X90257929Y-68678183D01*
X90370734Y-68550852D01*
X90449790Y-68400225D01*
X90490500Y-68235056D01*
X90490500Y-68064944D01*
X90449790Y-67899775D01*
X90370734Y-67749148D01*
X90257929Y-67621817D01*
X90257928Y-67621816D01*
X90257927Y-67621815D01*
X90117930Y-67525182D01*
X90051530Y-67500000D01*
X103794540Y-67500000D01*
X103814326Y-67688257D01*
X103872820Y-67868284D01*
X103967466Y-68032216D01*
X104094129Y-68172889D01*
X104247269Y-68284151D01*
X104420197Y-68361144D01*
X104605352Y-68400500D01*
X104605354Y-68400500D01*
X104794648Y-68400500D01*
X104924551Y-68372888D01*
X104979803Y-68361144D01*
X105152730Y-68284151D01*
X105305871Y-68172888D01*
X105432533Y-68032216D01*
X105527179Y-67868284D01*
X105581858Y-67700000D01*
X105994540Y-67700000D01*
X106014326Y-67888257D01*
X106072820Y-68068284D01*
X106167466Y-68232216D01*
X106294129Y-68372889D01*
X106447269Y-68484151D01*
X106620197Y-68561144D01*
X106805352Y-68600500D01*
X106805354Y-68600500D01*
X106994648Y-68600500D01*
X107118084Y-68574262D01*
X107179803Y-68561144D01*
X107352730Y-68484151D01*
X107505871Y-68372888D01*
X107632533Y-68232216D01*
X107727179Y-68068284D01*
X107785674Y-67888256D01*
X107805460Y-67700000D01*
X107798887Y-67637460D01*
X107811457Y-67568731D01*
X107859189Y-67517708D01*
X107922208Y-67500500D01*
X107994648Y-67500500D01*
X108162320Y-67464860D01*
X108179803Y-67461144D01*
X108352730Y-67384151D01*
X108505871Y-67272888D01*
X108632533Y-67132216D01*
X108727179Y-66968284D01*
X108785674Y-66788256D01*
X108805460Y-66600000D01*
X108805460Y-66599999D01*
X111794540Y-66599999D01*
X111814326Y-66788257D01*
X111872820Y-66968284D01*
X111967466Y-67132216D01*
X112094129Y-67272889D01*
X112247269Y-67384151D01*
X112420197Y-67461144D01*
X112605352Y-67500500D01*
X112605354Y-67500500D01*
X112794648Y-67500500D01*
X112962320Y-67464860D01*
X112979803Y-67461144D01*
X113152730Y-67384151D01*
X113305871Y-67272888D01*
X113432533Y-67132216D01*
X113527179Y-66968284D01*
X113585674Y-66788256D01*
X113601423Y-66638408D01*
X139124500Y-66638408D01*
X139124816Y-66641519D01*
X139124817Y-66641531D01*
X139139541Y-66786318D01*
X139198930Y-66975608D01*
X139295217Y-67149083D01*
X139424446Y-67299617D01*
X139581331Y-67421056D01*
X139639319Y-67449500D01*
X139759456Y-67508430D01*
X139951520Y-67558159D01*
X140149663Y-67568207D01*
X140345773Y-67538165D01*
X140531820Y-67469260D01*
X140700189Y-67364315D01*
X140843986Y-67227626D01*
X140957324Y-67064789D01*
X141035563Y-66882470D01*
X141075500Y-66688134D01*
X141075500Y-66239462D01*
X141060459Y-66091556D01*
X141060458Y-66091553D01*
X141060458Y-66091551D01*
X141001069Y-65902261D01*
X140972339Y-65850500D01*
X140904784Y-65728789D01*
X140904783Y-65728787D01*
X140904782Y-65728786D01*
X140775553Y-65578252D01*
X140618668Y-65456813D01*
X140440544Y-65369440D01*
X140436079Y-65368284D01*
X140248480Y-65319711D01*
X140050337Y-65309663D01*
X140050336Y-65309663D01*
X140050334Y-65309663D01*
X139854227Y-65339704D01*
X139668182Y-65408608D01*
X139499812Y-65513554D01*
X139356012Y-65650245D01*
X139242676Y-65813080D01*
X139187503Y-65941650D01*
X139164437Y-65995400D01*
X139124500Y-66189736D01*
X139124500Y-66638408D01*
X113601423Y-66638408D01*
X113605460Y-66600000D01*
X113585674Y-66411744D01*
X113539583Y-66269892D01*
X113527179Y-66231715D01*
X113447503Y-66093713D01*
X113437519Y-66076421D01*
X113421047Y-66008522D01*
X113443899Y-65942495D01*
X113498821Y-65899304D01*
X113568374Y-65892663D01*
X113570688Y-65893132D01*
X113605352Y-65900500D01*
X113605354Y-65900500D01*
X113794648Y-65900500D01*
X113918083Y-65874262D01*
X113979803Y-65861144D01*
X114152730Y-65784151D01*
X114173575Y-65769006D01*
X114305870Y-65672889D01*
X114432533Y-65532216D01*
X114527179Y-65368284D01*
X114542961Y-65319711D01*
X114585674Y-65188256D01*
X114605460Y-65000000D01*
X114585674Y-64811744D01*
X114527179Y-64631716D01*
X114527179Y-64631715D01*
X114432533Y-64467783D01*
X114305870Y-64327110D01*
X114152730Y-64215848D01*
X113979802Y-64138855D01*
X113794648Y-64099500D01*
X113794646Y-64099500D01*
X113605354Y-64099500D01*
X113605352Y-64099500D01*
X113420197Y-64138855D01*
X113247269Y-64215848D01*
X113094129Y-64327110D01*
X112967466Y-64467783D01*
X112872820Y-64631715D01*
X112814326Y-64811742D01*
X112794540Y-65000000D01*
X112814326Y-65188257D01*
X112872820Y-65368284D01*
X112962479Y-65523577D01*
X112978952Y-65591477D01*
X112956099Y-65657504D01*
X112901178Y-65700695D01*
X112831625Y-65707336D01*
X112829313Y-65706868D01*
X112794646Y-65699500D01*
X112605354Y-65699500D01*
X112605352Y-65699500D01*
X112420197Y-65738855D01*
X112247269Y-65815848D01*
X112094129Y-65927110D01*
X111967466Y-66067783D01*
X111872820Y-66231715D01*
X111814326Y-66411742D01*
X111794540Y-66599999D01*
X108805460Y-66599999D01*
X108785674Y-66411744D01*
X108739583Y-66269892D01*
X108727179Y-66231715D01*
X108632533Y-66067783D01*
X108505870Y-65927110D01*
X108352730Y-65815848D01*
X108179802Y-65738855D01*
X107994648Y-65699500D01*
X107994646Y-65699500D01*
X107805354Y-65699500D01*
X107805352Y-65699500D01*
X107620197Y-65738855D01*
X107447269Y-65815848D01*
X107294129Y-65927110D01*
X107167466Y-66067783D01*
X107072820Y-66231715D01*
X107014326Y-66411742D01*
X106994540Y-66600000D01*
X107001113Y-66662539D01*
X106988543Y-66731269D01*
X106940811Y-66782292D01*
X106877792Y-66799500D01*
X106805352Y-66799500D01*
X106620197Y-66838855D01*
X106447269Y-66915848D01*
X106294129Y-67027110D01*
X106167466Y-67167783D01*
X106072820Y-67331715D01*
X106014326Y-67511742D01*
X105994540Y-67700000D01*
X105581858Y-67700000D01*
X105585674Y-67688256D01*
X105605460Y-67500000D01*
X105585674Y-67311744D01*
X105532822Y-67149083D01*
X105527179Y-67131715D01*
X105432533Y-66967783D01*
X105305870Y-66827110D01*
X105152730Y-66715848D01*
X104979802Y-66638855D01*
X104794648Y-66599500D01*
X104794646Y-66599500D01*
X104605354Y-66599500D01*
X104605352Y-66599500D01*
X104420197Y-66638855D01*
X104247269Y-66715848D01*
X104094129Y-66827110D01*
X103967466Y-66967783D01*
X103872820Y-67131715D01*
X103814326Y-67311742D01*
X103794540Y-67500000D01*
X90051530Y-67500000D01*
X89958872Y-67464860D01*
X89836092Y-67449951D01*
X89836080Y-67449950D01*
X89832372Y-67449500D01*
X89747628Y-67449500D01*
X89743920Y-67449950D01*
X89743907Y-67449951D01*
X89621127Y-67464860D01*
X89462069Y-67525182D01*
X89322072Y-67621815D01*
X89209265Y-67749149D01*
X89130209Y-67899775D01*
X89089500Y-68064944D01*
X89089500Y-68235055D01*
X88000500Y-68235055D01*
X88000500Y-65235055D01*
X89089500Y-65235055D01*
X89130209Y-65400224D01*
X89159910Y-65456813D01*
X89209266Y-65550852D01*
X89322071Y-65678183D01*
X89462070Y-65774818D01*
X89621128Y-65835140D01*
X89747628Y-65850500D01*
X89751377Y-65850500D01*
X89828623Y-65850500D01*
X89832372Y-65850500D01*
X89958872Y-65835140D01*
X90117930Y-65774818D01*
X90257929Y-65678183D01*
X90370734Y-65550852D01*
X90449790Y-65400225D01*
X90490500Y-65235056D01*
X90490500Y-65064944D01*
X90449790Y-64899775D01*
X90370734Y-64749148D01*
X90257929Y-64621817D01*
X90257928Y-64621816D01*
X90257927Y-64621815D01*
X90117930Y-64525182D01*
X89958872Y-64464860D01*
X89836092Y-64449951D01*
X89836080Y-64449950D01*
X89832372Y-64449500D01*
X89747628Y-64449500D01*
X89743920Y-64449950D01*
X89743907Y-64449951D01*
X89621127Y-64464860D01*
X89462069Y-64525182D01*
X89322072Y-64621815D01*
X89209265Y-64749149D01*
X89130209Y-64899775D01*
X89089500Y-65064944D01*
X89089500Y-65235055D01*
X88000500Y-65235055D01*
X88000500Y-64400000D01*
X91794540Y-64400000D01*
X91814326Y-64588257D01*
X91872820Y-64768284D01*
X91967466Y-64932216D01*
X92094129Y-65072889D01*
X92247269Y-65184151D01*
X92420197Y-65261144D01*
X92605352Y-65300500D01*
X92605354Y-65300500D01*
X92794648Y-65300500D01*
X92918084Y-65274262D01*
X92979803Y-65261144D01*
X93152730Y-65184151D01*
X93256354Y-65108864D01*
X93305870Y-65072889D01*
X93432533Y-64932216D01*
X93527179Y-64768284D01*
X93543573Y-64717828D01*
X93585674Y-64588256D01*
X93605460Y-64400000D01*
X93585674Y-64211744D01*
X93555332Y-64118363D01*
X93527179Y-64031715D01*
X93432533Y-63867783D01*
X93305870Y-63727110D01*
X93152730Y-63615848D01*
X92979802Y-63538855D01*
X92794648Y-63499500D01*
X92794646Y-63499500D01*
X92605354Y-63499500D01*
X92605352Y-63499500D01*
X92420197Y-63538855D01*
X92247269Y-63615848D01*
X92094129Y-63727110D01*
X91967466Y-63867783D01*
X91872820Y-64031715D01*
X91814326Y-64211742D01*
X91794540Y-64400000D01*
X88000500Y-64400000D01*
X88000500Y-56202424D01*
X88000596Y-56197556D01*
X88001929Y-56163621D01*
X88806124Y-56163621D01*
X88825218Y-56588762D01*
X88825715Y-56594290D01*
X88882842Y-57016015D01*
X88883836Y-57021492D01*
X88978535Y-57436395D01*
X88980011Y-57441743D01*
X89111516Y-57846475D01*
X89113482Y-57851714D01*
X89280731Y-58243010D01*
X89283148Y-58248031D01*
X89484813Y-58622787D01*
X89487665Y-58627560D01*
X89722105Y-58982723D01*
X89725378Y-58987229D01*
X89990717Y-59319952D01*
X89994381Y-59324146D01*
X90043061Y-59375060D01*
X91035073Y-58383047D01*
X91026524Y-58413097D01*
X91036873Y-58524778D01*
X91086867Y-58625179D01*
X91169753Y-58700741D01*
X91274339Y-58741257D01*
X91358221Y-58741257D01*
X91389891Y-58735336D01*
X90397715Y-59727513D01*
X90612978Y-59915583D01*
X90617320Y-59919046D01*
X90961613Y-60169189D01*
X90966250Y-60172250D01*
X91331601Y-60390538D01*
X91336472Y-60393159D01*
X91719903Y-60577809D01*
X91725030Y-60580001D01*
X92123450Y-60729530D01*
X92128748Y-60731251D01*
X92538971Y-60844466D01*
X92544406Y-60845707D01*
X92963128Y-60921693D01*
X92968638Y-60922440D01*
X93392506Y-60960589D01*
X93398047Y-60960838D01*
X93823629Y-60960838D01*
X93829169Y-60960589D01*
X94253037Y-60922440D01*
X94258547Y-60921693D01*
X94677269Y-60845707D01*
X94682704Y-60844466D01*
X95092927Y-60731251D01*
X95098225Y-60729530D01*
X95496645Y-60580001D01*
X95501772Y-60577809D01*
X95885203Y-60393159D01*
X95890074Y-60390538D01*
X96255425Y-60172250D01*
X96260062Y-60169189D01*
X96604343Y-59919054D01*
X96608715Y-59915568D01*
X96823959Y-59727514D01*
X96823959Y-59727513D01*
X95837703Y-58741257D01*
X95919059Y-58741257D01*
X96001507Y-58725845D01*
X96096867Y-58666800D01*
X96164458Y-58577295D01*
X96195152Y-58469417D01*
X96187204Y-58383650D01*
X97178613Y-59375059D01*
X97227305Y-59324133D01*
X97230957Y-59319953D01*
X97496297Y-58987229D01*
X97499570Y-58982723D01*
X97734010Y-58627560D01*
X97736862Y-58622787D01*
X97938527Y-58248031D01*
X97940944Y-58243010D01*
X98108193Y-57851714D01*
X98110159Y-57846475D01*
X98241664Y-57441743D01*
X98243140Y-57436395D01*
X98337839Y-57021492D01*
X98338833Y-57016015D01*
X98395960Y-56594290D01*
X98396457Y-56588762D01*
X98413936Y-56199581D01*
X107467965Y-56199581D01*
X107467965Y-56243503D01*
X107468303Y-56249964D01*
X107482783Y-56387733D01*
X107541245Y-56567660D01*
X107635838Y-56731501D01*
X107762432Y-56872096D01*
X107915482Y-56983295D01*
X108088318Y-57060245D01*
X108117964Y-57066546D01*
X108117965Y-56199581D01*
X107467965Y-56199581D01*
X98413936Y-56199581D01*
X98415551Y-56163621D01*
X98415551Y-56158054D01*
X98406188Y-55949581D01*
X108113067Y-55949581D01*
X108132470Y-56047126D01*
X108187725Y-56129821D01*
X108270420Y-56185076D01*
X108343341Y-56199581D01*
X108392589Y-56199581D01*
X108465510Y-56185076D01*
X108548205Y-56129821D01*
X108603460Y-56047126D01*
X108617965Y-55974204D01*
X108617965Y-57066546D01*
X108647611Y-57060245D01*
X108820446Y-56983295D01*
X108919652Y-56911217D01*
X108985458Y-56887736D01*
X109053512Y-56903561D01*
X109065423Y-56911216D01*
X109165234Y-56983732D01*
X109338162Y-57060725D01*
X109523317Y-57100081D01*
X109523319Y-57100081D01*
X109712613Y-57100081D01*
X109870382Y-57066546D01*
X109897768Y-57060725D01*
X109985886Y-57021492D01*
X110070692Y-56983734D01*
X110071296Y-56983295D01*
X110170081Y-56911523D01*
X110235884Y-56888045D01*
X110303938Y-56903870D01*
X110315849Y-56911525D01*
X110415234Y-56983732D01*
X110588162Y-57060725D01*
X110773317Y-57100081D01*
X110773319Y-57100081D01*
X110962613Y-57100081D01*
X111120382Y-57066546D01*
X111147768Y-57060725D01*
X111320695Y-56983732D01*
X111349261Y-56962977D01*
X111415063Y-56939497D01*
X111483117Y-56955321D01*
X111486295Y-56957178D01*
X111628359Y-57043059D01*
X111790769Y-57093667D01*
X111861349Y-57100081D01*
X111864168Y-57100081D01*
X112371762Y-57100081D01*
X112374581Y-57100081D01*
X112445161Y-57093667D01*
X112607571Y-57043059D01*
X112753150Y-56955053D01*
X112873437Y-56834766D01*
X112961443Y-56689187D01*
X113012051Y-56526777D01*
X113018465Y-56456197D01*
X113018465Y-56183202D01*
X133875706Y-56183202D01*
X133894799Y-56608343D01*
X133895296Y-56613871D01*
X133952423Y-57035596D01*
X133953417Y-57041073D01*
X134048116Y-57455976D01*
X134049592Y-57461324D01*
X134181097Y-57866056D01*
X134183063Y-57871295D01*
X134350312Y-58262591D01*
X134352729Y-58267612D01*
X134554394Y-58642368D01*
X134557246Y-58647141D01*
X134791686Y-59002304D01*
X134794959Y-59006810D01*
X135060298Y-59339533D01*
X135063962Y-59343727D01*
X135112642Y-59394641D01*
X136104654Y-58402628D01*
X136096105Y-58432678D01*
X136106454Y-58544359D01*
X136156448Y-58644760D01*
X136239334Y-58720322D01*
X136343920Y-58760838D01*
X136427802Y-58760838D01*
X136459472Y-58754917D01*
X135467296Y-59747094D01*
X135682559Y-59935164D01*
X135686901Y-59938627D01*
X136031194Y-60188770D01*
X136035831Y-60191831D01*
X136401182Y-60410119D01*
X136406053Y-60412740D01*
X136789484Y-60597390D01*
X136794611Y-60599582D01*
X137193031Y-60749111D01*
X137198329Y-60750832D01*
X137608552Y-60864047D01*
X137613987Y-60865288D01*
X138032709Y-60941274D01*
X138038219Y-60942021D01*
X138462087Y-60980170D01*
X138467628Y-60980419D01*
X138893210Y-60980419D01*
X138898750Y-60980170D01*
X139322618Y-60942021D01*
X139328128Y-60941274D01*
X139746850Y-60865288D01*
X139752285Y-60864047D01*
X140162508Y-60750832D01*
X140167806Y-60749111D01*
X140566226Y-60599582D01*
X140571353Y-60597390D01*
X140954784Y-60412740D01*
X140959655Y-60410119D01*
X141325006Y-60191831D01*
X141329643Y-60188770D01*
X141673924Y-59938635D01*
X141678296Y-59935149D01*
X141893540Y-59747095D01*
X141893540Y-59747094D01*
X140907284Y-58760838D01*
X140988640Y-58760838D01*
X141071088Y-58745426D01*
X141166448Y-58686381D01*
X141234039Y-58596876D01*
X141264733Y-58488998D01*
X141256785Y-58403231D01*
X142248194Y-59394640D01*
X142296886Y-59343714D01*
X142300538Y-59339534D01*
X142565878Y-59006810D01*
X142569151Y-59002304D01*
X142803591Y-58647141D01*
X142806443Y-58642368D01*
X143008108Y-58267612D01*
X143010525Y-58262591D01*
X143177774Y-57871295D01*
X143179740Y-57866056D01*
X143311245Y-57461324D01*
X143312721Y-57455976D01*
X143407420Y-57041073D01*
X143408414Y-57035596D01*
X143465541Y-56613871D01*
X143466038Y-56608343D01*
X143485132Y-56183202D01*
X143485132Y-56177635D01*
X143466038Y-55752494D01*
X143465541Y-55746966D01*
X143408414Y-55325241D01*
X143407420Y-55319764D01*
X143312721Y-54904861D01*
X143311245Y-54899513D01*
X143179740Y-54494781D01*
X143177774Y-54489542D01*
X143010525Y-54098246D01*
X143008108Y-54093225D01*
X142806443Y-53718469D01*
X142803591Y-53713696D01*
X142569151Y-53358533D01*
X142565878Y-53354027D01*
X142300539Y-53021304D01*
X142296875Y-53017110D01*
X142248194Y-52966195D01*
X141256184Y-53958204D01*
X141264733Y-53928160D01*
X141254384Y-53816479D01*
X141204390Y-53716078D01*
X141121504Y-53640516D01*
X141016918Y-53600000D01*
X140933036Y-53600000D01*
X140901360Y-53605921D01*
X141893540Y-52613742D01*
X141678278Y-52425673D01*
X141673936Y-52422210D01*
X141329643Y-52172067D01*
X141325006Y-52169006D01*
X140959655Y-51950718D01*
X140954784Y-51948097D01*
X140571353Y-51763447D01*
X140566226Y-51761255D01*
X140167806Y-51611726D01*
X140162508Y-51610005D01*
X139752285Y-51496790D01*
X139746850Y-51495549D01*
X139328128Y-51419563D01*
X139322618Y-51418816D01*
X138898750Y-51380667D01*
X138893210Y-51380419D01*
X138467628Y-51380419D01*
X138462087Y-51380667D01*
X138038219Y-51418816D01*
X138032709Y-51419563D01*
X137613987Y-51495549D01*
X137608552Y-51496790D01*
X137198329Y-51610005D01*
X137193031Y-51611726D01*
X136794611Y-51761255D01*
X136789484Y-51763447D01*
X136406053Y-51948097D01*
X136401182Y-51950718D01*
X136035831Y-52169006D01*
X136031194Y-52172067D01*
X135686901Y-52422210D01*
X135682559Y-52425673D01*
X135467296Y-52613741D01*
X135467296Y-52613742D01*
X136453554Y-53600000D01*
X136372198Y-53600000D01*
X136289750Y-53615412D01*
X136194390Y-53674457D01*
X136126799Y-53763962D01*
X136096105Y-53871840D01*
X136104052Y-53957605D01*
X135112643Y-52966196D01*
X135112642Y-52966196D01*
X135063962Y-53017111D01*
X135060293Y-53021310D01*
X134794959Y-53354027D01*
X134791686Y-53358533D01*
X134557246Y-53713696D01*
X134554394Y-53718469D01*
X134352729Y-54093225D01*
X134350312Y-54098246D01*
X134183063Y-54489542D01*
X134181097Y-54494781D01*
X134049592Y-54899513D01*
X134048116Y-54904861D01*
X133953417Y-55319764D01*
X133952423Y-55325241D01*
X133895296Y-55746966D01*
X133894799Y-55752494D01*
X133875706Y-56177635D01*
X133875706Y-56183202D01*
X113018465Y-56183202D01*
X113018465Y-55442965D01*
X113012051Y-55372385D01*
X112961443Y-55209975D01*
X112873437Y-55064396D01*
X112873436Y-55064394D01*
X112753151Y-54944109D01*
X112629755Y-54869514D01*
X112607571Y-54856103D01*
X112445161Y-54805495D01*
X112445158Y-54805494D01*
X112377389Y-54799336D01*
X112377385Y-54799335D01*
X112374581Y-54799081D01*
X111861349Y-54799081D01*
X111858545Y-54799335D01*
X111858540Y-54799336D01*
X111790771Y-54805494D01*
X111712468Y-54829894D01*
X111628359Y-54856103D01*
X111628357Y-54856103D01*
X111628357Y-54856104D01*
X111486296Y-54941983D01*
X111418741Y-54959819D01*
X111352267Y-54938301D01*
X111349261Y-54936184D01*
X111320694Y-54915429D01*
X111147767Y-54838436D01*
X110962613Y-54799081D01*
X110962611Y-54799081D01*
X110773319Y-54799081D01*
X110773317Y-54799081D01*
X110588162Y-54838436D01*
X110415237Y-54915427D01*
X110315849Y-54987637D01*
X110250042Y-55011116D01*
X110181988Y-54995290D01*
X110170078Y-54987636D01*
X110101290Y-54937659D01*
X110070695Y-54915430D01*
X110070694Y-54915429D01*
X110070692Y-54915428D01*
X109897767Y-54838436D01*
X109712613Y-54799081D01*
X109712611Y-54799081D01*
X109523319Y-54799081D01*
X109523317Y-54799081D01*
X109338162Y-54838436D01*
X109165234Y-54915429D01*
X109065424Y-54987945D01*
X108999617Y-55011425D01*
X108931564Y-54995599D01*
X108919653Y-54987945D01*
X108820444Y-54915864D01*
X108647611Y-54838916D01*
X108617965Y-54832614D01*
X108617965Y-55924957D01*
X108603460Y-55852036D01*
X108548205Y-55769341D01*
X108465510Y-55714086D01*
X108392589Y-55699581D01*
X108343341Y-55699581D01*
X108270420Y-55714086D01*
X108187725Y-55769341D01*
X108132470Y-55852036D01*
X108113067Y-55949581D01*
X98406188Y-55949581D01*
X98396457Y-55732913D01*
X98395960Y-55727385D01*
X98392194Y-55699581D01*
X107467965Y-55699581D01*
X108117965Y-55699581D01*
X108117965Y-54832614D01*
X108088318Y-54838916D01*
X107915486Y-54915864D01*
X107762429Y-55027067D01*
X107635838Y-55167660D01*
X107541245Y-55331501D01*
X107482783Y-55511428D01*
X107468303Y-55649197D01*
X107467965Y-55655658D01*
X107467965Y-55699581D01*
X98392194Y-55699581D01*
X98338833Y-55305660D01*
X98337839Y-55300183D01*
X98243140Y-54885280D01*
X98241664Y-54879932D01*
X98110159Y-54475200D01*
X98108193Y-54469961D01*
X97940944Y-54078665D01*
X97938527Y-54073644D01*
X97882081Y-53968750D01*
X128007040Y-53968750D01*
X128011059Y-54006992D01*
X128026826Y-54157007D01*
X128085320Y-54337034D01*
X128179966Y-54500966D01*
X128306629Y-54641639D01*
X128459769Y-54752901D01*
X128632697Y-54829894D01*
X128817852Y-54869250D01*
X128817854Y-54869250D01*
X129007148Y-54869250D01*
X129152111Y-54838437D01*
X129192303Y-54829894D01*
X129365230Y-54752901D01*
X129518371Y-54641638D01*
X129645033Y-54500966D01*
X129739679Y-54337034D01*
X129798174Y-54157006D01*
X129817960Y-53968750D01*
X129798174Y-53780494D01*
X129746330Y-53620935D01*
X129739679Y-53600465D01*
X129645033Y-53436533D01*
X129518370Y-53295860D01*
X129365230Y-53184598D01*
X129192302Y-53107605D01*
X129007148Y-53068250D01*
X129007146Y-53068250D01*
X128817854Y-53068250D01*
X128817852Y-53068250D01*
X128632697Y-53107605D01*
X128459769Y-53184598D01*
X128306629Y-53295860D01*
X128179966Y-53436533D01*
X128085320Y-53600465D01*
X128026826Y-53780492D01*
X128007040Y-53968749D01*
X128007040Y-53968750D01*
X97882081Y-53968750D01*
X97736862Y-53698888D01*
X97734010Y-53694115D01*
X97499570Y-53338952D01*
X97496297Y-53334446D01*
X97230958Y-53001723D01*
X97227294Y-52997529D01*
X97178613Y-52946614D01*
X96186603Y-53938623D01*
X96195152Y-53908579D01*
X96184803Y-53796898D01*
X96134809Y-53696497D01*
X96051923Y-53620935D01*
X95947337Y-53580419D01*
X95863455Y-53580419D01*
X95831779Y-53586340D01*
X96823959Y-52594161D01*
X96608697Y-52406092D01*
X96604355Y-52402629D01*
X96600736Y-52400000D01*
X123294540Y-52400000D01*
X123314326Y-52588257D01*
X123372820Y-52768284D01*
X123467466Y-52932216D01*
X123594129Y-53072889D01*
X123747269Y-53184151D01*
X123920197Y-53261144D01*
X124105352Y-53300500D01*
X124105354Y-53300500D01*
X124294648Y-53300500D01*
X124418083Y-53274262D01*
X124479803Y-53261144D01*
X124652730Y-53184151D01*
X124805871Y-53072888D01*
X124932533Y-52932216D01*
X125027179Y-52768284D01*
X125085674Y-52588256D01*
X125105460Y-52400000D01*
X125085674Y-52211744D01*
X125027179Y-52031716D01*
X125027179Y-52031715D01*
X124932533Y-51867783D01*
X124805870Y-51727110D01*
X124652730Y-51615848D01*
X124479802Y-51538855D01*
X124294648Y-51499500D01*
X124294646Y-51499500D01*
X124105354Y-51499500D01*
X124105352Y-51499500D01*
X123920197Y-51538855D01*
X123747269Y-51615848D01*
X123594129Y-51727110D01*
X123467466Y-51867783D01*
X123372820Y-52031715D01*
X123314326Y-52211742D01*
X123294540Y-52400000D01*
X96600736Y-52400000D01*
X96260062Y-52152486D01*
X96255425Y-52149425D01*
X95890074Y-51931137D01*
X95885203Y-51928516D01*
X95501772Y-51743866D01*
X95496645Y-51741674D01*
X95098225Y-51592145D01*
X95092927Y-51590424D01*
X94682704Y-51477209D01*
X94677269Y-51475968D01*
X94258547Y-51399982D01*
X94253037Y-51399235D01*
X93829169Y-51361086D01*
X93823629Y-51360838D01*
X93398047Y-51360838D01*
X93392506Y-51361086D01*
X92968638Y-51399235D01*
X92963128Y-51399982D01*
X92544406Y-51475968D01*
X92538971Y-51477209D01*
X92128748Y-51590424D01*
X92123450Y-51592145D01*
X91725030Y-51741674D01*
X91719903Y-51743866D01*
X91336472Y-51928516D01*
X91331601Y-51931137D01*
X90966250Y-52149425D01*
X90961613Y-52152486D01*
X90617320Y-52402629D01*
X90612978Y-52406092D01*
X90397715Y-52594160D01*
X90397715Y-52594161D01*
X91383973Y-53580419D01*
X91302617Y-53580419D01*
X91220169Y-53595831D01*
X91124809Y-53654876D01*
X91057218Y-53744381D01*
X91026524Y-53852259D01*
X91034471Y-53938025D01*
X90043061Y-52946615D01*
X89994381Y-52997530D01*
X89990712Y-53001729D01*
X89725378Y-53334446D01*
X89722105Y-53338952D01*
X89487665Y-53694115D01*
X89484813Y-53698888D01*
X89283148Y-54073644D01*
X89280731Y-54078665D01*
X89113482Y-54469961D01*
X89111516Y-54475200D01*
X88980011Y-54879932D01*
X88978535Y-54885280D01*
X88883836Y-55300183D01*
X88882842Y-55305660D01*
X88825715Y-55727385D01*
X88825218Y-55732913D01*
X88806124Y-56158054D01*
X88806124Y-56163621D01*
X88001929Y-56163621D01*
X88007383Y-56024800D01*
X88009989Y-55958457D01*
X88018196Y-55760060D01*
X88018948Y-55750637D01*
X88019383Y-55746966D01*
X88046260Y-55519883D01*
X88055496Y-55445784D01*
X88072190Y-55311854D01*
X88073608Y-55303085D01*
X88118599Y-55076900D01*
X88162084Y-54869514D01*
X88164075Y-54861405D01*
X88226506Y-54640040D01*
X88287290Y-54435871D01*
X88289763Y-54428445D01*
X88369289Y-54212884D01*
X88391092Y-54157007D01*
X88446988Y-54013756D01*
X88449840Y-54007048D01*
X88545475Y-53799600D01*
X88546586Y-53797260D01*
X88640137Y-53605898D01*
X88643294Y-53599872D01*
X88754789Y-53400783D01*
X88756368Y-53398052D01*
X88865489Y-53214922D01*
X88868836Y-53209621D01*
X88995549Y-53019982D01*
X88997615Y-53016993D01*
X89121569Y-52843384D01*
X89124988Y-52838828D01*
X89266181Y-52659726D01*
X89268805Y-52656516D01*
X89406652Y-52493760D01*
X89410157Y-52489799D01*
X89564901Y-52322398D01*
X89568176Y-52318992D01*
X89718992Y-52168176D01*
X89722398Y-52164901D01*
X89889799Y-52010157D01*
X89893760Y-52006652D01*
X90056516Y-51868805D01*
X90059726Y-51866181D01*
X90238828Y-51724988D01*
X90243384Y-51721569D01*
X90416993Y-51597615D01*
X90419982Y-51595549D01*
X90609621Y-51468836D01*
X90614922Y-51465489D01*
X90798052Y-51356368D01*
X90800783Y-51354789D01*
X90999872Y-51243294D01*
X91005898Y-51240137D01*
X91197260Y-51146586D01*
X91199600Y-51145475D01*
X91407035Y-51049846D01*
X91413788Y-51046976D01*
X91612839Y-50969304D01*
X91828464Y-50889756D01*
X91835871Y-50887290D01*
X92040040Y-50826506D01*
X92261391Y-50764079D01*
X92269535Y-50762079D01*
X92476859Y-50718607D01*
X92703081Y-50673608D01*
X92711873Y-50672188D01*
X92919768Y-50646273D01*
X93150669Y-50618944D01*
X93160058Y-50618196D01*
X93358452Y-50609990D01*
X93597556Y-50600596D01*
X93602425Y-50600500D01*
X138697576Y-50600500D01*
X138702442Y-50600595D01*
G37*
%TD.AperFunction*%
%TD*%
M02*
