M48
; DRILL file {KiCad 7.0.2} date Sat Jun  3 12:40:42 2023
; FORMAT={-:-/ absolute / inch / decimal}
; #@! TF.CreationDate,2023-06-03T12:40:42+05:30
; #@! TF.GenerationSoftware,Kicad,Pcbnew,7.0.2
; #@! TF.FileFunction,Plated,1,4,PTH
FMAT,2
INCH
; #@! TA.AperFunction,Plated,PTH,ViaDrill
T1C0.0157
; #@! TA.AperFunction,Plated,PTH,ComponentDrill
T2C0.0197
; #@! TA.AperFunction,Plated,PTH,ComponentDrill
T3C0.0217
; #@! TA.AperFunction,Plated,PTH,ComponentDrill
T4C0.0236
; #@! TA.AperFunction,Plated,PTH,ComponentDrill
T5C0.0472
; #@! TA.AperFunction,Plated,PTH,ComponentDrill
T6C0.1693
%
G90
G05
T1
X3.6496Y-2.5354
X3.6496Y-2.7126
X3.8228Y-3.0394
X3.8268Y-2.9685
X3.9094Y-3.1181
X3.9094Y-3.1811
X3.9409Y-3.2441
X3.9843Y-2.874
X3.9961Y-3.0236
X4.0276Y-2.811
X4.0276Y-2.8504
X4.0551Y-3.0236
X4.0591Y-2.6614
X4.122Y-2.6575
X4.2008Y-3.3071
X4.2087Y-2.6654
X4.248Y-2.622
X4.248Y-2.6654
X4.2913Y-3.3071
X4.437Y-2.622
X4.4764Y-2.5591
X4.4764Y-2.8543
X4.5866Y-3.2165
X4.5984Y-3.315
X4.6063Y-2.7323
X4.6339Y-2.7953
X4.6417Y-3.248
X4.689Y-2.0591
X4.6929Y-2.7795
X4.7087Y-3.4843
X4.7087Y-3.5354
X4.7795Y-3.6575
X4.7795Y-3.7638
X4.7874Y-2.063
X4.8386Y-2.063
X4.8425Y-3.4843
X4.8425Y-3.5354
X4.8504Y-3.6575
X4.8504Y-3.7638
X4.8898Y-2.063
X4.9094Y-3.1929
X4.9094Y-3.2717
X4.9646Y-3.6339
X4.9646Y-3.6732
X4.9646Y-3.7402
X4.9646Y-3.7835
X5.0315Y-3.4342
X5.0315Y-3.5157
X5.0315Y-3.5512
X5.0753Y-2.1248
X5.0753Y-2.2744
X5.1102Y-3.252
X5.1102Y-3.2913
X5.1181Y-3.5433
X5.1496Y-3.5709
X5.189Y-3.248
X5.189Y-3.2953
X5.2126Y-3.0906
X5.2165Y-3.3189
X5.252Y-3.3504
X5.2598Y-3.0906
X5.2874Y-3.4449
X5.3189Y-3.4764
X5.3307Y-2.6496
X5.4347Y-2.6607
X5.4354Y-2.6237
X5.4708Y-2.6237
X5.471Y-2.6607
T2
X4.2648Y-3.7953
X4.2665Y-2.2027
X4.314Y-3.7953
X4.3157Y-2.2027
X4.3632Y-3.7953
X4.3649Y-2.2027
X4.4124Y-3.7953
X4.4141Y-2.2027
T4
X3.5585Y-2.2111
X3.5585Y-3.7866
X3.5957Y-2.1213
X3.5957Y-2.3008
X3.5957Y-3.6969
X3.5957Y-3.8764
X3.6855Y-2.0841
X3.6855Y-2.338
X3.6855Y-3.6597
X3.6855Y-3.9136
X3.7752Y-2.1213
X3.7752Y-2.3008
X3.7752Y-3.6969
X3.7752Y-3.8764
X3.8124Y-2.2111
X3.8124Y-3.7866
X5.3329Y-2.2118
X5.3329Y-3.7866
X5.3701Y-2.122
X5.3701Y-2.3016
X5.3701Y-3.6969
X5.3701Y-3.8764
X5.4599Y-2.0849
X5.4599Y-2.3388
X5.4599Y-3.6597
X5.4599Y-3.9136
X5.5496Y-2.122
X5.5496Y-2.3016
X5.5496Y-3.6969
X5.5496Y-3.8764
X5.5868Y-2.2118
X5.5868Y-3.7866
T5
X5.4606Y-3.1909
X5.4606Y-3.3287
T6
X3.6855Y-2.2111
X3.6855Y-3.7866
X5.4599Y-2.2118
X5.4599Y-3.7866
T2
G00X5.6093Y-2.5763
M15
G01X5.6348Y-2.5763
M16
G05
G00X5.6093Y-2.8519
M15
G01X5.6348Y-2.8519
M16
G05
T3
G00X5.5157Y-2.6216
M15
G01X5.5157Y-2.6098
M16
G05
G00X5.5157Y-2.8185
M15
G01X5.5157Y-2.8067
M16
G05
T0
M30
